<?xml version="1.0" encoding="UTF-8"?>
<svg id="Laag_2" data-name="Laag 2" xmlns="http://www.w3.org/2000/svg" viewBox="0 0 904 276.69">
  <defs>
    <style>
      .cls-1 {
        fill: #00003a;
      }
    </style>
  </defs>
  <g id="Laag_1-2" data-name="Laag 1">
    <g>
      <path class="cls-1" d="m.22,5.98h27.15v59.47h36.35v21.05H.22V5.98Z"/>
      <path class="cls-1" d="m168.52,54.87l-10.58,32.56c-11.5-3.11-21.97-4.49-39-4.49-14.61,0-29.22,3.57-44.52,7.59l-.81-1.61c11.73-4.26,13.92-11.85,13.92-15.07,0-2.07-.58-5.41-1.04-8.51-.35-1.96-.58-3.8-.69-5.41h-3.22c-5.41,0-7.36,2.76-8.28,5.06l-.92-.23c-.35-1.27-.58-2.65-.58-4.83,0-8.4,5.06-13,12.31-13h.69c.46-8.28,6.67-15.07,13.57-18.64l-.81-1.04c-2.88,1.5-6.9,3.57-12.31,3.57-3.45,0-6.9-1.73-11.27-1.73-3.45,0-5.64,1.5-5.64,4.26,0,1.5.69,3.11,1.27,4.03h-.12l-2.3-.46c-.46-1.04-1.5-4.72-1.5-8.4,0-13.46,7.13-21.97,20.82-21.97s23.12,4.03,28.3,4.03,9.78-3.11,14.03-5.87l1.38,1.96c-5.41,3.22-10.93,8.4-10.93,16.91v25.88c0,14.26-6.33,20.59-12.88,23.12l.35,1.04c10.47-.92,17.37-7.94,17.37-24.39v-25.65c0-11.73,11.04-17.83,18.29-17.83,7.71,0,13,2.53,15.76,2.53,4.49,0,5.87-1.84,6.56-4.14l.81.11c.58,1.38,1.15,3.34,1.15,5.18,0,12.54-4.83,18.18-19.67,19.1l-8.05.58c-5.06.35-11.85,2.76-12.65,12.08-.23,2.07-.35,5.06-.35,8.17l.58.12c3.8-10.24,11.62-14.61,20.59-14.61,4.37,0,8.4.35,11.27.69l1.38-4.49,2.65.58-5.41,21.28c-1.73-.46-6.9-2.07-11.16-2.07-12.19,0-19.9,3.22-21.17,10.58-.11.69-.58,2.88-.92,4.26l.34.23c3.68-3.22,12.08-5.64,20.71-5.64s13.57,1.15,17.14,2.3l2.88-8.74,2.65,1.04Zm-68.56-31.75c-1.5.46-5.64,1.04-11.16,1.04-4.49,0-6.9-2.19-11.27-2.19-5.52,0-7.13,3.11-7.71,5.87l.46.23c1.04-.69,2.88-1.27,5.64-1.27,3.68,0,7.36,1.73,11.39,1.73,5.18,0,9.89-2.88,13-4.72l-.35-.69Zm-6.9,38.19c-.46-3.11-.92-6.1-.92-8.05h-6.67c-4.72,0-6.33,2.3-6.9,4.83l.23.35c1.04-.46,2.88-.81,3.91-.81h5.29c.11,1.61.46,3.57.69,5.52.46,3.45,1.04,7.25,1.04,10.12,0,3.34-.92,5.87-1.96,7.59h1.04c2.53-1.38,5.41-4.26,5.41-9.32,0-2.88-.58-6.67-1.15-10.24Zm4.72-29.22c-5.18,2.88-8.97,8.4-9.89,14.72h4.95c.35-5.29,2.07-10.47,5.41-14.72h-.46Zm60.16,48.43c-8.97-2.42-20.36-4.37-34.17-4.37-12.08,0-27.15,4.72-34.51,7.71l-.46,1.15c10.7-2.88,21.28-4.37,32.56-4.37,15.99,0,25.08,1.73,35.09,4.14l1.5-4.26Zm-.12-34.86c-2.53-.81-6.9-1.38-11.73-1.38-7.25,0-11.85,2.88-15.3,6.44v1.15c4.14-1.96,8.17-3.22,15.53-3.22,3.8,0,8.51.92,10.24,1.5l1.27-4.49Zm6.33-28.3c-1.84,1.5-3.45,2.3-6.21,2.88-3.22.69-6.1,1.15-9.09,1.38-2.88.23-6.21.35-9.2,1.04-3.91.92-6.56,2.88-8.63,6.21l.34.69c2.3-1.5,5.06-2.42,8.74-2.76,2.53-.23,5.18-.23,7.94-.46,3.68-.23,7.48-.81,10.24-2.3,3.22-1.61,5.18-3.8,6.21-5.98l-.34-.69Z"/>
      <path class="cls-1" d="m194.63,27.03h-23.58V5.98h74.31v21.05h-23.58v59.47h-27.15V27.03Z"/>
      <path class="cls-1" d="m280.79,14.72c0,3.68-.46,6.44-4.49,15.07l-8.05,17.14h-16.1l5.75-19.44c-4.6-2.19-7.48-6.67-7.48-12.77,0-8.97,6.44-14.72,15.18-14.72s15.18,5.75,15.18,14.72Z"/>
      <path class="cls-1" d="m285.74,80.06l8.74-19.79c7.59,4.49,17.72,7.36,26.57,7.36,7.71,0,10.47-1.61,10.47-4.37,0-10.12-44.52-1.96-44.52-31.98,0-14.95,12.54-27.15,37.5-27.15,10.81,0,21.97,2.3,30.37,7.02l-8.17,19.67c-7.94-4.03-15.42-5.98-22.43-5.98-7.94,0-10.47,2.3-10.47,5.06,0,9.66,44.52,1.61,44.52,31.29,0,14.72-12.54,27.15-37.5,27.15-13.46,0-27.03-3.34-35.09-8.28Z"/>
      <path class="cls-1" d="m395.83,80.06l8.74-19.79c7.59,4.49,17.72,7.36,26.57,7.36,7.71,0,10.47-1.61,10.47-4.37,0-10.12-44.52-1.96-44.52-31.98,0-14.95,12.54-27.15,37.5-27.15,10.81,0,21.97,2.3,30.37,7.02l-8.17,19.67c-7.94-4.03-15.42-5.98-22.43-5.98-7.94,0-10.47,2.3-10.47,5.06,0,9.66,44.52,1.61,44.52,31.29,0,14.72-12.54,27.15-37.5,27.15-13.46,0-27.03-3.34-35.09-8.28Z"/>
      <path class="cls-1" d="m492.81,27.03h-23.58V5.98h74.31v21.05h-23.58v59.47h-27.15V27.03Z"/>
      <path class="cls-1" d="m601.41,72.47h-30.6l-5.41,14.03h-27.61l35.2-80.53h26.69l35.2,80.53h-28.07l-5.41-14.03Zm-7.48-19.56l-7.82-20.25-7.82,20.25h15.65Z"/>
      <path class="cls-1" d="m676.99,74.66l-13.92.81c-9.78.58-20.94,2.53-20.94,14.26,0,5.98,4.95,8.74,10.12,8.74,18.18,0,31.29-22.43,58.55-22.43,11.73,0,21.51,5.98,21.51,17.37,0,6.9-3.11,12.31-4.72,14.38l-1.96.35c.46-.92.69-2.07.69-3.34,0-5.64-5.06-9.55-14.96-9.55-15.64,0-32.9,7.25-55.45,7.25-10.01,0-16.79-4.14-16.79-13.8s8.28-13.57,11.85-15.07v-23.7h-3.57c-5.41,0-7.25,2.76-8.17,5.06l-.92-.11c-.23-1.27-.69-2.76-.69-4.95,0-8.4,5.75-12.88,13-12.88h.35v-11.04c0-5.52-1.96-8.28-6.21-8.28-4.49,0-8.05,2.3-8.05,10.81v2.53l-2.3-.69v-4.26c0-13.69,11.04-20.94,27.38-20.94s21.86,7.94,22.78,17.83l30.95-18.41c12.65,3.8,24.5,13,24.5,29.45,0,36.93-36.01,39-63.04,40.61Zm11.96-51.77h-.12l-4.26,2.3v46.13c1.73,0,2.88-.12,4.37-.35V22.89Zm4.95-2.99l-3.11,1.96v19.79l14.04-8.05c-1.38-7.13-5.06-11.85-10.93-13.69Zm11.39,19.67c0-1.5-.23-2.88-.35-4.14l-14.15,8.4v5.06l14.5-8.4v-.92Zm-14.5,11.62v19.56c9.09-1.84,14.04-10.81,14.5-28.07l-14.5,8.51Z"/>
      <path class="cls-1" d="m783.97,5.98h27.15v80.53h-27.15V5.98Z"/>
      <path class="cls-1" d="m903.61,5.98v80.53h-22.32l-30.6-36.58v36.58h-26.46V5.98h22.32l30.6,36.58V5.98h26.46Z"/>
    </g>
    <g>
      <path class="cls-1" d="m0,190.42c0-36.8,28.24-62.65,66.76-62.65,23.45,0,41.94,8.56,53.75,23.96l-25.5,22.77c-7.02-8.9-15.41-14.04-26.19-14.04-16.78,0-28.07,11.64-28.07,29.96s11.3,29.96,28.07,29.96c10.78,0,19.17-5.14,26.19-14.04l25.5,22.77c-11.81,15.41-30.3,23.96-53.75,23.96C28.24,253.07,0,227.22,0,190.42Z"/>
      <path class="cls-1" d="m124.79,190.42c0-36.29,28.59-62.65,67.61-62.65s67.61,26.36,67.61,62.65-28.59,62.65-67.61,62.65-67.61-26.36-67.61-62.65Zm94.49,0c0-18.66-11.98-29.96-26.87-29.96s-26.87,11.3-26.87,29.96,11.98,29.96,26.87,29.96,26.87-11.3,26.87-29.96Z"/>
      <path class="cls-1" d="m391.66,250.5c-21.91-2.57-33.55-14.21-33.55-34.75v-22.08l-13.52,7.02v45.53c0,16.09-12.67,27.22-26.87,27.22-16.78,0-23.79-5.99-37.15-5.99-10.61,0-14.38,3.77-14.04,9.24l-2.22-.86c-.69-2.4-1.71-7.19-1.71-12.32,0-17.63,14.04-24.65,29.1-24.65,1.71,0,4.96.34,6.5.51l.17-.17c0-6.16-3.42-11.64-6.68-18.83-1.88-3.94-3.42-8.56-4.45-13.87h-5.48c-8.05,0-10.44,3.08-11.98,7.7l-1.54-.51c-.51-1.88-1.03-3.94-1.03-7.19,0-12.15,7.53-19,17.97-19.34.34-18.14,8.9-25.33,41.94-38.69l49.3-20.03c15.06,10.96,26.02,18.66,39.37,27.9v.86c-5.31,2.74-7.53,4.11-7.53,16.78v33.21c0,7.87,3.6,10.44,7.53,11.47l6.33-7.02,2.74,2.74-33.21,36.12Zm-49.81-99.45l-5.65-4.11-.51.34v74.8c0,11.47-8.39,17.97-16.78,20.37l.68,1.2c10.61,0,22.25-4.62,22.25-20.37v-72.24Zm16.26,11.3l-13.18-9.24h-.34v33.55l13.52-7.36v-16.95Zm0,20.71l-13.52,7.02v7.19l13.52-7.36v-6.85Z"/>
      <path class="cls-1" d="m459.79,161.83h-35.09v-31.33h110.58v31.33h-35.09v88.5h-40.4v-88.5Z"/>
      <path class="cls-1" d="m621.38,229.45h-45.53l-8.05,20.88h-41.08l52.38-119.82h39.71l52.38,119.82h-41.77l-8.04-20.88Zm-11.13-29.1l-11.64-30.13-11.64,30.13h23.28Z"/>
      <path class="cls-1" d="m671.2,190.42c0-36.8,28.24-62.65,66.76-62.65,23.45,0,41.94,8.56,53.75,23.96l-25.51,22.77c-7.02-8.9-15.4-14.04-26.19-14.04-16.78,0-28.07,11.64-28.07,29.96s11.3,29.96,28.07,29.96c10.79,0,19.17-5.14,26.19-14.04l25.51,22.77c-11.81,15.41-30.3,23.96-53.75,23.96-38.51,0-66.76-25.85-66.76-62.65Z"/>
      <path class="cls-1" d="m828.51,161.83h-35.09v-31.33h110.58v31.33h-35.09v88.5h-40.4v-88.5Z"/>
    </g>
  </g>
</svg>