<?xml version="1.0" encoding="UTF-8"?>
<svg id="Laag_2" data-name="Laag 2" xmlns="http://www.w3.org/2000/svg" viewBox="0 0 947.91 639.05">
  <defs>
    <style>
      .cls-1 {
        fill: #00003a;
      }
    </style>
  </defs>
  <g id="Laag_1-2" data-name="Laag 1">
    <g>
      <path class="cls-1" d="m179.15,3.35v195.33h-45.21v-80.09H45.21v80.09H0V3.35h45.21v77.02h88.74V3.35h45.21Z"/>
      <path class="cls-1" d="m376.71,162.4v36.28h-151.24V3.35h147.61v36.28h-102.69v42.41h90.69v35.16h-90.69v45.21h106.32Z"/>
      <path class="cls-1" d="m412.71,3.35h45.21v158.5h97.94v36.83h-143.15V3.35Z"/>
      <path class="cls-1" d="m581.25,3.35h45.21v158.5h97.94v36.83h-143.15V3.35Z"/>
      <path class="cls-1" d="m734.16,101.01c0-58.04,45.21-101.01,106.87-101.01s106.87,42.69,106.87,101.01-45.48,101.01-106.87,101.01-106.87-42.97-106.87-101.01Zm167.98,0c0-37.11-26.23-62.51-61.11-62.51s-61.11,25.39-61.11,62.51,26.23,62.51,61.11,62.51,61.11-25.39,61.11-62.51Z"/>
    </g>
    <g>
      <path class="cls-1" d="m336.06,227.12h32.4v140h-32.4v-140Z"/>
      <path class="cls-1" d="m430.66,236.32c0,5.2-.8,9-5.2,20l-11.6,28.8h-19.8l8.6-31.6c-6.4-2.8-10.6-8.8-10.6-17.2,0-11.6,8.4-19.2,19.4-19.2s19.2,7.8,19.2,19.2Z"/>
      <path class="cls-1" d="m581.45,367.11l-.2-84-41.2,69.2h-14.6l-41-67.4v82.2h-30.4v-140h26.8l52.4,87,51.6-87h26.6l.4,140h-30.4Z"/>
    </g>
    <g>
      <path class="cls-1" d="m0,603.62l31.26-37.51c13.2,17.72,27.79,26.75,45.16,26.75,22.58,0,34.39-13.55,34.39-40.29v-115.67H25.36v-45.16h141.37v157.7c0,60.09-30.22,89.61-87.53,89.61-32.65,0-61.48-12.5-79.19-35.43Z"/>
      <path class="cls-1" d="m220.22,527.9v-136.16h56.27v134.08c0,46.2,20.15,65.3,54.19,65.3s54.19-19.11,54.19-65.3v-134.08h55.58v136.16c0,71.55-40.99,111.15-110.11,111.15s-110.11-39.6-110.11-111.15Z"/>
      <path class="cls-1" d="m493.93,527.9v-136.16h56.27v134.08c0,46.2,20.15,65.3,54.19,65.3s54.19-19.11,54.19-65.3v-134.08h55.57v136.16c0,71.55-40.99,111.15-110.11,111.15s-110.11-39.6-110.11-111.15Z"/>
      <path class="cls-1" d="m769.72,391.74h56.27v197.29h121.92v45.85h-178.19v-243.14Z"/>
    </g>
  </g>
</svg>