<?xml version="1.0" encoding="UTF-8"?>
<svg id="Laag_2" data-name="Laag 2" xmlns="http://www.w3.org/2000/svg" xmlns:xlink="http://www.w3.org/1999/xlink" viewBox="0 0 830.58 367.43">
  <defs>
    <style>
      .cls-1 {
        fill: #00003a;
      }

      .cls-2 {
        fill: url(#Naamloos_verloop_11);
      }
    </style>
    <linearGradient id="Naamloos_verloop_11" data-name="Naamloos verloop 11" x1="345" y1="300" x2="443.21" y2="92.67" gradientUnits="userSpaceOnUse">
      <stop offset=".48" stop-color="#00003a"/>
      <stop offset=".99" stop-color="#fff"/>
    </linearGradient>
  </defs>
  <g id="Laag_1-2" data-name="Laag 1">
    <path class="cls-1" d="m42.33,213.55H0v-37.78h133.38v37.78h-42.33v106.74h-48.73v-106.74Z"/>
    <path class="cls-1" d="m288.43,175.76v144.53h-48.73v-53.27h-45.01v53.27h-48.73v-144.53h48.73v51.2h45.01v-51.2h48.73Z"/>
    <path class="cls-1" d="m311.97,175.76h48.73v144.53h-48.73v-144.53Z"/>
    <path class="cls-1" d="m526.7,175.76v144.53h-40.05l-54.92-65.66v65.66h-47.49v-144.53h40.05l54.92,65.66v-65.66h47.49Z"/>
    <path class="cls-2" d="m793.23,330.32c-24.8,51.96-174.79,35.94-224.46,30.34-65.19-8.08-129.89-21.04-192.6-40.78-80.69-25.8-157.7-62.84-228.32-109.54-23.54-15.67-46.33-32.48-67.81-50.92-21.64-18.77-42.37-38.78-58.81-62.49C8.09,77.84-6.17,48.23,13.1,28.35,38.46,2.46,109.86,8.96,144.48,10.44c46.35,2.37,92.53,8.28,138.04,17.37,148.62,29.63,338.62,102.87,455.18,200.61,24.9,21.66,71.35,66.02,55.53,101.9h0Zm-17.84-8.56c10.54-23.42-31.57-66.57-47.87-82.08C589.23,113.7,385.61,32.71,199.68,18.94c-27.64-1.96-55.42-2.21-83.11-1.78-23.81.72-86.37,2.11-96.17,26.2-8.38,25.38,35.04,65.13,53.23,80.93,55.63,47.05,119.67,83.6,185.15,115.18,98.86,47.61,205.54,77.05,313.74,93.95,36.02,5.48,72.48,9.64,108.84,10.18,22.5.18,44.65-.53,66.12-5.78,10.34-2.8,22.41-6.74,27.91-16.05h0Z"/>
    <path class="cls-1" d="m101.94,0h48.73v144.53h-48.73V0Z"/>
    <g>
      <path class="cls-1" d="m380.9,0l-28.91,144.53h-25.4l18.79-94.77-61.73,78.25h-11.98l-33.03-80.11-19.2,96.63h-25.6L222.75,0h21.89l38.2,96.21L357.78,0h23.12Z"/>
      <path class="cls-1" d="m492.8,111.08h-72.68l-20.85,33.45h-28.7L464.52,0h26.63l35.93,144.53h-26.63l-7.64-33.45Zm-4.96-21.06l-14.66-63.59-39.85,63.59h54.51Z"/>
      <path class="cls-1" d="m626.8,67.31l51.41,77.22h-29.94l-41.09-60.91-27.46,23.95-7.43,36.96h-26.63L574.57,0h26.63l-14.66,73.09L670.57,0h33.86l-77.22,67.1-.41.21Z"/>
      <path class="cls-1" d="m747.17,22.5l-7.43,37.58h69.99l-4.34,22.09h-70.2l-7.85,39.85h81.76l-4.54,22.5h-108.4L725.08,0h105.5l-4.54,22.5h-78.87Z"/>
    </g>
    <path class="cls-1" d="m645.83,244.1h42.33v61.11c-17.55,11.98-41.71,18.38-62.97,18.38-46.66,0-80.73-31.18-80.73-75.57s34.07-75.57,81.76-75.57c28.49,0,51.41,9.91,66.07,27.87l-31.18,27.46c-9.08-10.53-19.61-15.9-32.42-15.9-21.47,0-35.1,13.83-35.1,36.13s13.63,36.13,34.48,36.13c5.99,0,11.77-1.03,17.76-3.51v-36.54Z"/>
    <path class="cls-1" d="m699.92,308.73l15.69-35.51c13.63,8.05,31.8,13.21,47.69,13.21,13.83,0,18.79-2.89,18.79-7.85,0-18.17-79.9-3.51-79.9-57.4,0-26.84,22.5-48.73,67.31-48.73,19.41,0,39.43,4.13,54.51,12.59l-14.66,35.31c-14.25-7.23-27.67-10.74-40.26-10.74-14.25,0-18.79,4.13-18.79,9.08,0,17.34,79.9,2.89,79.9,56.16,0,26.43-22.5,48.73-67.31,48.73-24.16,0-48.52-5.99-62.97-14.87Z"/>
  </g>
</svg>