<?xml version="1.0" encoding="utf-8"?>
<!-- Generator: Adobe Illustrator 27.3.1, SVG Export Plug-In . SVG Version: 6.00 Build 0)  -->
<svg version="1.1" id="Laag_2_00000037694574774097627400000017759172856536202157_"
	 xmlns="http://www.w3.org/2000/svg" xmlns:xlink="http://www.w3.org/1999/xlink" x="0px" y="0px" viewBox="0 0 1920 1080"
	 style="enable-background:new 0 0 1920 1080;" xml:space="preserve">
<style type="text/css">
	.st0{fill:#FFFFFF;}
</style>
<g id="Laag_2-2_00000037660879845373497040000001706787030717120688_">
	<g>
		<path class="st0" d="M827.2,623.8c5.8,0,10.2-1.1,13.4-3.3c3.2-2.2,4.8-5.5,4.8-9.9s-1.6-7.6-4.8-9.8c-3.2-2.2-7.6-3.3-13.4-3.3
			h-22.7v26.2L827.2,623.8L827.2,623.8z"/>
		<polygon class="st0" points="670.7,636.7 705.5,636.7 688.1,598.7 		"/>
		<path class="st0" d="M986.9,605.7c-2.7-2.6-5.8-4.7-9.4-6.1c-3.6-1.4-7.5-2.2-11.8-2.2s-8.2,0.7-11.8,2.2
			c-3.6,1.4-6.8,3.5-9.4,6.1c-2.7,2.6-4.8,5.7-6.3,9.2s-2.2,7.3-2.2,11.5s0.7,8,2.2,11.5s3.6,6.6,6.3,9.2c2.7,2.6,5.8,4.7,9.4,6.1
			c3.6,1.4,7.5,2.2,11.8,2.2s8.2-0.7,11.8-2.2c3.6-1.4,6.7-3.5,9.4-6.1s4.7-5.7,6.2-9.2s2.2-7.3,2.2-11.5s-0.8-8-2.2-11.5
			C991.6,611.3,989.5,608.3,986.9,605.7z"/>
		<path class="st0" d="M843.9,631.2c-3.4-2.2-8.2-3.2-14.6-3.2h-24.8v27.2h24.8c6.4,0,11.3-1.1,14.6-3.2s5-5.6,5-10.4
			S847.2,633.4,843.9,631.2z"/>
		<path class="st0" d="M0.3,0v1080h1920V0H0.3z M715.9,659.3l-8.5-18.5h-38.6l-8.5,18.5h-5.2l30.6-65.9h4.8l30.6,65.9H715.9
			L715.9,659.3z M847.7,654.7c-4.1,3-10.2,4.6-18.4,4.6h-29.6v-65.9h27.7c7.2,0,12.8,1.4,16.8,4.3c4,2.9,6.1,7.1,6.1,12.5
			c0,3.6-0.8,6.6-2.6,9c-1.7,2.5-4.1,4.3-7.1,5.5c-0.5,0.2-1,0.4-1.5,0.5c1.7,0.3,3.3,0.8,4.8,1.4c3.2,1.3,5.7,3.2,7.4,5.7
			c1.7,2.5,2.5,5.7,2.5,9.4C853.8,647.4,851.7,651.7,847.7,654.7L847.7,654.7z M997.7,639.7c-1.7,4-4.2,7.6-7.3,10.6
			c-3.1,3-6.8,5.3-11,7s-8.8,2.5-13.7,2.5s-9.5-0.8-13.7-2.5s-7.9-4-11-7.1c-3.1-3-5.5-6.6-7.3-10.6c-1.7-4-2.6-8.5-2.6-13.2
			s0.8-9.2,2.6-13.2c1.7-4,4.1-7.6,7.3-10.6s6.8-5.4,11-7.1c4.2-1.7,8.8-2.5,13.7-2.5s9.5,0.8,13.7,2.5s7.9,4,11,7s5.5,6.5,7.3,10.6
			c1.7,4,2.6,8.5,2.6,13.3S999.4,635.7,997.7,639.7L997.7,639.7z M1075.3,518.1h-58v6.1h-4v-6.1h-46v16.1h-4v-16.1h-9v-4h9v-33h-51
			v28h-4v-28h-56v-4h56v-81h4v81h51v-38h4v75h46v-45h4v45h58V518.1z M1136.2,631.3c0,9.4-2.4,16.5-7.1,21.3s-11.3,7.2-19.6,7.2
			s-14.7-2.4-19.5-7.2s-7.1-11.9-7.1-21.3v-37.9h4.8v37.7c0,8.2,1.9,14.3,5.7,18.3s9.2,5.9,16.1,5.9s12.2-2,16-5.9
			c3.8-4,5.7-10,5.7-18.3v-37.7h4.8L1136.2,631.3L1136.2,631.3z M1265.4,597.8h-23.9v61.5h-4.8v-61.5h-23.9v-4.3h52.7L1265.4,597.8
			L1265.4,597.8z"/>
	</g>
</g>
</svg>
