<?xml version="1.0" encoding="UTF-8"?><svg id="Laag_2" xmlns="http://www.w3.org/2000/svg" viewBox="0 0 1920 1080"><defs><style>.cls-1{fill:#fff;}</style></defs><g id="Laag_2-2"><g><polygon class="cls-1" points="1083.55 636.71 1118.39 636.71 1100.94 598.72 1083.55 636.71"/><path class="cls-1" d="M722.13,605.66c-2.66-2.63-5.79-4.67-9.4-6.12-3.61-1.44-7.53-2.16-11.77-2.16s-8.17,.72-11.77,2.16c-3.61,1.44-6.76,3.48-9.45,6.12-2.69,2.63-4.78,5.69-6.27,9.17-1.49,3.48-2.23,7.33-2.23,11.53s.74,7.97,2.23,11.48c1.49,3.51,3.58,6.59,6.27,9.22,2.69,2.63,5.84,4.67,9.45,6.12,3.61,1.44,7.53,2.17,11.77,2.17s8.17-.72,11.77-2.17c3.61-1.44,6.74-3.48,9.4-6.12s4.73-5.71,6.22-9.22c1.49-3.51,2.23-7.34,2.23-11.48s-.74-8.04-2.23-11.53c-1.49-3.48-3.56-6.54-6.22-9.17Z"/><path class="cls-1" d="M0,0V1080H1920V0H0ZM540.46,637.84c1.49,3.51,3.58,6.59,6.27,9.22,2.69,2.63,5.85,4.67,9.49,6.12,3.64,1.44,7.58,2.17,11.82,2.17,3.86,0,7.52-.61,10.97-1.83,3.45-1.22,6.6-3.25,9.45-6.07l3.04,3.11c-2.91,3.08-6.41,5.38-10.49,6.92-4.08,1.54-8.47,2.31-13.15,2.31-4.94,0-9.51-.83-13.72-2.49-4.21-1.66-7.87-4-10.97-7.01-3.1-3.01-5.51-6.54-7.22-10.59-1.71-4.05-2.56-8.48-2.56-13.32s.85-9.27,2.56-13.32c1.71-4.05,4.13-7.58,7.26-10.59,3.13-3.01,6.79-5.35,10.97-7.01,4.18-1.66,8.73-2.49,13.67-2.49,4.68,0,9.07,.75,13.15,2.26,4.08,1.51,7.58,3.8,10.49,6.87l-3.04,3.11c-2.85-2.76-6-4.75-9.45-5.98-3.45-1.22-7.11-1.83-10.97-1.83-4.24,0-8.18,.72-11.82,2.16-3.64,1.44-6.8,3.48-9.49,6.12-2.69,2.63-4.78,5.71-6.27,9.22-1.49,3.51-2.23,7.34-2.23,11.48s.74,7.97,2.23,11.48Zm192.44,1.83c-1.74,4.05-4.16,7.58-7.26,10.59-3.1,3.01-6.76,5.35-10.97,7.01-4.21,1.66-8.78,2.49-13.72,2.49s-9.51-.83-13.72-2.49c-4.21-1.66-7.88-4.01-11.01-7.06-3.13-3.04-5.55-6.59-7.26-10.63-1.71-4.05-2.56-8.45-2.56-13.22s.85-9.17,2.56-13.22c1.71-4.05,4.13-7.59,7.26-10.63,3.13-3.04,6.8-5.39,11.01-7.06,4.21-1.66,8.78-2.49,13.72-2.49s9.51,.83,13.72,2.49c4.21,1.66,7.86,4,10.97,7.01,3.1,3.01,5.52,6.54,7.26,10.59,1.74,4.05,2.61,8.49,2.61,13.32s-.87,9.27-2.61,13.32Zm139.99,19.62h-3.99l-45.29-57.19v57.19h-4.84v-65.87h4.08l45.19,57.18v-57.18h4.84v65.87Zm131.11-61.54h-23.93v61.54h-4.84v-61.54h-23.92v-4.33h52.69v4.33Zm8.99-73.56v-6.1h-46v16.1h-4v-16.1h-9v-4h9v-33h-51v28h-4v-28h-56v-4h56v-81h4v81h51v-38h4v75h46v-45h4v45h58v4h-58v6.1h-4Zm115.76,135.1l-8.51-18.54h-38.55l-8.48,18.54h-5.22l30.57-65.87h4.84l30.57,65.87h-5.22Zm83.5-21.46c1.49,3.51,3.58,6.59,6.27,9.22,2.69,2.63,5.85,4.67,9.49,6.12,3.64,1.44,7.58,2.17,11.82,2.17,3.86,0,7.52-.61,10.97-1.83,3.45-1.22,6.6-3.25,9.45-6.07l3.04,3.11c-2.91,3.08-6.41,5.38-10.49,6.92-4.08,1.54-8.47,2.31-13.15,2.31-4.94,0-9.51-.83-13.72-2.49-4.21-1.66-7.87-4-10.97-7.01-3.1-3.01-5.51-6.54-7.22-10.59-1.71-4.05-2.56-8.48-2.56-13.32s.85-9.27,2.56-13.32c1.71-4.05,4.13-7.58,7.26-10.59,3.13-3.01,6.79-5.35,10.97-7.01,4.18-1.66,8.73-2.49,13.67-2.49,4.68,0,9.07,.75,13.15,2.26,4.08,1.51,7.58,3.8,10.49,6.87l-3.04,3.11c-2.85-2.76-6-4.75-9.45-5.98-3.45-1.22-7.11-1.83-10.97-1.83-4.24,0-8.18,.72-11.82,2.16-3.64,1.44-6.8,3.48-9.49,6.12-2.69,2.63-4.78,5.71-6.27,9.22-1.49,3.51-2.23,7.34-2.23,11.48s.74,7.97,2.23,11.48Zm174.36-40.09h-23.93v61.54h-4.84v-61.54h-23.92v-4.33h52.69v4.33Z"/></g></g></svg>