<?xml version="1.0" encoding="UTF-8"?>
<svg id="Laag_2" data-name="Laag 2" xmlns="http://www.w3.org/2000/svg" viewBox="0 0 1920 1080">
  <defs>
    <style>
      .cls-1 {
        fill: #fff;
      }
    </style>
  </defs>
  <g id="Laag_2-2" data-name="Laag 2">
    <path class="cls-1" d="m0,0v1080h1920V0H0Zm778.65,639.68c0,13.41-6.18,20.07-18.07,20.07-7.23,0-13.89-3.52-17.69-9.51l2.95-3.23c3.62,5.42,8.75,8.37,14.74,8.37,8.85,0,13.22-5.04,13.22-15.7v-42.62h-24.54v-4.38h29.39v46.99Zm142.02-8.66c0,19.02-10.18,28.73-26.73,28.73s-26.63-9.7-26.63-28.73v-38.33h4.85v38.14c0,16.65,7.99,24.45,21.88,24.45s21.78-7.8,21.78-24.45v-38.14h4.85v38.33Zm132.5,0c0,19.02-10.18,28.73-26.73,28.73s-26.63-9.7-26.63-28.73v-38.33h4.85v38.14c0,16.65,7.99,24.45,21.88,24.45s21.78-7.8,21.78-24.45v-38.14h4.85v38.33Zm-36.17-112.45v5.6h-4v-5.57l-46,.38v15.19h-4v-15.16l-8.98.07-.03-4,9.02-.07v-34.9l-51,.45v28.52h-4v-28.49l-54.98.49-.04-4,55.02-.49v-80.51h4v80.48l51-.45v-37.03h4v75.89l46-.38v-45.51h4v45.48l57.98-.48.03,4-58.02.48Zm168.58,140.7h-43.19v-66.59h4.85v62.21h38.33v4.38Z"/>
  </g>
</svg>