<?xml version="1.0" encoding="utf-8"?>
<!-- Generator: Adobe Illustrator 27.6.1, SVG Export Plug-In . SVG Version: 6.00 Build 0)  -->
<svg version="1.1" id="Laag_2_00000004548486477315905960000002654573127624978579_"
	 xmlns="http://www.w3.org/2000/svg" xmlns:xlink="http://www.w3.org/1999/xlink" x="0px" y="0px" viewBox="0 0 442.7 263.7"
	 style="enable-background:new 0 0 442.7 263.7;" xml:space="preserve">
<style type="text/css">
	.st0{fill:#00003A;}
</style>
<g id="Laag_1-2">
	<g>
		<g>
			<g>
				<path class="st0" d="M110.1,83c37.7-0.3,75.3-0.7,113-1"/>
				
					<rect x="110.1" y="80.5" transform="matrix(1 -8.726535e-03 8.726535e-03 1 -0.7137 1.457)" class="st0" width="113" height="4"/>
			</g>
			<g>
				<path class="st0" d="M211.1,121c40.3-0.3,80.7-0.7,121-1"/>
				
					<rect x="211.1" y="118.5" transform="matrix(1 -8.377482e-03 8.377482e-03 1 -0.9998 2.2797)" class="st0" width="121" height="4"/>
			</g>
			<rect x="165.1" class="st0" width="4" height="113"/>
			<rect x="220.1" y="43" class="st0" width="4" height="95.1"/>
			<rect x="270.1" y="73" class="st0" width="4" height="55.1"/>
		</g>
		<g>
			<path class="st0" d="M0,254.1l3-3.2c3.6,5.4,8.8,8.4,14.7,8.4c8.9,0,13.2-5,13.2-15.7V201H6.4v-4.4h29.4v47
				c0,13.4-6.2,20.1-18.1,20.1C10.5,263.7,3.8,260.1,0,254.1L0,254.1z"/>
			<path class="st0" d="M124.4,234.9v-38.3h4.9v38.1c0,16.6,8,24.5,21.9,24.5s21.8-7.8,21.8-24.4v-38.1h4.9v38.3
				c0,19-10.2,28.7-26.7,28.7S124.4,254,124.4,234.9L124.4,234.9z"/>
			<path class="st0" d="M256.9,234.9v-38.3h4.9v38.1c0,16.6,8,24.5,21.9,24.5s21.8-7.8,21.8-24.4v-38.1h4.9v38.3
				c0,19-10.2,28.7-26.7,28.7S256.9,254,256.9,234.9L256.9,234.9z"/>
			<path class="st0" d="M399.5,196.6h4.9v62.2h38.3v4.4h-43.2L399.5,196.6L399.5,196.6z"/>
		</g>
	</g>
</g>
</svg>
