<?xml version="1.0" encoding="UTF-8"?><svg id="Laag_2" xmlns="http://www.w3.org/2000/svg" viewBox="0 0 241.03 30.2"><defs><style>.cls-1{fill:#fff;}</style></defs><g id="Laag_1-2"><g><path class="cls-1" d="M20.81,22.99c.22-.09,.65-.13,.77-.19,.04-.02,.06-.16,.11-.19,.23-.16,.37-.15,.52-.35,.31-.42,.07-.6,.15-1.11,.05-.3,.31-.58,.23-.87-.1-.36-.71-.57-1.26-.5-.29,.04-.58,.26-.94,.39-.35,.13-.74,.2-1.07,.34-1.07,.47-2.11,.96-3.13,.46-.61,.28-1.2,.11-1.95-.07-.83-.2-1.35-.29-1.66-.83-.7-.13-1.89-.72-2.37,.09,.11,.79,.45,1.64,.97,2.05,.22,.17,.98,.58,1.21,.62,.53,.11,1.17-.16,1.61,.29,.25,1.17-.33,2.04-.47,3.02-.04,.32,.03,.78-.02,1.22-.03,.3-.17,.66-.1,.92,.14,.51,.92,.66,1.72,.88,.32,.09,.68,.18,1,.28,1.04,.31,1.77,.02,1.49-1.04,.13-.19,.25-.36,.31-.58,.08-.25,.02-.49,.06-.74,.09-.62,.35-1.3,.57-1.88,.24-.63,.42-1.28,.76-1.77,.73,.03,1-.24,1.48-.43m-2.55-3.43c.18-.27,.44-.3,.42-.71,0-.24-.24-.43-.3-.64-.09-.33,.02-.69-.08-.97-.08-.23-.35-.57-.55-.68-.76-.45-2.34,.44-2.6,.96-.08,.16,0,.49-.11,.8-.05,.13-.18,.19-.22,.26-.51,.95,1.38,1.97,2.14,1.52,.24,.12,.5,.21,.87,.17,.28-.18,.27-.46,.43-.71m2.36-2.22c.02,.37,.24,.94,.53,1.23,.3,.3,1.38,.74,1.88,.63,.78-.18,1.1-1.59,.63-2.49-.19-.37-.54-.52-.74-.79-1.55-.31-2.37,.37-2.31,1.42m3.11-2.04c.62-.21,.68-1.61,.75-2.56,.07-.91,.08-1.55,.11-2.26,.01-.29-.03-.55-.01-.85,.02-.41,.29-1.04,0-1.34-.13-.13-.24-.07-.56-.13-.19-.04-.34-.15-.5-.2-.39-.12-.82-.11-1.17-.2-.55-.14-1.03-.53-1.45-.6-.27-.05-.54,.04-.79,0-.62-.07-1.28-.23-1.93-.44-.62-.2-1.29-.33-1.93-.5-1.25-.34-2.5-.78-3.75-1.07-1.27-.3-2.53-.63-3.8-1.01-1.08-.32-2.85-.71-4.13-.61-.75,.06-.5,1.33-.62,2-.14,.82-.65,1.68-.82,2.45-.07,.3-.03,.65-.1,.98-.14,.66-.22,1.27-.31,1.98-.04,.32-.19,.63-.22,.93-.02,.19,.06,.4,.05,.6-.02,.49-.22,1.02-.24,1.48,0,.3,.11,.62,.08,.91-.04,.43-.51,.93-.23,1.54-.41,.64-.53,1.78-.5,2.6-.36,.4-.26,.93-.35,1.61-.08,.61-.39,1.28-.14,1.84-.3,.49-.25,1.14-.43,1.99-.13,.58-.26,1.14,.18,1.32,.35,.14,.64-.2,1.08-.22,.62-.02,1.3,.63,1.97,.92,.55,.24,1.23,.39,1.88,.63,1.26,.46,2.57,.77,3.93,1.06,.73,.16,1.48,.35,2.15,.24,.35-.13,.11-.51,.17-.81,.05-.24,.26-.46,.3-.7,.07-.43,.08-1.12-.06-1.39-.11-.21-.24-.22-.46-.39-.14-.1-.38-.34-.46-.39-.36-.22-.87-.27-1.2-.5-.4-.27-.73-.83-.96-1.2-.3-.47-.47-.92-.85-1.33,.07-.41-.28-.66-.39-1-.06-.18,0-.42-.05-.6-.06-.2-.22-.38-.29-.58-.3-.82-.63-2-.61-2.81,.01-.53,.29-.89,.37-1.37,.14-.86-.01-1.7,.34-2.4,.26-.53,.88-1.08,1.33-1.52,.45-.44,.96-1.06,1.53-1.35,1.03-.54,3.04-.86,4.39-.69,.74,.09,1.36,.32,2.24,.53,.69,.17,1.74,.33,2.13,.73,.22,.22,.31,.61,.51,.93,.19,.3,.47,.58,.62,.86,.23,.4,.43,.97,.54,1.29,.17,.52,.34,1.05,.79,1.33,.73-.07,1.17,.51,1.91,.26m-1.27-11.7c.24,.39-.12,.71-.09,1.1,.03,.32,.32,.58,.39,.94,.09,.5-.18,.94,.07,1.46,.75,.63,2.11,.1,2.42,1.25,.1,.36-.09,.89-.12,1.41-.01,.23,.06,.46,.06,.73,0,.64-.05,1.5-.11,2.26-.1,1.35-.22,2.42-.95,3.01-.08,.51,.45,1,.57,1.59,.07,.35-.04,.76,.03,1.09,.08,.34,.34,.61,.38,.88,.05,.34-.13,.62-.09,1.1,.04,.38,.32,.7,.39,1,.08,.32,.04,.85,.11,1.27,.11,.64,.42,1.34,.55,2.08,.06,.38,.04,.79,.1,1.15,.11,.65,.43,1.38,.27,1.74-.25,.57-1.46,.3-2.17,.31-1.82,.02-3.96,.7-5.97,.7-.1,.77-.44,1.38-1.09,1.5-.51,.09-1.05-.21-1.74-.4-.62-.17-1.32-.23-1.74-.4-.31-.12-.5-.43-.71-.49-.84-.27-1.39,.42-2.21,.5-.69,.07-1.42-.27-2.15-.18-.4,.05-.77,.34-1.18,.41-.81,.14-1.67-.16-2.5-.08-.94,.08-1.82,.81-2.6,.23,.07-1.12,.16-2.22,0-3.53-.6-.26-.79,.22-1.39,.18-.38-.02-.89-.49-.99-.89-.15-.59,.36-2.23,.46-3.15,.04-.38-.01-.77,.03-1.1,.03-.29,.21-.56,.23-.81,.07-.71-.09-1.22,.35-1.61-.15-.79,.24-1.45,.29-2.28,.07-1.22-.35-2.52-.39-3.74,0-.35,.14-.66,.16-.99,.02-.34-.03-.7-.09-1.03-.08-.42-.3-.81-.35-1.25-.04-.35,.11-.65,.1-.98-.02-.42-.34-.82-.11-1.21,.5-.35,1.34-.07,2.05-.24,.21-.24,.25-.57,.35-.88,.08-.28,.24-.58,.29-.88,.18-.97-.15-2.12,.95-2.4,.02,0,.04,0,.06,0,1.76-.07,3.46,.39,5.25,.88,1.75,.48,3.5,.78,4.86,1.28,.6-.47,1.44-.23,2.16-.37,.42-.08,.73-.4,1.12-.46,.38-.06,.79,.12,1.16,.08,.32-.03,.64-.25,1.01-.33,.4-.09,.85-.07,1.2-.17,.42-.11,.83-.47,1.31-.3"/><path class="cls-1" d="M46.18,2.5c.76-.86,2.01-1.33,3.9-1.38,.4-.01,.9,.05,1.35,.06,.5,.01,1.11-.08,1.4,0,.42,.11,1.01,.81,1.45,1.21,.47,.43,1.09,.81,1.28,1.41,.26,.81-.13,1.68-.07,2.62-.13,.18-.45,.36-.69,.49-.25,.14-.5,.32-.83,.32-.89,0-1.3-1.15-1.58-1.99-.29-.91-.6-2.09-1.41-2.19-.43-.05-1.24,.22-1.54,.44-.55,.39-.81,1.45-.77,2.32,.03,.69,.3,1.37,.55,2.14,.24,.73,.39,1.55,.66,2.01,.2,.35,.68,.63,1.12,1,1.09,.91,2.14,2,3.13,3.08,1.75,1.91,3.81,4.58,2.76,7.86-.17,.53-.48,1.35-.88,1.78-.66,.7-2.39,1.55-3.98,1.81-1.99,.32-3.76,.19-4.59-.94-.7-.96-.53-1.86-1.37-3.17,.18-.79,.19-1.82,.96-2.22,.62-.32,1.96-.25,2.33,.22,.32,.39,.32,1.21,.34,1.8,.05,1.26,.15,2.45,1.67,2.35,.76-.05,1.26-.6,1.6-1.24,.31-.58,.72-1.26,.81-1.9,.13-.88-.14-1.88-.54-2.63-1.02-1.93-3.55-3.87-5.19-5.7-.28-.31-.53-.72-.82-1.03-.32-.33-.7-.52-.93-.83-1.59-2.18-.39-5.4-.13-7.72"/><path class="cls-1" d="M38.88,12.4c1.08,4.39,3.19,7.54,4.22,11.99,.44,.42,1.06,.55,1.08,1.24,.03,1.05-1.5,.97-2.77,1.09-1.33-2.6-2.64-5.15-4.1-7.86-.22-.41-.41-.99-.64-1.04-.6-.14-.95,.84-.99,1.18-.06,.59,.15,1.37,.18,2.12,.09,1.89,.21,4.2,.03,5.9-1.12,.69-2.19-.11-2.8-.67-.53-3.54-.7-7.14-1.19-10.8-.16-1.17-.41-2.4-.43-3.55-.02-.73,.07-1.46,.05-2.2-.05-2.18-.36-4.5-.16-6.68,.73-.52,1.71-.52,2.18-.13,.6,.5,.94,2.4,1.06,3.74,.09,.97,.07,1.71,.47,2.58,.17,.37,.58,1.15,.77,1.15,.19,0,.73-.94,.92-1.36,.66-1.52,.78-3.71,1.51-5,.3-.54,1.15-1.73,2.05-1.58,.42,.07,.76,.84,.74,1.52,0,.29-.19,.49-.29,.82-.75,2.42-.53,5.69-1.9,7.53"/><path class="cls-1" d="M65.03,5.72c-.84,2.47-1.17,5.37-1.8,8.01,.49,.72,.78,1.96,1.76,2.04,.2,.02,.4-.16,.71-.18,.35-.03,.69,.13,.98,.04,.81-.27,.72-1.41,.96-2.28-1.25-1.91-1.66-4.83-1.97-7.87-.18,.02-.36,.03-.54,.05-.07,.03-.12,.09-.11,.19m-1.29,13.14c-1.38,1.81,.41,6.57-3.49,6.09-.81-5.1,.78-9.06,.88-13.66,.01-.64-.12-1.38-.06-2.07,.05-.53,.45-1.22,.57-1.88,.37-2.05,.09-4.4,.46-6.56,.93-.75,3.99-1.23,5.03-.26,1.33,1.25,.76,5.52,1.68,7.34,.12,.24,.31,.43,.48,.63,.16,.18,.42,.39,.48,.57,.13,.39,.06,1.41,.11,2,.11,1.2,.27,2.15,.86,2.85,.18,.21,.41,.38,.48,.57,.15,.43,.14,1.16,.21,1.75,.2,1.51,.3,2.75,.77,3.89,.13,.31,.29,.61,.44,.88,.17,.3,.42,.56,.5,.81,.15,.48,.14,1.42,.13,1.45-.23,.71-2.06,1.02-2.75,.55-1.03-.7-.71-3.03-1.35-4.33-.3-.61-1.01-1.34-1.76-1.37-1.4-.06-2.02,.6-3.65,.75"/><path class="cls-1" d="M69.92,27.34c.39,.02-.03,.96,.08,1.33,.05,.15,.1,.33,.15,.51,.04,.18,.13,.39,.08,.53-.05,.15-.39,.31-.61,.35-.27,.05-.65,.01-1.07-.02-.37-.02-.75-.05-1.06-.07-.69-.06-1.59-.04-2.27-.02-.73,.02-1.49,.07-2.24,.09-3.55,.1-6.97-.06-10.44-.15-.4,0-.8-.05-1.15-.03-.31,.02-.62,.09-.93,.14-.15,.02-.34,.02-.5,.04-.18,.03-.28,.07-.45,.08-.19,0-.4-.05-.65-.09-.2-.03-.44-.04-.67-.06-.47-.04-.95-.11-1.4-.11-.46,0-.85,.13-1.38,.18-1.06,.09-2.06-.12-3.19-.16-.81-.04-1.53,.08-2.35,.15-.28,.02-.56,.05-.75,.03-.26-.02-.56-.15-.62-.27-.03-.08,.05-.2,.12-.33,.06-.11,.11-.32,.11-.32,0,0,25.72-2.13,31.2-1.8"/></g><g><path class="cls-1" d="M151.28,10.55c-.44-.26-.87-.31-1.19-.31-.53-.01-1.21,.11-2.07,.49,.21,.68,.56,1.72,1.07,2.94,.49,1.18,.74,1.6,1.09,2.51,.3,.78,.67,1.94,.9,3.47,1.08,1.35,1.51,2.53,1.7,3.37,.12,.52,.35,1.07,.52,2.03,.06,.31,.25,1.19,.94,1.83,.81,.75,1.97,.89,3.01,.36,.13-1.39,.26-2.78,.39-4.17,.25-.05,.71-.1,1.24,.07,.62,.19,1.04,.57,1.24,.78,.32,.45,.52,.83,.65,1.1,.31,.65,.47,.98,.48,1.06,0,.05,.02,.17,.11,.25,.14,.11,.36,.05,.48,.01,.91-.27,1.36-.41,1.62-.61,.92-.69,.49-2.53,.55-4.93,.03-1.13,.12-2.57,.39-4.24-.26-1.75-.62-3.17-.93-4.18-.75-2.5-1.23-2.9-1.61-3.04-.64-.24-1.31,.14-1.7,.42-.22,1.32-.39,3.01-.32,4.97,.08,2.43,.5,4.46,.92,5.93-.51-.33-1.18-.69-2-.97-.62-.21-1.19-.32-1.67-.38-.54,.57-1.08,1.14-1.61,1.72-.11-.64-.27-1.53-.51-2.6-.29-1.28-.43-1.91-.7-2.64-.38-1.02-.45-.81-1.42-2.79-.73-1.5-.91-2.06-1.55-2.44Z"/><path class="cls-1" d="M179.91,10.65c0-.09-.02-.16,.02-.24,.05-.09,.15-.14,.24-.18,1.24-.53,2.52-.97,3.82-1.33,.52-.15,1.09-.28,1.61-.1,.24,.08,.45,.22,.69,.29,.23,.07,.48,.07,.72,.06,1.45-.01,2.91-.03,4.34-.3,.31-.06,.63-.13,.95-.15,.3-.02,.61,0,.91,.03,1.24,.1,2.48,.2,3.71,.3,.23,.02,.47,.04,.66,.18,.19,.13,.29,.36,.32,.59,.15,.95-.67,1.75-1.45,2.3-1.14,.79-2.42,1.5-3.08,2.72-.34,.64-.49,1.37-.85,2-.23,.4-.54,.75-.85,1.1l-1.17,1.31c-.64,.72-1.3,1.45-2.13,1.95,.2,.17,.49,.17,.75,.15,1-.05,2.02-.11,2.94-.51,.3-.13,.58-.29,.9-.37,.7-.17,1.42,.1,2.13,.15,.6,.04,1.19-.08,1.78-.12,.6-.04,1.23,0,1.73,.32s.83,.98,.6,1.53c-.25,.61-1,.81-1.65,.93-1.85,.35-3.7,.7-5.55,1.04-.73,.14-1.5,.27-2.21,.03-.28-.1-.54-.25-.83-.32-.76-.18-1.51,.26-2.27,.41-.4,.08-.81,.08-1.21,.09-1.03,0-2.23-.07-2.79-.93-.1-.15-.17-.32-.17-.49,0-.18,.09-.35,.18-.51,.43-.81,.86-1.62,1.29-2.43,.55-1.03,1.11-2.08,1.97-2.87,.64-.59,1.42-1,2.13-1.5,1.35-.95,2.47-2.24,3.23-3.71-1.03-.07-2.01,.39-3.01,.65-1.79,.47-3.69,.33-5.54,.14-.37-.04-1.08,0-1.81-.4-.75-.41-1.25-1.07-1.15-1.38,.02-.08,.11-.21,.11-.43Z"/><path class="cls-1" d="M123.7,22.9c-.59-.56-1.57-.42-2.24,.04-.66,.46-1.11,1.17-1.62,1.79-.52,.62-1.19,1.21-1.99,1.25-.78,.04-1.52-.44-1.98-1.07-.46-.63-.7-1.39-.94-2.14-.19-.62-.39-1.25-.58-1.87-.11-.36-.22-.79,0-1.1,.2-.28,.59-.35,.93-.29,.34,.06,.65,.22,.97,.32,.83,.25,1.71,.1,2.56-.06,.9-.17,1.8-.33,2.69-.5,.81-.15,1.8-.48,1.89-1.3,.04-.38-.14-.74-.33-1.07-.64-1.07-1.5-1.98-2.36-2.88-.32-.33-.64-.67-1.03-.93-.59-.39-1.29-.56-1.99-.64-1.33-.16-2.7-.04-3.97,.37-.93,.29-1.86,.76-2.41,1.57-.54,.77-.63,1.61-.7,2.28-.1,.95,.02,1.73,.13,2.24,.05,.86,.11,1.72,.18,2.58,.08,1.05,.19,2.16,.81,3.02,.42,.57,1.03,.97,1.49,1.52,.44,.52,.71,1.16,1.06,1.74,.35,.58,.83,1.13,1.48,1.34,.53,.16,1.1,.07,1.65-.02,.47-.08,.97-.17,1.37-.44,.16-.11,.31-.25,.5-.3,.15-.04,.31-.01,.47,0,.33,.04,.66,.03,.99-.02,.32-.05,.64-.14,.87-.37,.15-.15,.24-.33,.35-.51,.47-.77,1.21-1.33,1.72-2.08s.7-1.86,.04-2.48Zm-9.08-7c.14-.22,.51-.35,1.23-.63,.21-.08,.38-.14,.49-.18,.4-.06,.81-.11,1.21-.07s.81,.2,1.08,.5c.2,.22,.31,.51,.42,.79,.12,.31,.24,.62,.36,.93-.57-.08-1.1,.29-1.68,.35-.37,.04-.75-.07-1.12-.07-.63,0-1.31,.27-1.87-.01-.08-.04-.16-.09-.21-.17-.04-.07-.06-.15-.07-.23-.06-.42-.07-.87,.16-1.23Z"/><path class="cls-1" d="M212.61,18.51c-.59-.56-1.57-.42-2.24,.04-.66,.46-1.11,1.17-1.62,1.79-.52,.62-1.19,1.21-1.99,1.25-.78,.04-1.52-.44-1.98-1.07-.46-.63-.7-1.39-.94-2.14-.19-.62-.39-1.25-.58-1.87-.11-.36-.22-.79,0-1.1,.2-.28,.59-.35,.93-.29,.34,.06,.65,.22,.97,.32,.83,.25,1.71,.1,2.56-.06,.9-.17,1.8-.33,2.69-.5,.81-.15,1.8-.48,1.89-1.3,.04-.38-.14-.74-.33-1.07-.64-1.07-1.5-1.98-2.36-2.88-.32-.33-.64-.67-1.03-.93-.59-.39-1.29-.56-1.99-.64-1.33-.16-2.7-.04-3.97,.37-.93,.29-1.86,.76-2.41,1.57-.54,.77-.63,1.61-.7,2.28-.1,.95,.02,1.73,.13,2.24,.05,.86,.11,1.72,.18,2.58,.08,1.05,.19,2.16,.81,3.02,.42,.57,1.03,.97,1.49,1.52,.44,.52,.71,1.16,1.06,1.74,.35,.58,.83,1.13,1.48,1.34,.53,.16,1.1,.07,1.65-.02,.47-.08,.97-.17,1.37-.44,.16-.11,.31-.25,.5-.3,.15-.04,.31-.01,.47,0,.33,.04,.66,.03,.99-.02,.32-.05,.64-.14,.87-.37,.15-.15,.24-.33,.35-.51,.47-.77,1.21-1.33,1.72-2.08s.7-1.86,.04-2.48Zm-9.08-7c.14-.22,.51-.35,1.23-.63,.21-.08,.38-.14,.49-.18,.4-.06,.81-.11,1.21-.07s.81,.2,1.08,.5c.2,.22,.31,.51,.42,.79,.12,.31,.24,.62,.36,.93-.57-.08-1.1,.29-1.68,.35-.37,.04-.75-.07-1.12-.07-.63,0-1.31,.27-1.87-.01-.08-.04-.16-.09-.21-.17-.04-.07-.06-.15-.07-.23-.06-.42-.07-.87,.16-1.23Z"/><path class="cls-1" d="M179.94,20.35c-.59-.56-1.57-.42-2.24,.04-.66,.46-1.11,1.17-1.62,1.79-.52,.62-1.19,1.21-1.99,1.25-.78,.04-1.52-.44-1.98-1.07-.46-.63-.7-1.39-.94-2.14-.19-.62-.39-1.25-.58-1.87-.11-.36-.22-.79,0-1.1,.2-.28,.59-.35,.93-.29,.34,.06,.65,.22,.97,.32,.83,.25,1.71,.1,2.56-.06,.9-.17,1.8-.33,2.69-.5,.81-.15,1.8-.48,1.89-1.3,.04-.38-.14-.74-.33-1.07-.64-1.07-1.5-1.98-2.36-2.88-.32-.33-.64-.67-1.03-.93-.59-.39-1.29-.56-1.99-.64-1.33-.16-2.7-.04-3.97,.37-.93,.29-1.86,.76-2.41,1.57-.54,.77-.63,1.61-.7,2.28-.1,.95,.02,1.73,.13,2.24,.05,.86,.11,1.72,.18,2.58,.08,1.05,.19,2.16,.81,3.02,.42,.57,1.03,.97,1.49,1.52,.44,.52,.71,1.16,1.06,1.74,.35,.58,.83,1.13,1.48,1.34,.53,.16,1.1,.07,1.65-.02,.47-.08,.97-.17,1.37-.44,.16-.11,.31-.25,.5-.3,.15-.04,.31-.01,.47,0,.33,.04,.66,.03,.99-.02,.32-.05,.64-.14,.87-.37,.15-.15,.24-.33,.35-.51,.47-.77,1.21-1.33,1.72-2.08s.7-1.86,.04-2.48Zm-9.08-7c.14-.22,.51-.35,1.23-.63,.21-.08,.38-.14,.49-.18,.4-.06,.81-.11,1.21-.07s.81,.2,1.08,.5c.2,.22,.31,.51,.42,.79,.12,.31,.24,.62,.36,.93-.57-.08-1.1,.29-1.68,.35-.37,.04-.75-.07-1.12-.07-.63,0-1.31,.27-1.87-.01-.08-.04-.16-.09-.21-.17-.04-.07-.06-.15-.07-.23-.06-.42-.07-.87,.16-1.23Z"/><path class="cls-1" d="M221.15,8.43c-.09,.52-.14,1.05-.16,1.58,0,.3,0,.63,.2,.86,.2,.23,.52,.3,.82,.33,1.16,.12,2.35-.1,3.39-.62,.51-.26,1.14-.58,1.62-.27,.13,.09,.25,.22,.4,.25,.24,.03,.42-.19,.64-.28,.3-.12,.66,.05,.86,.31s.27,.59,.35,.9c.15,.64,.29,1.29,.44,1.93,.29,1.27,.57,2.56,.49,3.86-.07,1.02-.29,2.23,.47,2.91,.22,.19,.49,.31,.71,.5,.43,.38,.59,.98,.67,1.55s.14,1.17,.45,1.65,.97,.81,1.47,.53c.4-.22,.55-.71,.65-1.15,.25-1.1,.42-2.25,.15-3.34-.14-.59-.41-1.14-.6-1.72-.29-.86-.41-1.77-.52-2.68-.16-1.28-.33-2.56-.49-3.85-.03-.22-.06-.44,0-.65,.08-.27,.31-.47,.53-.64,1.07-.8,2.42-1.16,3.75-1.29,.91-.09,1.87-.09,2.66-.55s1.25-1.63,.65-2.31c-.51-.58-1.41-.5-2.16-.38-1.74,.28-3.49,.57-5.23,.85-.28,.05-.57,.09-.83,0-.22-.07-.4-.21-.55-.38-1.31-1.4-.65-3.84-1.81-5.36-.44-.58-1.22-.98-1.9-.73-.69,.25-1.04,1.05-1.01,1.78s.34,1.42,.59,2.1,.47,1.43,.29,2.14c.32,.14,.58,.38,.74,.69-.17,.38-.64,.48-1.05,.54-.95,.13-1.9,.27-2.85,.4-.25,.04-.52,.07-.76,0-.19-.05-.37-.17-.57-.21-.76-.15-1.43,.84-2.17,.62"/><path class="cls-1" d="M94.93,10.03c-.86-.02-1.73,.09-2.56,.32-.23,.06-.46,.14-.64,.3-.25,.21-.35,.55-.39,.87-.11,1.04,.44,2.02,.76,3.02,.4,1.27,.45,2.69,1.2,3.8,.39,.57,.94,1.02,1.38,1.55,.52,.62,.89,1.36,1.25,2.09,.96,1.95,1.92,3.89,2.88,5.84,.24,.49,.49,.99,.88,1.37,.78,.78,2.02,.96,3.11,.74,.47-.1,.94-.27,1.32-.57,1.18-.93,1.17-2.69,1.32-4.19,.24-2.32,1.13-4.51,1.79-6.75,.85-2.84,1.34-5.78,1.47-8.73,.02-.46-.02-1.02-.42-1.25-.21-.12-.46-.12-.69-.11-.92,.02-1.84,.05-2.77,.07-.46,.01-.96,.04-1.31,.32-.31,.25-.45,.64-.58,1.01-.54,1.53-1.08,3.13-.93,4.74,.08,.84,.35,1.66,.45,2.5,.16,1.33-.11,2.71-.76,3.88-.07,.13-.15,.26-.27,.35-.47,.33-1.05-.24-1.32-.75-1.55-2.92-2.1-6.24-3.16-9.37-.18-.53-.7-1.18-1.16-.86"/><path class="cls-1" d="M128.59,6.72c-.62,.19-1.3-.14-1.94-.02-.83,.15-1.37,1.04-1.43,1.88s.23,1.67,.48,2.48c.42,1.37,.73,2.77,.92,4.19,.56,4.25,.06,8.61,.88,12.82,.05,.25,.11,.51,.28,.69,.44,.45,1.17,.11,1.75-.1,.84-.32,1.8-.33,2.65-.04,.55-.71,.02-1.71-.25-2.57-.15-.47-.21-.95-.28-1.44-.19-1.43-.39-2.87-.58-4.3-.21-1.54-.42-3.08-.53-4.64-.11-1.45-.13-2.91-.07-4.37,.03-.86,.1-1.72-.05-2.56s-.54-1.68-1.24-2.17"/><path class="cls-1" d="M216.58,2.91c-.62,.19-1.3-.14-1.94-.02-.83,.15-1.37,1.04-1.43,1.88s.23,1.67,.48,2.48c.42,1.37,.73,2.77,.92,4.19,.56,4.25,.06,8.61,.88,12.82,.05,.25,.11,.51,.28,.69,.44,.45,1.17,.11,1.75-.1,.84-.32,1.8-.33,2.65-.04,.55-.71,.02-1.71-.25-2.57-.15-.47-.21-.95-.28-1.44-.19-1.43-.39-2.87-.58-4.3-.21-1.54-.42-3.08-.53-4.64-.11-1.45-.13-2.91-.07-4.37,.03-.86,.1-1.72-.05-2.56s-.54-1.68-1.24-2.17"/><g><path class="cls-1" d="M146.24,4.79c0,.15,0,.3,0,.45,0,0,0,.02,.01,.03,0-.16,0-.32,0-.48Z"/><path class="cls-1" d="M147.78,24.48c-.71-2.64-.77-5.41-.77-8.15,0-1.39,0-2.79-.35-4.13-.13-.5-.32-1-.41-1.51-.11-.58-.1-1.18-.09-1.77,.02-1.23,.04-2.45,.07-3.68-.26-.55,.33-1.34-.1-1.78-.12-.12-.3-.17-.46-.21-1.15-.26-2.39-.11-3.44,.42-.6,.3-1.17,.78-1.31,1.44-.19,.94,.56,1.79,.75,2.73,.2,.96-.21,1.95-.11,2.92,.08,.76,.44,1.45,.71,2.16,.53,1.4,.66,2.92,.8,4.42-.55-1.37-1.28-2.66-2.17-3.84l-.6-.55c-2.44-.23-4.92,1.54-5.49,3.93-.16,.66-.18,1.34-.21,2.02-.03,.74-.05,1.48-.08,2.22-.01,.35-.03,.71,.07,1.05,.12,.44,.4,.82,.59,1.23,.35,.77,.39,1.64,.57,2.46,.18,.82,.6,1.69,1.38,2.01,.89,.37,1.93-.09,2.85,.17,.31,.09,.59,.25,.91,.31,.5,.1,1.02-.08,1.5-.26,.75-.27,1.54-.58,2.01-1.22-.19,.89,.47,1.86,1.36,2.07s1.88-.31,2.26-1.13c.48-1.03,.08-2.23-.22-3.33Zm-5.6-2.07c-.24,.11-.53,.05-.77,.17-.19,.1-.31,.3-.43,.48-.36,.53-.96,1.03-1.58,.88-.66-.15-.96-.91-1.06-1.58-.12-.86-.07-1.75,.15-2.6,.17-.64,.58-1.35,1.24-1.34,.39,0,.72,.27,1.02,.52,.4,.34,.82,.7,1.05,1.17l-.05-.32c.09,.48,.46,.86,.67,1.3,.22,.44,.21,1.09-.24,1.3Z"/></g></g></g></svg>