<?xml version="1.0" encoding="UTF-8"?><svg id="Laag_2" xmlns="http://www.w3.org/2000/svg" viewBox="0 0 263.43 49.86"><defs><style>.cls-1{fill:#fff;}</style></defs><g id="Laag_2-2"><g><path class="cls-1" d="M62.63,25.58c-1.1-.25-1.68,.29-1.63,1.12h0c.01,.29,.17,.74,.38,.97,.21,.24,.98,.59,1.33,.5,.55-.14,.78-1.26,.45-1.97-.13-.29-.38-.41-.52-.62Z"/><path class="cls-1" d="M58.41,28.89c.17,.09,.35,.17,.62,.13,.2-.14,.19-.36,.3-.56,.13-.21,.31-.24,.3-.56,0-.19-.17-.34-.21-.51-.06-.26,.01-.55-.06-.77-.06-.18-.25-.45-.39-.54-.54-.36-1.66,.35-1.84,.76-.06,.13,0,.39-.08,.63-.04,.1-.13,.15-.16,.21-.36,.75,.98,1.56,1.51,1.2Z"/><path class="cls-1" d="M167.28,24.68c.04,.06,.09,.1,.15,.13,.4,.22,.88,0,1.32,0,.26,0,.53,.09,.79,.06,.41-.05,.79-.34,1.19-.28-.08-.25-.17-.49-.25-.74-.08-.22-.16-.45-.3-.62-.19-.24-.48-.36-.76-.4s-.57,0-.86,.06c-.08,.03-.2,.08-.35,.14-.51,.22-.77,.32-.87,.5v-.02c-.16,.28-.16,.64-.11,.97,0,.06,.02,.13,.05,.18Z"/><path class="cls-1" d="M146.74,28.63l.04,.25c-.16-.37-.46-.66-.74-.93-.21-.2-.45-.41-.72-.41-.47,0-.76,.55-.88,1.06-.16,.67-.19,1.38-.11,2.06,.07,.53,.28,1.13,.75,1.25,.44,.12,.86-.28,1.12-.7,.08-.14,.17-.3,.3-.38,.17-.09,.38-.05,.54-.13v-.02c.32-.17,.33-.68,.17-1.03-.15-.35-.41-.65-.47-1.03Z"/><path class="cls-1" d="M127.48,26.7c.04,.06,.09,.1,.15,.13,.4,.22,.88,0,1.32,0,.26,0,.53,.09,.79,.06,.41-.05,.79-.34,1.19-.28-.08-.25-.17-.49-.25-.74-.08-.22-.16-.45-.3-.62-.19-.24-.48-.36-.76-.4-.28-.03-.57,0-.86,.06-.08,.03-.2,.08-.35,.14-.51,.22-.77,.32-.87,.5v-.02c-.16,.28-.16,.64-.11,.97,0,.06,.02,.13,.05,.18Z"/><path class="cls-1" d="M0,0V49.86H263.43V0H0ZM79.09,14.95v.02c.55-.68,1.43-1.05,2.77-1.09,.28,0,.64,.04,.96,.05,.35,0,.79-.06,.99,0,.3,.09,.71,.64,1.03,.96,.33,.34,.77,.64,.91,1.11,.18,.64-.09,1.33-.05,2.07-.09,.14-.32,.28-.49,.39-.18,.11-.35,.25-.59,.25-.63,0-.92-.91-1.12-1.57-.21-.72-.42-1.65-1-1.73-.3-.04-.88,.17-1.09,.35-.39,.31-.57,1.15-.54,1.83,.02,.55,.21,1.08,.39,1.69,.17,.58,.28,1.23,.47,1.59,.14,.28,.48,.5,.79,.79,.77,.72,1.51,1.58,2.22,2.44,1.24,1.51,2.7,3.62,1.95,6.21-.12,.42-.34,1.07-.62,1.41-.47,.55-1.69,1.23-2.82,1.43-1.41,.25-2.66,.15-3.25-.74-.5-.76-.38-1.47-.97-2.51,.13-.62,.13-1.44,.68-1.76,.44-.25,1.39-.2,1.65,.17,.23,.31,.23,.96,.24,1.42,.04,1,.11,1.94,1.18,1.86,.54-.04,.89-.47,1.13-.98,.22-.46,.51-1,.57-1.5,.09-.7-.1-1.49-.38-2.08-.72-1.53-2.51-3.06-3.67-4.51-.2-.25-.38-.57-.58-.81-.23-.26-.5-.41-.66-.66-1.13-1.72-.28-4.27-.09-6.1Zm-13.95,19.91c-.18,.45-1.03,.24-1.54,.25-1.29,.02-2.8,.55-4.23,.55-.07,.61-.31,1.09-.77,1.19-.36,.07-.74-.17-1.23-.32-.44-.13-.93-.18-1.23-.32-.22-.09-.35-.34-.5-.39-.59-.21-.98,.33-1.56,.4-.49,.06-1.01-.21-1.52-.14-.28,.04-.54,.27-.84,.32-.57,.11-1.18-.13-1.77-.06-.67,.06-1.29,.64-1.84,.18,.05-.89,.11-1.76,0-2.79-.42-.21-.56,.17-.98,.14-.27-.02-.63-.39-.7-.7-.11-.47,.25-1.76,.33-2.49,.03-.3,0-.61,.02-.87,.02-.23,.15-.44,.16-.64,.05-.56-.06-.96,.25-1.27-.11-.62,.17-1.15,.21-1.8,.05-.96-.25-1.99-.28-2.96,0-.28,.1-.52,.11-.78,.01-.27-.02-.55-.06-.81-.06-.33-.21-.64-.25-.99-.03-.28,.08-.51,.07-.77-.01-.33-.24-.65-.08-.96,.35-.28,.95-.06,1.45-.19,.15-.19,.18-.45,.25-.7,.06-.22,.17-.46,.21-.7,.13-.77-.11-1.68,.67-1.9h.04c1.25-.06,2.45,.31,3.72,.7,1.24,.38,2.48,.62,3.44,1.01,.42-.37,1.02-.18,1.53-.29,.3-.06,.52-.32,.79-.36,.27-.05,.56,.09,.82,.06,.23-.02,.45-.2,.71-.26,.28-.07,.6-.06,.85-.13,.3-.09,.59-.37,.93-.24v.02c.18,.31-.08,.56-.06,.87,.02,.25,.23,.46,.28,.74,.06,.4-.13,.74,.05,1.15,.53,.5,1.49,.08,1.71,.99,.07,.28-.06,.7-.08,1.11,0,.18,.04,.36,.04,.58,0,.51-.04,1.19-.08,1.79-.07,1.07-.16,1.91-.67,2.38-.06,.4,.32,.79,.4,1.26,.05,.28-.03,.6,.02,.86,.06,.27,.24,.48,.27,.7,.04,.27-.09,.49-.06,.87,.03,.3,.23,.55,.28,.79,.06,.25,.03,.67,.08,1,.08,.51,.3,1.06,.39,1.64,.04,.3,.03,.62,.07,.91,.08,.51,.3,1.09,.19,1.38Zm7.23-7.78c-.42-.11-.67,.66-.7,.93-.04,.47,.11,1.08,.13,1.68,.06,1.49,.15,3.32,.02,4.66-.79,.55-1.55-.09-1.98-.53-.38-2.8-.5-5.65-.84-8.54-.11-.93-.29-1.9-.3-2.81-.01-.58,.05-1.15,.04-1.74-.04-1.72-.25-3.56-.11-5.28,.52-.41,1.21-.41,1.54-.1,.42,.4,.67,1.9,.75,2.96,.06,.77,.05,1.35,.33,2.04,.12,.29,.41,.91,.54,.91s.52-.74,.65-1.08c.47-1.2,.55-2.93,1.07-3.95,.21-.43,.81-1.37,1.45-1.25,.3,.06,.54,.66,.52,1.2,0,.23-.13,.39-.21,.65-.53,1.91-.38,4.5-1.34,5.95h0c.76,3.48,2.26,5.97,2.99,9.49,.31,.33,.75,.43,.76,.98,.02,.83-1.06,.77-1.96,.86-.94-2.06-1.87-4.07-2.9-6.21-.16-.32-.29-.78-.45-.82Zm23.32,9.68c-.19,.04-.46,0-.76-.02-.26-.02-.53-.04-.75-.06-.49-.05-1.13-.03-1.61-.02-.52,.02-1.05,.06-1.59,.07-2.51,.08-4.93-.05-7.39-.12-.28,0-.57-.04-.81-.02-.22,.02-.44,.07-.66,.11-.11,.02-.24,.02-.35,.03-.13,.02-.2,.06-.32,.06-.13,0-.28-.04-.46-.07-.14-.02-.31-.03-.47-.05-.33-.03-.67-.09-.99-.09s-.6,.1-.98,.14c-.75,.07-1.46-.09-2.26-.13-.57-.03-1.08,.06-1.66,.12-.2,.02-.4,.04-.53,.02-.18-.02-.4-.12-.44-.21-.02-.06,.04-.16,.08-.26,.04-.09,.08-.25,.08-.25,0,0,18.2-1.68,22.08-1.42h0c.28,.02-.02,.76,.06,1.05,.04,.12,.07,.26,.11,.4,.03,.14,.09,.31,.06,.42-.04,.12-.28,.25-.43,.28Zm2.58-5.38c-.16,.56-1.46,.81-1.95,.43-.73-.55-.5-2.4-.96-3.42-.21-.48-.71-1.06-1.25-1.08-.99-.05-1.43,.47-2.58,.59h-.01c-.98,1.43,.29,5.19-2.47,4.82-.57-4.03,.55-7.16,.62-10.8,0-.51-.08-1.09-.04-1.64,.04-.42,.32-.96,.4-1.49,.26-1.62,.06-3.48,.33-5.19,.66-.59,2.82-.97,3.56-.21,.94,.99,.54,4.36,1.19,5.8,.08,.19,.22,.34,.34,.5,.11,.14,.3,.31,.34,.45,.09,.31,.04,1.11,.08,1.58,.08,.95,.19,1.7,.61,2.25,.13,.17,.29,.3,.34,.45,.11,.34,.1,.92,.15,1.38,.14,1.19,.21,2.17,.54,3.08,.09,.25,.21,.48,.31,.7,.12,.24,.3,.44,.35,.64,.11,.38,.1,1.12,.09,1.15Zm24.04-3.83c-.47,1.77-1.1,3.5-1.27,5.34-.11,1.19-.1,2.58-.93,3.31-.27,.24-.6,.37-.93,.45-.77,.17-1.65,.03-2.2-.59-.28-.3-.45-.7-.62-1.08-.68-1.54-1.36-3.08-2.04-4.62-.25-.58-.52-1.16-.88-1.65-.31-.42-.7-.77-.98-1.23-.53-.88-.57-2-.85-3-.23-.79-.62-1.57-.54-2.39,.03-.25,.1-.52,.28-.69,.13-.13,.29-.19,.45-.24,.59-.18,1.2-.27,1.81-.25l.6,.15c.33-.25,.69,.26,.82,.68,.75,2.47,1.14,5.1,2.24,7.41,.19,.4,.6,.85,.93,.59,.08-.07,.14-.17,.19-.28,.46-.93,.65-2.02,.54-3.07-.07-.66-.26-1.31-.32-1.98-.11-1.27,.28-2.54,.66-3.75,.09-.29,.19-.6,.41-.8,.25-.22,.6-.25,.93-.25,.66-.02,1.31-.04,1.96-.06,.16,0,.34,0,.49,.09,.28,.18,.31,.62,.3,.99-.09,2.33-.44,4.66-1.04,6.9Zm11.64,5.49c-.36,.59-.88,1.04-1.22,1.64-.08,.14-.14,.28-.25,.4-.16,.18-.39,.25-.62,.29-.23,.04-.47,.05-.7,.02-.11,0-.23-.03-.33,0-.13,.04-.24,.15-.35,.24-.28,.21-.64,.28-.97,.35-.39,.07-.79,.14-1.17,.02-.46-.17-.8-.6-1.05-1.06-.25-.46-.44-.96-.75-1.38-.33-.43-.76-.75-1.05-1.2-.44-.68-.52-1.56-.57-2.39-.05-.68-.09-1.36-.13-2.04-.08-.4-.16-1.02-.09-1.77,.05-.53,.11-1.19,.5-1.8,.39-.64,1.05-1.01,1.71-1.24,.9-.32,1.87-.42,2.81-.29,.5,.06,.99,.2,1.41,.51,.28,.21,.5,.47,.73,.74,.61,.71,1.22,1.43,1.67,2.28,.13,.26,.26,.55,.23,.85-.06,.65-.76,.91-1.34,1.03-.63,.13-1.27,.26-1.9,.4-.6,.13-1.22,.25-1.81,.05-.23-.08-.45-.21-.69-.25s-.52,0-.66,.23c-.16,.25-.08,.59,0,.87,.13,.49,.28,.99,.41,1.48,.17,.59,.34,1.19,.67,1.69s.85,.88,1.4,.85c.57-.03,1.04-.5,1.41-.99,.36-.49,.68-1.05,1.15-1.42,.47-.36,1.17-.47,1.59-.03h0c.47,.48,.33,1.36-.03,1.95Zm6.02,2.57c-.6-.23-1.28-.22-1.88,.03-.41,.17-.93,.43-1.24,.08-.12-.14-.16-.35-.2-.55-.58-3.33-.23-6.78-.62-10.14-.13-1.12-.35-2.23-.65-3.31-.18-.64-.38-1.3-.34-1.96,.04-.66,.42-1.37,1.01-1.49,.45-.09,.93,.17,1.37,.02l.42-.12c.5,.39,.77,1.05,.88,1.72,.11,.66,.06,1.34,.04,2.02-.04,1.15-.03,2.31,.05,3.46,.08,1.23,.23,2.45,.38,3.67,.13,1.13,.28,2.27,.41,3.4,.05,.39,.09,.77,.2,1.14,.19,.68,.57,1.47,.18,2.03Zm11.21-.64c-.27,.65-.97,1.06-1.6,.89-.63-.17-1.1-.93-.96-1.64-.33,.51-.89,.75-1.42,.96-.34,.14-.71,.28-1.06,.21-.23-.05-.42-.17-.64-.25-.65-.21-1.39,.16-2.02-.13-.55-.25-.85-.94-.98-1.59-.13-.65-.16-1.34-.4-1.95-.13-.32-.33-.62-.42-.97-.07-.27-.06-.55-.05-.83,.02-.59,.04-1.17,.06-1.76,.02-.54,.04-1.08,.15-1.6,.4-1.89,2.16-3.29,3.89-3.11l.42,.43c.63,.93,1.15,1.95,1.54,3.04-.1-1.19-.19-2.39-.57-3.49-.19-.56-.45-1.11-.5-1.71-.07-.77,.22-1.55,.08-2.31-.13-.74-.67-1.42-.53-2.16,.1-.52,.5-.9,.93-1.14,.74-.42,1.62-.54,2.43-.33,.11,.03,.24,.07,.33,.17,.3,.35-.11,.97,.07,1.41-.02,.97-.04,1.94-.05,2.91,0,.47-.01,.94,.06,1.4,.06,.4,.2,.8,.29,1.19,.25,1.06,.25,2.17,.25,3.27,0,2.17,.04,4.36,.54,6.44h.01c.21,.87,.5,1.82,.16,2.63Zm-1.25-18.2v.38s0-.02,0-.02v-.36h0Zm12.18,16.56c-.18,.16-.5,.27-1.15,.48-.08,.03-.24,.08-.34,0-.06-.06-.08-.16-.08-.2,0-.06-.12-.32-.34-.84-.09-.21-.23-.51-.46-.87-.14-.17-.44-.47-.88-.62-.38-.13-.7-.09-.88-.06-.09,1.1-.18,2.2-.28,3.3-.74,.42-1.56,.31-2.13-.28-.49-.51-.62-1.2-.67-1.45-.12-.76-.28-1.19-.37-1.61-.13-.66-.44-1.6-1.2-2.66-.16-1.21-.42-2.13-.64-2.74-.25-.72-.42-1.05-.77-1.98-.36-.96-.61-1.79-.76-2.32,.61-.3,1.09-.4,1.47-.39,.23,0,.53,.04,.84,.25h.01c.45,.31,.58,.75,1.1,1.94,.69,1.57,.74,1.4,1.01,2.21,.19,.58,.29,1.08,.5,2.09,.17,.85,.28,1.55,.36,2.06,.38-.46,.76-.91,1.14-1.36,.34,.05,.74,.13,1.18,.3,.58,.22,1.05,.51,1.42,.77-.3-1.16-.59-2.77-.65-4.69-.05-1.55,.07-2.89,.23-3.93,.28-.22,.75-.52,1.2-.33,.27,.11,.61,.43,1.14,2.4,.22,.8,.47,1.92,.66,3.3-.19,1.32-.25,2.46-.28,3.35-.04,1.9,.26,3.35-.39,3.9Zm11.64-2.3c-.36,.59-.88,1.04-1.22,1.64-.08,.14-.14,.28-.25,.4-.16,.18-.39,.25-.62,.29-.23,.04-.47,.05-.7,.02-.11,0-.23-.03-.33,0-.13,.04-.24,.15-.35,.24-.28,.21-.64,.28-.97,.35-.39,.07-.79,.14-1.17,.02-.46-.17-.8-.6-1.05-1.06s-.44-.96-.75-1.38c-.33-.43-.76-.75-1.05-1.2-.44-.68-.52-1.56-.57-2.39-.05-.68-.09-1.36-.13-2.04-.08-.4-.16-1.02-.09-1.77,.05-.53,.11-1.19,.5-1.8,.39-.64,1.05-1.01,1.71-1.24,.9-.32,1.87-.42,2.81-.29,.5,.06,.99,.2,1.41,.51,.28,.21,.5,.47,.73,.74,.61,.71,1.22,1.43,1.67,2.28,.13,.26,.26,.55,.23,.85-.06,.65-.76,.91-1.34,1.03-.63,.13-1.27,.26-1.9,.4-.6,.13-1.22,.25-1.81,.05-.23-.08-.45-.21-.69-.25-.24-.05-.52,0-.66,.23-.16,.25-.08,.59,0,.87,.13,.49,.28,.99,.41,1.48,.17,.59,.34,1.19,.67,1.69s.85,.88,1.4,.85c.57-.03,1.04-.5,1.41-.99,.36-.49,.68-1.05,1.15-1.42,.47-.36,1.17-.47,1.59-.03h0c.47,.48,.33,1.36-.03,1.95Zm13.65-.39c-.18,.48-.71,.64-1.17,.74-1.31,.28-2.62,.55-3.93,.82-.52,.11-1.06,.21-1.56,.02-.2-.08-.38-.2-.59-.25-.54-.14-1.07,.21-1.61,.32-.28,.06-.57,.06-.86,.07-.73,0-1.58-.06-1.97-.74-.07-.12-.12-.25-.12-.39,0-.14,.06-.28,.13-.4,.3-.64,.61-1.28,.91-1.92,.39-.81,.79-1.64,1.39-2.27,.45-.47,1.01-.79,1.51-1.19,.96-.75,1.75-1.77,2.29-2.93-.73-.06-1.42,.31-2.13,.51-1.27,.37-2.61,.26-3.92,.11-.26-.03-.76,0-1.28-.32-.53-.32-.88-.85-.81-1.09,.01-.06,.08-.17,.08-.34h0c0-.07-.01-.13,.01-.19,.04-.07,.11-.11,.17-.14,.88-.42,1.78-.77,2.7-1.05,.37-.12,.77-.22,1.14-.08,.17,.06,.32,.17,.49,.23,.16,.06,.34,.06,.51,.05,1.03,0,2.06-.02,3.07-.24,.22-.05,.45-.1,.67-.12,.21-.02,.43,0,.64,.02,.88,.08,1.76,.16,2.63,.24,.16,.02,.33,.03,.47,.14,.13,.1,.21,.28,.23,.47,.11,.75-.47,1.38-1.03,1.82-.81,.62-1.71,1.19-2.18,2.15-.24,.51-.35,1.08-.6,1.58-.16,.32-.38,.59-.6,.87l-.83,1.04c-.45,.57-.92,1.15-1.51,1.54,.14,.13,.35,.13,.53,.12,.71-.04,1.43-.09,2.08-.4,.21-.1,.41-.23,.64-.29,.5-.13,1.01,.08,1.51,.12,.42,.03,.84-.06,1.26-.09,.42-.03,.87,0,1.22,.25,.35,.25,.59,.77,.42,1.21Zm9.47-1.07c-.36,.59-.88,1.04-1.22,1.64-.08,.14-.14,.28-.25,.4-.16,.18-.39,.25-.62,.29-.23,.04-.47,.05-.7,.02-.11,0-.23-.03-.33,0-.13,.04-.24,.15-.35,.24-.28,.21-.64,.28-.97,.35-.39,.07-.79,.14-1.17,.02-.46-.17-.8-.6-1.05-1.06-.25-.46-.44-.96-.75-1.38-.33-.43-.76-.75-1.05-1.2-.44-.68-.52-1.56-.57-2.39-.05-.68-.09-1.36-.13-2.04-.08-.4-.16-1.02-.09-1.77,.05-.53,.11-1.19,.5-1.8,.39-.64,1.05-1.01,1.71-1.24,.9-.32,1.87-.42,2.81-.29,.5,.06,.99,.2,1.41,.51,.28,.21,.5,.47,.73,.74,.61,.71,1.22,1.43,1.67,2.28,.13,.26,.26,.55,.23,.85-.06,.65-.76,.91-1.34,1.03-.63,.13-1.27,.26-1.9,.4-.6,.13-1.22,.25-1.81,.05-.23-.08-.45-.21-.69-.25-.24-.05-.52,0-.66,.23-.16,.25-.08,.59,0,.87,.13,.49,.28,.99,.41,1.48,.17,.59,.34,1.19,.67,1.69,.33,.5,.85,.88,1.4,.85,.57-.03,1.04-.5,1.41-.99,.36-.49,.68-1.05,1.15-1.42,.47-.36,1.17-.47,1.59-.03h0c.47,.48,.33,1.36-.03,1.95Zm5.37,3.03c-.6-.23-1.28-.22-1.88,.03-.41,.17-.93,.43-1.24,.08-.12-.14-.16-.35-.2-.55-.58-3.33-.23-6.78-.62-10.14-.13-1.12-.35-2.23-.65-3.31-.18-.64-.38-1.3-.34-1.96s.42-1.37,1.01-1.49c.45-.09,.93,.17,1.37,.02l.42-.12c.5,.39,.77,1.05,.88,1.72,.11,.66,.06,1.34,.04,2.02-.04,1.15-.03,2.31,.05,3.46,.08,1.23,.23,2.45,.38,3.67,.13,1.13,.28,2.27,.41,3.4,.05,.39,.09,.77,.2,1.14,.19,.68,.57,1.47,.18,2.03Zm14.11-12.86c-.56,.36-1.24,.36-1.88,.43-.94,.1-1.9,.39-2.65,1.02-.16,.13-.32,.29-.38,.51-.04,.17-.02,.34,0,.51,.11,1.02,.23,2.03,.35,3.04,.08,.72,.16,1.44,.37,2.12,.13,.46,.33,.89,.42,1.36,.19,.86,.07,1.77-.11,2.64-.07,.35-.18,.74-.46,.91-.35,.22-.82-.04-1.04-.42s-.26-.85-.32-1.3c-.06-.45-.17-.93-.47-1.23-.16-.15-.35-.25-.5-.4-.54-.54-.38-1.49-.33-2.3,.06-1.03-.14-2.05-.35-3.05-.11-.51-.21-1.02-.31-1.53-.06-.25-.11-.51-.25-.71s-.4-.34-.61-.25c-.16,.07-.28,.25-.45,.22-.11-.02-.19-.13-.28-.2-.34-.25-.79,0-1.15,.21-.74,.41-1.58,.59-2.4,.49-.21-.02-.44-.08-.58-.26-.14-.18-.14-.44-.14-.68,.01-.42,.05-.84,.11-1.25l.23-.1c.52,.17,1-.61,1.54-.49,.14,.03,.27,.13,.4,.17,.17,.06,.36,.03,.54,0,.67-.1,1.34-.21,2.02-.32,.29-.05,.62-.13,.74-.43-.11-.25-.3-.43-.52-.55,.13-.56-.03-1.15-.21-1.69s-.4-1.08-.42-1.66c-.02-.58,.23-1.21,.71-1.41,.48-.2,1.03,.12,1.34,.58,.82,1.2,.35,3.13,1.28,4.24,.11,.13,.23,.25,.39,.3,.18,.07,.39,.04,.59,0,1.23-.22,2.47-.45,3.7-.67,.53-.09,1.17-.16,1.53,.3,.42,.54,.1,1.46-.46,1.83Z"/><path class="cls-1" d="M92.51,17.36s-.08,.07-.08,.15h0c-.59,1.95-.83,4.25-1.27,6.33,.35,.57,.55,1.55,1.25,1.61,.14,.02,.28-.13,.5-.14,.25-.02,.49,.1,.69,.03,.57-.21,.51-1.11,.68-1.8-.88-1.51-1.17-3.82-1.39-6.22-.13,.02-.25,.02-.38,.04Z"/><path class="cls-1" d="M63.8,21.28c0-.23-.02-.43,0-.67,.01-.32,.21-.82,0-1.06-.09-.1-.17-.06-.4-.1-.13-.03-.24-.12-.35-.16-.28-.09-.58-.09-.83-.16-.39-.11-.73-.42-1.03-.47-.19-.04-.38,.03-.56,0-.44-.06-.91-.18-1.37-.35-.44-.16-.91-.26-1.37-.4-.88-.27-1.77-.62-2.65-.85-.9-.24-1.79-.5-2.69-.8-.76-.25-2.02-.56-2.92-.48-.53,.05-.35,1.05-.44,1.58-.1,.65-.46,1.33-.58,1.94-.05,.24-.02,.51-.07,.77-.1,.52-.16,1-.22,1.57-.03,.25-.13,.5-.16,.74-.01,.15,.04,.32,.04,.47-.01,.39-.16,.81-.17,1.17,0,.24,.08,.49,.06,.72-.03,.34-.36,.74-.16,1.22-.29,.51-.38,1.41-.35,2.06-.25,.32-.18,.74-.25,1.27-.06,.48-.28,1.01-.1,1.45-.21,.39-.18,.9-.3,1.57-.09,.46-.18,.9,.13,1.04,.25,.11,.45-.16,.76-.17,.44-.02,.92,.5,1.39,.73,.39,.19,.87,.31,1.33,.5,.89,.36,1.82,.61,2.78,.84,.52,.13,1.05,.28,1.52,.19,.25-.1,.08-.4,.12-.64,.04-.19,.18-.36,.21-.55,.05-.34,.06-.89-.04-1.1-.08-.17-.17-.17-.33-.31-.1-.08-.27-.27-.33-.31-.25-.17-.62-.21-.85-.4-.28-.21-.52-.66-.68-.95-.21-.37-.33-.73-.6-1.05,.05-.32-.2-.52-.28-.79-.04-.14,0-.33-.04-.47-.04-.16-.16-.3-.21-.46-.21-.65-.45-1.58-.43-2.22,0-.42,.21-.7,.26-1.08,.1-.68,0-1.34,.24-1.9,.18-.42,.62-.85,.94-1.2,.32-.35,.68-.84,1.08-1.07,.73-.43,2.15-.68,3.11-.55,.52,.07,.96,.25,1.59,.42,.49,.13,1.23,.26,1.51,.58,.16,.17,.22,.48,.36,.74,.13,.24,.33,.46,.44,.68,.16,.32,.3,.77,.38,1.02,.12,.41,.24,.83,.56,1.05,.51-.05,.82,.38,1.33,.21,.44-.17,.48-1.27,.53-2.02,.05-.72,.06-1.23,.08-1.79Z"/><path class="cls-1" d="M190.4,23.23c.04,.06,.09,.1,.15,.13,.4,.22,.88,0,1.32,0,.26,0,.53,.09,.79,.06,.41-.05,.79-.34,1.19-.28-.08-.25-.17-.49-.25-.74-.08-.22-.16-.45-.3-.62-.19-.24-.48-.36-.76-.4-.28-.03-.57,0-.86,.06-.08,.03-.2,.08-.35,.14-.51,.22-.77,.32-.87,.5v-.02c-.16,.28-.16,.64-.11,.97,0,.06,.02,.13,.05,.18Z"/><path class="cls-1" d="M62.4,29.02c-.07-.28-.5-.45-.89-.4-.21,.03-.41,.21-.67,.31-.25,.1-.52,.16-.76,.27-.76,.37-1.49,.76-2.22,.36-.43,.22-.85,.09-1.38-.06-.59-.16-.96-.23-1.17-.66-.5-.1-1.34-.57-1.68,.07,.08,.62,.32,1.3,.69,1.62,.16,.13,.69,.46,.86,.49,.38,.09,.83-.13,1.14,.23,.18,.93-.23,1.61-.33,2.39-.03,.25,.02,.62-.01,.96-.02,.24-.12,.52-.07,.73,.1,.4,.65,.52,1.22,.7,.23,.07,.48,.14,.71,.22,.74,.25,1.25,.02,1.05-.82,.09-.15,.18-.28,.22-.46,.06-.2,.01-.39,.04-.59,.06-.49,.25-1.03,.4-1.49,.17-.5,.3-1.01,.54-1.4,.52,.02,.71-.19,1.05-.34h0c.16-.08,.46-.11,.55-.16,.03-.02,.04-.13,.08-.15,.16-.13,.26-.12,.37-.28,.22-.33,.05-.47,.11-.88,.04-.24,.22-.46,.16-.69Z"/></g></g></svg>