<?xml version="1.0" encoding="utf-8"?>
<!-- Generator: Adobe Illustrator 27.3.1, SVG Export Plug-In . SVG Version: 6.00 Build 0)  -->
<svg version="1.1" id="Laag_1" xmlns="http://www.w3.org/2000/svg" xmlns:xlink="http://www.w3.org/1999/xlink" x="0px" y="0px"
	 viewBox="0 0 1920 1080" style="enable-background:new 0 0 1920 1080;" xml:space="preserve">
<style type="text/css">
	.st0{display:none;}
	.st1{display:inline;}
	.st2{fill:#00003A;}
	.st3{display:inline;fill:#00003A;}
	.st4{fill:#FFFFFF;}
	.st5{display:none;enable-background:new    ;}
	.st6{font-family:'Montserrat-Light';}
	.st7{font-size:94.1031px;}
	.st8{letter-spacing:64.4;}
</style>
<g class="st0">
	<g class="st1">
		<path class="st2" d="M2142.8,286.4c0,37.7,0,75.3,0,113"/>
		<rect x="2140.8" y="286.4" class="st2" width="4" height="113"/>
	</g>
	<g class="st1">
		<path class="st2" d="M2197.8,329.4c0,31.7,0,63.4,0,95.1"/>
		<rect x="2195.8" y="329.4" class="st2" width="4" height="95.1"/>
	</g>
	<g class="st1">
		<path class="st2" d="M2247.8,359.4c0,18.4,0,36.7,0,55.1"/>
		<rect x="2245.8" y="359.4" class="st2" width="4" height="55.1"/>
	</g>
	<rect x="2084.8" y="367.4" class="st3" width="113" height="4"/>
	<rect x="2186.8" y="404.4" class="st3" width="121" height="4"/>
</g>
<g>
	<g>
		<g>
			<path class="st4" d="M545.6,659.3l30.6-66.6h4.9l30.6,66.6h-5.2l-28.9-63.5h2.1l-28.8,63.5H545.6z M556.8,640.5l1.6-4.1h39.9
				l1.6,4.1H556.8z"/>
			<path class="st4" d="M690.4,659.3v-66.6h23.9c5.6,0,10.4,0.9,14.4,2.7s7.1,4.3,9.2,7.7c2.2,3.3,3.2,7.4,3.2,12.1
				c0,4.6-1.1,8.6-3.2,11.9c-2.2,3.3-5.2,5.9-9.2,7.7s-8.8,2.7-14.4,2.7H693l2.2-2.3v24.1L690.4,659.3L690.4,659.3z M695.2,635.5
				l-2.2-2.3h21.2c7.2,0,12.6-1.6,16.3-4.8s5.6-7.6,5.6-13.3c0-5.8-1.9-10.2-5.6-13.4c-3.7-3.1-9.1-4.7-16.3-4.7H693l2.2-2.4V635.5z
				 M736.6,659.3l-17.3-24.2h5.5l17.3,24.2H736.6z"/>
			<path class="st4" d="M853.6,659.7c-4.9,0-9.5-0.8-13.7-2.5s-7.9-4-11-7.1c-3.1-3-5.5-6.6-7.2-10.7c-1.7-4.1-2.6-8.6-2.6-13.5
				s0.9-9.4,2.6-13.5c1.7-4.1,4.1-7.7,7.3-10.7c3.1-3,6.8-5.4,11-7.1c4.2-1.7,8.8-2.5,13.7-2.5c4.7,0,9.1,0.8,13.2,2.3
				c4.1,1.5,7.6,3.8,10.5,6.9l-3,3.1c-2.9-2.8-6-4.8-9.5-6s-7.1-1.9-11-1.9c-4.2,0-8.2,0.7-11.8,2.2s-6.8,3.5-9.5,6.2
				s-4.8,5.8-6.3,9.3c-1.5,3.6-2.2,7.4-2.2,11.6s0.7,8.1,2.2,11.6c1.5,3.6,3.6,6.7,6.3,9.3c2.7,2.7,5.9,4.7,9.5,6.2
				s7.6,2.2,11.8,2.2c3.9,0,7.5-0.6,11-1.9c3.5-1.2,6.6-3.3,9.5-6.1l3,3.1c-2.9,3.1-6.4,5.4-10.5,7
				C862.7,659,858.3,659.7,853.6,659.7z"/>
			<path class="st4" d="M965,659.3h-4.9v-66.6h4.9V659.3z M1010.1,627.6h-45.7v-4.3h45.7V627.6z M1009.5,592.7h4.9v66.6h-4.9V592.7z
				"/>
			<path class="st4" d="M1104.2,659.3v-66.6h4.9v66.6H1104.2z"/>
			<path class="st4" d="M1216.6,659.3l-29.7-66.6h5.3l28.3,63.6h-2.9l28.4-63.6h5l-29.7,66.6H1216.6z"/>
			<path class="st4" d="M1333.3,654.9h41.1v4.4h-45.9v-66.6h44.5v4.4h-39.7V654.9z M1332.7,623.3h36.1v4.3h-36.1V623.3z"/>
		</g>
	</g>
	<g>
		<g>
			<path class="st4" d="M910,396.1c0,37.7,0,75.3,0,113"/>
			<rect x="908" y="396.1" class="st4" width="4" height="113"/>
		</g>
		<g>
			<path class="st4" d="M965,439.1c0,31.7,0,63.4,0,95.1"/>
			<rect x="963" y="439.1" class="st4" width="4" height="95.1"/>
		</g>
		<g>
			<path class="st4" d="M1015,469.1c0,18.4,0,36.7,0,55.1"/>
			<rect x="1013" y="469.1" class="st4" width="4" height="55.1"/>
		</g>
		<g>
			<line class="st4" x1="852" y1="479.1" x2="965" y2="479.1"/>
			<rect x="852" y="477.1" class="st4" width="113" height="4"/>
		</g>
		<g>
			<line class="st4" x1="1075" y1="516.1" x2="954" y2="516.1"/>
			<rect x="954" y="514.1" class="st4" width="121" height="4"/>
		</g>
	</g>
</g>
<g class="st0">
	<path class="st1" d="M417.6,659.3v-65.9h23.8c5.6,0,10.3,0.9,14.3,2.6c4,1.8,7.1,4.3,9.2,7.6c2.2,3.3,3.2,7.3,3.2,12
		c0,4.6-1.1,8.5-3.2,11.9c-2.2,3.3-5.2,5.9-9.2,7.6c-4,1.8-8.8,2.6-14.3,2.6h-21.2l2.2-2.3v23.8h-4.8V659.3z M422.4,635.8l-2.2-2.4
		h21.2c7.2,0,12.6-1.6,16.3-4.7s5.6-7.5,5.6-13.1c0-5.7-1.9-10.1-5.6-13.2s-9.1-4.7-16.3-4.7h-21.2l2.2-2.4V635.8z"/>
	<path class="st1" d="M580.1,659.8c-4.9,0-9.5-0.8-13.7-2.5s-7.9-4-11-7.1c-3.1-3-5.6-6.6-7.3-10.6s-2.6-8.5-2.6-13.2
		c0-4.8,0.9-9.2,2.6-13.2c1.7-4,4.1-7.6,7.3-10.6c3.1-3,6.8-5.4,11-7.1c4.2-1.7,8.8-2.5,13.7-2.5s9.5,0.8,13.7,2.5s7.9,4,11,7
		s5.5,6.5,7.3,10.6c1.7,4,2.6,8.5,2.6,13.3s-0.9,9.3-2.6,13.3c-1.7,4-4.2,7.6-7.3,10.6s-6.8,5.3-11,7
		C589.6,658.9,585,659.8,580.1,659.8z M580.1,655.3c4.2,0,8.2-0.7,11.8-2.2c3.6-1.4,6.7-3.5,9.4-6.1s4.7-5.7,6.2-9.2
		s2.2-7.3,2.2-11.5s-0.7-8-2.2-11.5s-3.6-6.5-6.2-9.2s-5.8-4.7-9.4-6.1c-3.6-1.4-7.5-2.2-11.8-2.2c-4.2,0-8.2,0.7-11.8,2.2
		c-3.6,1.4-6.8,3.5-9.4,6.1c-2.7,2.6-4.8,5.7-6.3,9.2s-2.2,7.3-2.2,11.5c0,4.1,0.7,8,2.2,11.5s3.6,6.6,6.3,9.2
		c2.7,2.6,5.8,4.7,9.4,6.1C571.9,654.6,575.9,655.3,580.1,655.3z"/>
	<path class="st1" d="M697.9,659.3v-65.9h23.8c5.6,0,10.3,0.9,14.3,2.6c4,1.8,7.1,4.3,9.2,7.6c2.2,3.3,3.2,7.3,3.2,12
		c0,4.6-1.1,8.5-3.2,11.8c-2.2,3.3-5.2,5.8-9.2,7.6s-8.8,2.7-14.3,2.7h-21.2l2.2-2.3v23.8h-4.8V659.3z M702.8,635.8l-2.2-2.3h21.2
		c7.2,0,12.6-1.6,16.3-4.7c3.7-3.1,5.6-7.5,5.6-13.2s-1.9-10.1-5.6-13.2s-9.1-4.7-16.3-4.7h-21.2l2.2-2.4V635.8z M744.1,659.3
		l-17.3-23.9h5.5l17.3,23.9H744.1z"/>
	<path class="st1" d="M844.5,659.3v-61.5h-23.9v-4.3h52.7v4.3h-23.9v61.5H844.5z"/>
	<path class="st1" d="M956.5,659.3h-4.8v-65.9h44.4v4.3h-39.6L956.5,659.3L956.5,659.3z M956,625.9h36v4.3h-36V625.9z"/>
	<path class="st1" d="M1105.4,659.8c-4.9,0-9.5-0.8-13.7-2.5s-7.9-4-11-7.1c-3.1-3-5.6-6.6-7.3-10.6c-1.7-4-2.6-8.5-2.6-13.2
		c0-4.8,0.9-9.2,2.6-13.2s4.1-7.6,7.3-10.6c3.1-3,6.8-5.4,11-7.1c4.2-1.7,8.8-2.5,13.7-2.5s9.5,0.8,13.7,2.5s7.9,4,11,7
		s5.5,6.5,7.3,10.6c1.7,4,2.6,8.5,2.6,13.3s-0.9,9.3-2.6,13.3s-4.2,7.6-7.3,10.6c-3.1,3-6.8,5.3-11,7
		C1114.9,658.9,1110.3,659.8,1105.4,659.8z M1105.4,655.3c4.2,0,8.2-0.7,11.8-2.2c3.6-1.4,6.7-3.5,9.4-6.1s4.7-5.7,6.2-9.2
		s2.2-7.3,2.2-11.5s-0.7-8-2.2-11.5s-3.6-6.5-6.2-9.2s-5.8-4.7-9.4-6.1c-3.6-1.4-7.5-2.2-11.8-2.2c-4.2,0-8.2,0.7-11.8,2.2
		c-3.6,1.4-6.8,3.5-9.4,6.1c-2.7,2.6-4.8,5.7-6.3,9.2s-2.2,7.3-2.2,11.5c0,4.1,0.7,8,2.2,11.5s3.6,6.6,6.3,9.2
		c2.7,2.6,5.8,4.7,9.4,6.1C1097.2,654.6,1101.2,655.3,1105.4,655.3z"/>
	<path class="st1" d="M1223.2,659.3v-65.9h4.8V655h38.3v4.3H1223.2z"/>
	<path class="st1" d="M1345.2,659.3v-65.9h4.8v65.9H1345.2z"/>
	<path class="st1" d="M1467.9,659.8c-4.9,0-9.5-0.8-13.7-2.5s-7.9-4-11-7.1c-3.1-3-5.6-6.6-7.3-10.6c-1.7-4-2.6-8.5-2.6-13.2
		c0-4.8,0.9-9.2,2.6-13.2s4.1-7.6,7.3-10.6c3.1-3,6.8-5.4,11-7.1c4.2-1.7,8.8-2.5,13.7-2.5s9.5,0.8,13.7,2.5s7.9,4,11,7
		s5.5,6.5,7.3,10.6c1.7,4,2.6,8.5,2.6,13.3s-0.9,9.3-2.6,13.3s-4.2,7.6-7.3,10.6c-3.1,3-6.8,5.3-11,7
		C1477.4,658.9,1472.8,659.8,1467.9,659.8z M1467.9,655.3c4.2,0,8.2-0.7,11.8-2.2c3.6-1.4,6.7-3.5,9.4-6.1s4.7-5.7,6.2-9.2
		s2.2-7.3,2.2-11.5s-0.7-8-2.2-11.5s-3.6-6.5-6.2-9.2s-5.8-4.7-9.4-6.1c-3.6-1.4-7.5-2.2-11.8-2.2c-4.2,0-8.2,0.7-11.8,2.2
		c-3.6,1.4-6.8,3.5-9.4,6.1c-2.7,2.6-4.8,5.7-6.3,9.2s-2.2,7.3-2.2,11.5c0,4.1,0.7,8,2.2,11.5s3.6,6.6,6.3,9.2
		c2.7,2.6,5.8,4.7,9.4,6.1C1459.7,654.6,1463.6,655.3,1467.9,655.3z"/>
</g>
<g class="st0">
	<path class="st1" d="M654.9,659.3l30.6-65.9h4.8l30.6,65.9h-5.2l-28.9-62.9h2.1l-28.8,62.9H654.9z M666.1,640.8l1.6-4h39.8l1.6,4
		H666.1z"/>
	<path class="st1" d="M799.4,659.3v-65.9h27.7c7.2,0,12.8,1.4,16.8,4.3c4,2.9,6.1,7.1,6.1,12.5c0,3.6-0.9,6.6-2.6,9
		c-1.7,2.4-4.1,4.3-7.1,5.5s-6.4,1.8-10.1,1.8l1.7-1.9c4.6,0,8.4,0.7,11.7,2s5.7,3.2,7.4,5.7s2.5,5.6,2.5,9.4c0,5.5-2,9.8-6.1,12.8
		s-10.2,4.6-18.4,4.6h-29.6V659.3z M804.2,655.2H829c6.4,0,11.3-1.1,14.6-3.2c3.4-2.2,5-5.6,5-10.4c0-4.7-1.7-8.1-5-10.3
		c-3.4-2.2-8.2-3.2-14.6-3.2h-25.3V624H827c5.8,0,10.2-1.1,13.4-3.3s4.7-5.5,4.7-9.9c0-4.3-1.6-7.6-4.7-9.8
		c-3.2-2.2-7.6-3.3-13.4-3.3h-22.7L804.2,655.2L804.2,655.2z"/>
	<path class="st1" d="M965.4,659.8c-4.9,0-9.5-0.8-13.7-2.5s-7.9-4-11-7.1c-3.1-3-5.6-6.6-7.3-10.6s-2.6-8.5-2.6-13.2
		c0-4.8,0.9-9.2,2.6-13.2c1.7-4,4.1-7.6,7.3-10.6c3.1-3,6.8-5.4,11-7.1c4.2-1.7,8.8-2.5,13.7-2.5s9.5,0.8,13.7,2.5s7.9,4,11,7
		s5.5,6.5,7.3,10.6c1.7,4,2.6,8.5,2.6,13.3s-0.9,9.3-2.6,13.3c-1.7,4-4.2,7.6-7.3,10.6s-6.8,5.3-11,7
		C974.9,658.9,970.3,659.8,965.4,659.8z M965.4,655.3c4.2,0,8.2-0.7,11.8-2.2c3.6-1.4,6.7-3.5,9.4-6.1s4.7-5.7,6.2-9.2
		s2.2-7.3,2.2-11.5s-0.7-8-2.2-11.5s-3.6-6.5-6.2-9.2s-5.8-4.7-9.4-6.1c-3.6-1.4-7.5-2.2-11.8-2.2s-8.2,0.7-11.8,2.2
		c-3.6,1.4-6.8,3.5-9.4,6.1c-2.7,2.6-4.8,5.7-6.3,9.2s-2.2,7.3-2.2,11.5c0,4.1,0.7,8,2.2,11.5s3.6,6.6,6.3,9.2
		c2.7,2.6,5.8,4.7,9.4,6.1C957.2,654.6,961.2,655.3,965.4,655.3z"/>
	<path class="st1" d="M1109.2,659.8c-8.2,0-14.7-2.4-19.5-7.2c-4.7-4.8-7.1-11.9-7.1-21.3v-37.9h4.8v37.7c0,8.2,1.9,14.3,5.7,18.3
		s9.2,5.9,16.1,5.9s12.2-2,16-5.9c3.8-4,5.7-10,5.7-18.3v-37.7h4.8v37.9c0,9.4-2.4,16.5-7.1,21.3
		C1124.1,657.4,1117.5,659.8,1109.2,659.8z"/>
	<path class="st1" d="M1236.4,659.3v-61.5h-23.9v-4.3h52.7v4.3h-23.9v61.5H1236.4z"/>
</g>
<text transform="matrix(1.0089 0 0 1 656.3184 659.299)" class="st5 st6 st7 st8">ABOUT</text>
<g class="st0">
	<path class="st1" d="M567.8,659.8c-4.9,0-9.5-0.8-13.7-2.5s-7.9-4-11-7s-5.5-6.5-7.2-10.6c-1.7-4-2.6-8.5-2.6-13.3
		s0.9-9.3,2.6-13.3c1.7-4,4.1-7.6,7.3-10.6c3.1-3,6.8-5.3,11-7s8.7-2.5,13.7-2.5c4.7,0,9.1,0.8,13.1,2.3c4.1,1.5,7.6,3.8,10.5,6.9
		l-3,3.1c-2.8-2.8-6-4.8-9.4-6c-3.5-1.2-7.1-1.8-11-1.8c-4.2,0-8.2,0.7-11.8,2.2c-3.6,1.4-6.8,3.5-9.5,6.1s-4.8,5.7-6.3,9.2
		s-2.2,7.3-2.2,11.5c0,4.1,0.7,8,2.2,11.5s3.6,6.6,6.3,9.2c2.7,2.6,5.9,4.7,9.5,6.1c3.6,1.4,7.6,2.2,11.8,2.2c3.9,0,7.5-0.6,11-1.8
		c3.4-1.2,6.6-3.2,9.4-6.1l3,3.1c-2.9,3.1-6.4,5.4-10.5,6.9C576.9,659,572.5,659.8,567.8,659.8z"/>
	<path class="st1" d="M701,659.8c-4.9,0-9.5-0.8-13.7-2.5s-7.9-4-11-7.1c-3.1-3-5.6-6.6-7.3-10.6s-2.6-8.5-2.6-13.2
		c0-4.8,0.9-9.2,2.6-13.2c1.7-4,4.1-7.6,7.3-10.6c3.1-3,6.8-5.4,11-7.1c4.2-1.7,8.8-2.5,13.7-2.5s9.5,0.8,13.7,2.5s7.9,4,11,7
		s5.5,6.5,7.3,10.6c1.7,4,2.6,8.5,2.6,13.3s-0.9,9.3-2.6,13.3c-1.7,4-4.2,7.6-7.3,10.6s-6.8,5.3-11,7
		C710.5,658.9,705.9,659.8,701,659.8z M701,655.3c4.2,0,8.2-0.7,11.8-2.2c3.6-1.4,6.7-3.5,9.4-6.1s4.7-5.7,6.2-9.2s2.2-7.3,2.2-11.5
		s-0.7-8-2.2-11.5s-3.6-6.5-6.2-9.2s-5.8-4.7-9.4-6.1c-3.6-1.4-7.5-2.2-11.8-2.2c-4.2,0-8.2,0.7-11.8,2.2c-3.6,1.4-6.8,3.5-9.4,6.1
		c-2.7,2.6-4.8,5.7-6.3,9.2s-2.2,7.3-2.2,11.5c0,4.1,0.7,8,2.2,11.5s3.6,6.6,6.3,9.2c2.7,2.6,5.8,4.7,9.4,6.1
		C692.8,654.6,696.7,655.3,701,655.3z"/>
	<path class="st1" d="M818.8,659.3v-65.9h4.1l47.4,59.9H868v-59.9h4.8v65.9h-4l-47.5-59.9h2.2v59.9H818.8z"/>
	<path class="st1" d="M975.2,659.3v-61.5h-23.9v-4.3h52.7v4.3h-23.9v61.5H975.2z"/>
	<path class="st1" d="M1068,659.3l30.6-65.9h4.8l30.6,65.9h-5.2l-28.9-62.9h2.1l-28.8,62.9H1068z M1079.2,640.8l1.6-4h39.8l1.6,4
		H1079.2z"/>
	<path class="st1" d="M1239.6,659.8c-4.9,0-9.5-0.8-13.7-2.5s-7.9-4-11-7s-5.5-6.5-7.2-10.6c-1.7-4-2.6-8.5-2.6-13.3
		s0.9-9.3,2.6-13.3s4.1-7.6,7.3-10.6c3.1-3,6.8-5.3,11-7s8.7-2.5,13.7-2.5c4.7,0,9.1,0.8,13.1,2.3c4.1,1.5,7.6,3.8,10.5,6.9l-3,3.1
		c-2.8-2.8-6-4.8-9.4-6c-3.5-1.2-7.1-1.8-11-1.8c-4.2,0-8.2,0.7-11.8,2.2c-3.6,1.4-6.8,3.5-9.5,6.1s-4.8,5.7-6.3,9.2
		s-2.2,7.3-2.2,11.5c0,4.1,0.7,8,2.2,11.5s3.6,6.6,6.3,9.2c2.7,2.6,5.9,4.7,9.5,6.1c3.6,1.4,7.6,2.2,11.8,2.2c3.9,0,7.5-0.6,11-1.8
		c3.4-1.2,6.6-3.2,9.4-6.1l3,3.1c-2.9,3.1-6.4,5.4-10.5,6.9C1248.7,659,1244.3,659.8,1239.6,659.8z"/>
	<path class="st1" d="M1357.8,659.3v-61.5h-23.9v-4.3h52.7v4.3h-23.9v61.5H1357.8z"/>
</g>
<g id="Laag_2_00000055670705639871108800000012484454680310073220_" class="st0">
	<g class="st1">
		<g>
			<path class="st2" d="M545.6,659.3l30.6-66.6h4.9l30.6,66.6h-5.2l-28.9-63.5h2.1l-28.8,63.5H545.6z M556.8,640.5l1.6-4.1h39.9
				l1.6,4.1H556.8z"/>
			<path class="st2" d="M690.4,659.3v-66.6h23.9c5.6,0,10.4,0.9,14.4,2.7s7.1,4.3,9.2,7.7c2.2,3.3,3.2,7.4,3.2,12.1
				c0,4.6-1.1,8.6-3.2,11.9c-2.2,3.3-5.2,5.9-9.2,7.7s-8.8,2.7-14.4,2.7H693l2.2-2.3v24.1L690.4,659.3L690.4,659.3z M695.2,635.5
				l-2.2-2.3h21.2c7.2,0,12.6-1.6,16.3-4.8s5.6-7.6,5.6-13.3c0-5.8-1.9-10.2-5.6-13.4c-3.7-3.1-9.1-4.7-16.3-4.7H693l2.2-2.4V635.5z
				 M736.6,659.3l-17.3-24.2h5.5l17.3,24.2H736.6z"/>
			<path class="st2" d="M853.6,659.7c-4.9,0-9.5-0.8-13.7-2.5s-7.9-4-11-7.1c-3.1-3-5.5-6.6-7.2-10.7c-1.7-4.1-2.6-8.6-2.6-13.5
				s0.9-9.4,2.6-13.5c1.7-4.1,4.1-7.7,7.3-10.7c3.1-3,6.8-5.4,11-7.1c4.2-1.7,8.8-2.5,13.7-2.5c4.7,0,9.1,0.8,13.2,2.3
				c4.1,1.5,7.6,3.8,10.5,6.9l-3,3.1c-2.9-2.8-6-4.8-9.5-6s-7.1-1.9-11-1.9c-4.2,0-8.2,0.7-11.8,2.2s-6.8,3.5-9.5,6.2
				s-4.8,5.8-6.3,9.3c-1.5,3.6-2.2,7.4-2.2,11.6s0.7,8.1,2.2,11.6c1.5,3.6,3.6,6.7,6.3,9.3c2.7,2.7,5.9,4.7,9.5,6.2
				s7.6,2.2,11.8,2.2c3.9,0,7.5-0.6,11-1.9c3.5-1.2,6.6-3.3,9.5-6.1l3,3.1c-2.9,3.1-6.4,5.4-10.5,7
				C862.7,659,858.3,659.7,853.6,659.7z"/>
			<path class="st2" d="M965,659.3h-4.9v-66.6h4.9V659.3z M1010.1,627.6h-45.7v-4.3h45.7V627.6z M1009.5,592.7h4.9v66.6h-4.9V592.7z
				"/>
			<path class="st2" d="M1104.2,659.3v-66.6h4.9v66.6H1104.2z"/>
			<path class="st2" d="M1216.6,659.3l-29.7-66.6h5.3l28.3,63.6h-2.9l28.4-63.6h5l-29.7,66.6H1216.6z"/>
			<path class="st2" d="M1333.3,654.9h41.1v4.4h-45.9v-66.6h44.5v4.4h-39.7V654.9z M1332.7,623.3h36.1v4.3h-36.1V623.3z"/>
		</g>
	</g>
	<g class="st1">
		<g>
			<path class="st2" d="M2142.8,286.4c0,37.7,0,75.3,0,113"/>
			<rect x="2140.8" y="286.4" class="st2" width="4" height="113"/>
		</g>
		<g>
			<path class="st2" d="M2197.8,329.4c0,31.7,0,63.4,0,95.1"/>
			<rect x="2195.8" y="329.4" class="st2" width="4" height="95.1"/>
		</g>
		<g>
			<path class="st2" d="M2247.8,359.4c0,18.4,0,36.7,0,55.1"/>
			<rect x="2245.8" y="359.4" class="st2" width="4" height="55.1"/>
		</g>
		<rect x="2084.8" y="367.4" class="st2" width="113" height="4"/>
		<rect x="2186.8" y="404.4" class="st2" width="121" height="4"/>
	</g>
	<g class="st1">
		<g>
			<path class="st2" d="M910,396.1c0,37.7,0,75.3,0,113"/>
			<rect x="908" y="396.1" class="st2" width="4" height="113"/>
		</g>
		<g>
			<path class="st2" d="M965,439.1c0,31.7,0,63.4,0,95.1"/>
			<rect x="963" y="439.1" class="st2" width="4" height="95.1"/>
		</g>
		<g>
			<path class="st2" d="M1015,469.1c0,18.4,0,36.7,0,55.1"/>
			<rect x="1013" y="469.1" class="st2" width="4" height="55.1"/>
		</g>
		<rect x="852" y="477.1" class="st2" width="113" height="4"/>
		<rect x="954" y="514.1" class="st2" width="121" height="4"/>
	</g>
	<text transform="matrix(1.0089 0 0 1 656.3184 659.299)" class="st1 st6 st7 st8">ABOUT</text>
	<g class="st1">
		<g>
			<path class="st2" d="M910,396.1c0,37.7,0,75.3,0,113"/>
			<rect x="908" y="396.1" class="st2" width="4" height="113"/>
		</g>
		<g>
			<path class="st2" d="M965,439.1c0,31.7,0,63.4,0,95.1"/>
			<rect x="963" y="439.1" class="st2" width="4" height="95.1"/>
		</g>
		<g>
			<path class="st2" d="M1015,469.1c0,18.4,0,36.7,0,55.1"/>
			<rect x="1013" y="469.1" class="st2" width="4" height="55.1"/>
		</g>
		<rect x="852" y="477.1" class="st2" width="113" height="4"/>
		<rect x="954" y="514.1" class="st2" width="121" height="4"/>
	</g>
	<text transform="matrix(1.0089 0 0 1 656.3184 659.299)" class="st1 st6 st7 st8">ABOUT</text>
</g>
</svg>
