<?xml version="1.0" encoding="utf-8"?>
<!-- Generator: Adobe Illustrator 26.5.0, SVG Export Plug-In . SVG Version: 6.00 Build 0)  -->
<svg version="1.1" id="Laag_1" xmlns="http://www.w3.org/2000/svg" xmlns:xlink="http://www.w3.org/1999/xlink" x="0px" y="0px"
	 viewBox="0 0 1920 1080" style="enable-background:new 0 0 1920 1080;" xml:space="preserve">
<style type="text/css">
	.st0{fill:#00003A;stroke:#00003A;stroke-width:4;stroke-miterlimit:10;}
	.st1{fill:#00003A;}
</style>
<g>
	<g>
		<path class="st0" d="M853,479.1c37.7-0.3,75.3-0.7,113-1"/>
		<path class="st0" d="M954,517.1c40.3-0.3,80.7-0.7,121-1"/>
		<path class="st0" d="M910,396.1c0,37.7,0,75.3,0,113"/>
		<path class="st0" d="M965,439.1c0,31.7,0,63.4,0,95.1"/>
		<path class="st0" d="M1015,469.1c0,18.4,0,36.7,0,55.1"/>
	</g>
	<g>
		<path class="st1" d="M545.6,659.3l30.6-66.6h4.9l30.6,66.6h-5.2l-28.9-63.5h2.1l-28.8,63.5H545.6z M556.8,640.5l1.6-4.1h39.9
			l1.6,4.1H556.8z"/>
		<path class="st1" d="M690.4,659.3v-66.6h23.9c5.6,0,10.4,0.9,14.4,2.7s7.1,4.3,9.2,7.7c2.2,3.3,3.2,7.4,3.2,12.1
			c0,4.6-1.1,8.6-3.2,11.9c-2.2,3.3-5.2,5.9-9.2,7.7c-4,1.8-8.8,2.7-14.4,2.7H693l2.2-2.3v24.1H690.4z M695.2,635.5l-2.2-2.3h21.2
			c7.2,0,12.6-1.6,16.3-4.8c3.7-3.2,5.6-7.6,5.6-13.3c0-5.8-1.9-10.2-5.6-13.4c-3.7-3.1-9.1-4.7-16.3-4.7H693l2.2-2.4V635.5z
			 M736.6,659.3l-17.3-24.2h5.5l17.3,24.2H736.6z"/>
		<path class="st1" d="M853.6,659.7c-4.9,0-9.5-0.8-13.7-2.5c-4.2-1.7-7.9-4-11-7.1c-3.1-3-5.5-6.6-7.2-10.7
			c-1.7-4.1-2.6-8.6-2.6-13.5c0-4.9,0.9-9.4,2.6-13.5c1.7-4.1,4.1-7.7,7.3-10.7c3.1-3,6.8-5.4,11-7.1c4.2-1.7,8.8-2.5,13.7-2.5
			c4.7,0,9.1,0.8,13.2,2.3c4.1,1.5,7.6,3.8,10.5,6.9l-3,3.1c-2.9-2.8-6-4.8-9.5-6c-3.5-1.2-7.1-1.9-11-1.9c-4.2,0-8.2,0.7-11.8,2.2
			c-3.6,1.5-6.8,3.5-9.5,6.2c-2.7,2.7-4.8,5.8-6.3,9.3c-1.5,3.6-2.2,7.4-2.2,11.6s0.7,8.1,2.2,11.6c1.5,3.6,3.6,6.7,6.3,9.3
			c2.7,2.7,5.9,4.7,9.5,6.2c3.6,1.5,7.6,2.2,11.8,2.2c3.9,0,7.5-0.6,11-1.9c3.5-1.2,6.6-3.3,9.5-6.1l3,3.1c-2.9,3.1-6.4,5.4-10.5,7
			C862.7,659,858.3,659.7,853.6,659.7z"/>
		<path class="st1" d="M965,659.3h-4.9v-66.6h4.9V659.3z M1010.1,627.6h-45.7v-4.3h45.7V627.6z M1009.5,592.7h4.9v66.6h-4.9V592.7z"
			/>
		<path class="st1" d="M1104.2,659.3v-66.6h4.9v66.6H1104.2z"/>
		<path class="st1" d="M1216.6,659.3l-29.7-66.6h5.3l28.3,63.6h-2.9l28.4-63.6h5l-29.7,66.6H1216.6z"/>
		<path class="st1" d="M1333.3,654.9h41.1v4.4h-45.9v-66.6h44.5v4.4h-39.7V654.9z M1332.7,623.3h36.1v4.3h-36.1V623.3z"/>
	</g>
</g>
</svg>
