<?xml version="1.0" encoding="UTF-8"?><svg id="Laag_2" xmlns="http://www.w3.org/2000/svg" viewBox="0 0 1920 1080"><defs><style>.cls-1{fill:#fff;}</style></defs><g id="Laag_2-2"><g><path class="cls-1" d="M601.27,605.66c-2.66-2.63-5.79-4.67-9.4-6.12-3.61-1.44-7.53-2.16-11.77-2.16s-8.17,.72-11.77,2.16c-3.61,1.44-6.76,3.48-9.45,6.12-2.69,2.63-4.78,5.69-6.27,9.17-1.49,3.48-2.23,7.33-2.23,11.53s.74,7.97,2.23,11.48c1.49,3.51,3.58,6.59,6.27,9.22,2.69,2.63,5.84,4.67,9.45,6.12,3.61,1.44,7.53,2.17,11.77,2.17s8.17-.72,11.77-2.17c3.61-1.44,6.74-3.48,9.4-6.12s4.73-5.71,6.22-9.22c1.49-3.51,2.23-7.34,2.23-11.48s-.74-8.04-2.23-11.53c-1.49-3.48-3.56-6.54-6.22-9.17Z"/><path class="cls-1" d="M743.58,615.64c0-5.71-1.85-10.12-5.55-13.22s-9.13-4.66-16.28-4.66h-18.99v35.76h18.99c7.15,0,12.58-1.57,16.28-4.71,3.7-3.14,5.55-7.53,5.55-13.17Z"/><path class="cls-1" d="M1126.57,605.66c-2.66-2.63-5.79-4.67-9.4-6.12-3.61-1.44-7.53-2.16-11.77-2.16s-8.17,.72-11.77,2.16c-3.61,1.44-6.76,3.48-9.45,6.12-2.69,2.63-4.78,5.69-6.27,9.17-1.49,3.48-2.23,7.33-2.23,11.53s.74,7.97,2.23,11.48c1.49,3.51,3.58,6.59,6.27,9.22,2.69,2.63,5.84,4.67,9.45,6.12,3.61,1.44,7.53,2.17,11.77,2.17s8.17-.72,11.77-2.17c3.61-1.44,6.74-3.48,9.4-6.12s4.73-5.71,6.22-9.22c1.49-3.51,2.23-7.34,2.23-11.48s-.75-8.04-2.23-11.53c-1.49-3.48-3.56-6.54-6.22-9.17Z"/><path class="cls-1" d="M1489.06,605.66c-2.66-2.63-5.79-4.67-9.4-6.12-3.61-1.44-7.53-2.16-11.77-2.16s-8.17,.72-11.77,2.16c-3.61,1.44-6.76,3.48-9.45,6.12-2.69,2.63-4.78,5.69-6.27,9.17-1.49,3.48-2.23,7.33-2.23,11.53s.74,7.97,2.23,11.48c1.49,3.51,3.58,6.59,6.27,9.22,2.69,2.63,5.84,4.67,9.45,6.12,3.61,1.44,7.53,2.17,11.77,2.17s8.17-.72,11.77-2.17c3.61-1.44,6.74-3.48,9.4-6.12s4.73-5.71,6.22-9.22c1.49-3.51,2.23-7.34,2.23-11.48s-.75-8.04-2.23-11.53c-1.49-3.48-3.56-6.54-6.22-9.17Z"/><path class="cls-1" d="M0,0V1080H1920V0H0ZM464.93,627.49c-2.15,3.33-5.22,5.87-9.21,7.62-3.99,1.76-8.77,2.63-14.34,2.63h-18.99v21.55h-4.84v-65.87h23.83c5.57,0,10.35,.88,14.34,2.63,3.99,1.76,7.06,4.28,9.21,7.58,2.15,3.29,3.23,7.29,3.23,12s-1.08,8.53-3.23,11.86Zm147.11,12.19c-1.74,4.05-4.16,7.58-7.26,10.59-3.1,3.01-6.76,5.35-10.97,7.01-4.21,1.66-8.78,2.49-13.72,2.49s-9.51-.83-13.72-2.49c-4.21-1.66-7.88-4.01-11.01-7.06-3.13-3.04-5.55-6.59-7.26-10.63-1.71-4.05-2.56-8.45-2.56-13.22s.85-9.17,2.56-13.22c1.71-4.05,4.13-7.59,7.26-10.63,3.13-3.04,6.8-5.39,11.01-7.06,4.21-1.66,8.78-2.49,13.72-2.49s9.51,.83,13.72,2.49c4.21,1.66,7.86,4,10.97,7.01,3.1,3.01,5.52,6.54,7.26,10.59,1.74,4.05,2.61,8.49,2.61,13.32s-.87,9.27-2.61,13.32Zm132.02,19.62l-15.91-22c-2.01,.3-4.14,.45-6.41,.45h-18.99v21.55h-4.84v-65.87h23.83c5.57,0,10.35,.88,14.34,2.63,3.99,1.76,7.06,4.28,9.21,7.58,2.15,3.29,3.23,7.29,3.23,12s-1.08,8.52-3.23,11.81c-2.15,3.29-5.22,5.83-9.21,7.62-1.01,.45-2.07,.85-3.18,1.18l16.66,23.05h-5.51Zm129.21-61.54h-23.93v61.54h-4.84v-61.54h-23.92v-4.33h52.69v4.33Zm122.85,0h-39.59v28.14h35.41v4.33h-35.41v29.08h-4.84v-65.87h44.43v4.33Zm16.88-73.56v-6.1h-46v16.1h-4v-16.1h-9v-4h9v-33h-51v28h-4v-28h-56v-4h56v-81h4v81h51v-38h4v75h46v-45h4v45h58v4h-58v6.1h-4Zm124.35,115.48c-1.74,4.05-4.16,7.58-7.26,10.59-3.1,3.01-6.76,5.35-10.97,7.01-4.21,1.66-8.78,2.49-13.72,2.49s-9.51-.83-13.72-2.49c-4.21-1.66-7.88-4.01-11.01-7.06-3.13-3.04-5.55-6.59-7.26-10.63-1.71-4.05-2.56-8.45-2.56-13.22s.85-9.17,2.56-13.22c1.71-4.05,4.13-7.59,7.26-10.63,3.13-3.04,6.8-5.39,11.01-7.06,4.21-1.66,8.78-2.49,13.72-2.49s9.51,.83,13.72,2.49c4.21,1.66,7.86,4,10.97,7.01,3.1,3.01,5.52,6.54,7.26,10.59,1.74,4.05,2.61,8.49,2.61,13.32s-.87,9.27-2.61,13.32Zm128.98,19.62h-43.1v-65.87h4.84v61.54h38.26v4.33Zm83.74,0h-4.84v-65.87h4.84v65.87Zm149.77-19.62c-1.74,4.05-4.16,7.58-7.26,10.59-3.1,3.01-6.76,5.35-10.97,7.01-4.21,1.66-8.78,2.49-13.72,2.49s-9.51-.83-13.72-2.49c-4.21-1.66-7.88-4.01-11.01-7.06-3.13-3.04-5.55-6.59-7.26-10.63-1.71-4.05-2.56-8.45-2.56-13.22s.85-9.17,2.56-13.22c1.71-4.05,4.13-7.59,7.26-10.63,3.13-3.04,6.8-5.39,11.01-7.06,4.21-1.66,8.78-2.49,13.72-2.49s9.51,.83,13.72,2.49c4.21,1.66,7.86,4,10.97,7.01,3.1,3.01,5.52,6.54,7.26,10.59,1.74,4.05,2.61,8.49,2.61,13.32s-.87,9.27-2.61,13.32Z"/><path class="cls-1" d="M457.67,602.41c-3.7-3.11-9.13-4.66-16.28-4.66h-18.99v35.67h18.99c7.15,0,12.58-1.55,16.28-4.66s5.55-7.48,5.55-13.13-1.85-10.12-5.55-13.22Z"/></g></g></svg>