<?xml version="1.0" encoding="UTF-8"?><svg id="Laag_2" xmlns="http://www.w3.org/2000/svg" viewBox="0 0 1920 1080"><defs><style>.cls-1{fill:#fff;}</style></defs><g id="Laag_1-2"><g><path class="cls-1" d="M0,0V1080H1920V0H0ZM606.5,659.3l-8.56-18.8h-38.52l-8.53,18.8h-5.3l30.6-66.6h4.9l30.6,66.6h-5.2Zm130.1,0l-15.91-22.25c-2,.29-4.13,.45-6.39,.45h-19.1v21.8h-4.8v-66.6h23.9c5.6,0,10.4,.9,14.4,2.7s7.1,4.3,9.2,7.7c2.2,3.3,3.2,7.4,3.2,12.1s-1.1,8.6-3.2,11.9c-2.2,3.3-5.2,5.9-9.2,7.7-1.03,.46-2.11,.86-3.25,1.21l16.65,23.29h-5.5Zm89.7-21.9c1.5,3.6,3.6,6.7,6.3,9.3,2.7,2.7,5.9,4.7,9.5,6.2s7.6,2.2,11.8,2.2c3.9,0,7.5-.6,11-1.9,3.5-1.2,6.6-3.3,9.5-6.1l3,3.1c-2.9,3.1-6.4,5.4-10.5,7-4.2,1.8-8.6,2.5-13.3,2.5s-9.5-.8-13.7-2.5-7.9-4-11-7.1c-3.1-3-5.5-6.6-7.2-10.7-1.7-4.1-2.6-8.6-2.6-13.5s.9-9.4,2.6-13.5c1.7-4.1,4.1-7.7,7.3-10.7,3.1-3,6.8-5.4,11-7.1,4.2-1.7,8.8-2.5,13.7-2.5s9.1,.8,13.2,2.3c4.1,1.5,7.6,3.8,10.5,6.9l-3,3.1c-2.9-2.8-6-4.8-9.5-6s-7.1-1.9-11-1.9c-4.2,0-8.2,.7-11.8,2.2s-6.8,3.5-9.5,6.2-4.8,5.8-6.3,9.3c-1.5,3.6-2.2,7.4-2.2,11.6s.7,8.1,2.2,11.6Zm188.1,21.9h-4.9v-31.7h-44.5v31.7h-4.9v-66.6h4.9v30.6h44.5v-30.6h4.9v66.6Zm2.6-135.1h-4v-5.59c-15.34,.13-30.67,.26-46,.38v15.21h-4v-15.17c-2.99,.02-5.99,.05-8.99,.07l-.03-4c3-.02,6.01-.05,9.01-.07v-34.9c-17.01,.14-34.01,.29-51,.45v28.52h-4v-28.49c-18.32,.17-36.64,.34-54.98,.49l-.03-4c18.36-.15,36.69-.32,55.02-.49v-80.51h4v80.48c16.99-.16,33.99-.31,51-.45v-37.03h4v75.89c15.33-.12,30.66-.25,46-.38v-45.51h4v45.48c19.34-.17,38.67-.34,57.99-.48l.03,4c-19.32,.14-38.67,.31-58.01,.48v5.62Zm92.1,135.1h-4.9v-66.6h4.9v66.6Zm112.2,0h-4.7l-29.7-66.6h5.3l26.85,60.35,26.95-60.35h5l-29.7,66.6Zm153.1,0h-45.9v-66.6h44.5v4.4h-39.7v26.2h35.5v4.3h-35.5v27.3h41.1v4.4Z"/><path class="cls-1" d="M736.1,615.1c0-5.8-1.9-10.2-5.6-13.4-3.7-3.1-9.1-4.7-16.3-4.7h-19v36.2h19c7.2,0,12.6-1.6,16.3-4.8s5.6-7.6,5.6-13.3Z"/><polygon class="cls-1" points="561.29 636.4 596.08 636.4 578.65 598.11 561.29 636.4"/></g></g></svg>