<?xml version="1.0" encoding="utf-8"?>
<!-- Generator: Adobe Illustrator 27.3.1, SVG Export Plug-In . SVG Version: 6.00 Build 0)  -->
<svg version="1.1" id="Laag_1" xmlns="http://www.w3.org/2000/svg" xmlns:xlink="http://www.w3.org/1999/xlink" x="0px" y="0px"
	 viewBox="0 0 4000 4000" style="enable-background:new 0 0 4000 4000;" xml:space="preserve">
<style type="text/css">
	.st0{fill:#FFFFFF;}
</style>
<g>
	<path class="st0" d="M1074.8,2122.6c-72.3,0-137.4-17.8-195.3-53.4c-57.9-35.6-103.5-83.7-136.9-144.4
		c-33.4-60.6-50.1-129.4-50.1-206.1s16.7-145.8,50.1-207c33.4-61.2,79-109.6,136.9-145.2c57.8-35.6,122.9-53.4,195.3-53.4
		c57.8,0,111,11.1,159.4,33.4s89.3,54.2,122.7,96c33.4,41.7,54.5,91,63.4,147.7v253.7c-10,55.7-31.2,104.3-63.4,146.1
		c-32.3,41.7-72.6,74.3-121,97.6C1187.4,2110.9,1133.7,2122.6,1074.8,2122.6z M1089.8,2042.4c59,0,111-13.9,156.1-41.7
		c45.1-27.8,80.1-65.9,105.2-114.3c25-48.4,37.6-104.3,37.6-167.8c0-64.5-12.8-121-38.4-169.4s-60.9-86.5-106-114.3
		s-97.6-41.7-157.7-41.7c-59,0-111.6,13.9-157.7,41.7c-46.2,27.8-82.6,65.9-109.3,114.3s-40.1,104.3-40.1,167.7
		s13.4,119.6,40.1,168.6c26.7,49,63.4,87.4,110.2,115.2C976.3,2028.5,1029.7,2042.4,1089.8,2042.4z M1470.4,2105.9h-85.1v-208.6
		l20-190.3l-20-188.6V934.1h85.1V2105.9z"/>
	<path class="st0" d="M2077.9,2122.6c-77.9,0-147.5-17.8-208.6-53.4c-61.2-35.6-109.6-84-145.2-145.2s-53.4-130.2-53.4-207
		s17.2-145.5,51.7-206.1s82-108.8,142.7-144.4c60.6-35.6,128.2-53.4,202.8-53.4c70.1,0,132.4,15.9,186.9,47.6s97.1,75.4,127.7,131
		c30.6,55.7,45.9,120.2,45.9,193.6c0,6.7-0.6,15.3-1.7,25.9c-1.1,10.6-2.8,23.1-5,37.6h-691v-73.4h642.6l-28.4,23.4
		c2.2-61.2-7.8-114.9-30-161.1c-22.3-46.2-54.5-82.1-96.8-107.7s-92.9-38.4-151.9-38.4c-61.2,0-115.2,13.6-161.9,40.9
		c-46.7,27.3-83.2,64.8-109.3,112.7c-26.2,47.9-39.2,103.5-39.2,166.9c0,66.8,13.6,124.9,40.9,174.4s65.4,87.9,114.3,115.2
		c49,27.3,106.3,40.9,171.9,40.9c50.1,0,96.5-9.2,139.4-27.5c42.8-18.4,78.7-45.9,107.7-82.6l56.8,55.1
		c-36.7,42.3-81.8,75.4-135.2,99.3C2198.1,2110.6,2140.2,2122.6,2077.9,2122.6z"/>
	<path class="st0" d="M2974.3,2122.6c-75.7,0-143.8-18.1-204.5-54.2c-60.7-36.2-108.8-85.1-144.4-146.9
		c-35.6-61.8-53.4-130.5-53.4-206.1c0-75.7,17.8-143.8,53.4-204.5c35.6-60.6,83.7-108.8,144.4-144.4
		c60.6-35.6,128.8-53.4,204.5-53.4c56.7,0,110.2,10.6,160.2,31.7c50.1,21.1,92.9,51.2,128.5,90.1l-56.7,56.8
		c-29-31.1-63.4-55.3-103.5-72.6c-40.1-17.2-82.9-25.9-128.5-25.9c-60.1,0-113.8,14.2-161.1,42.6s-84.9,66.5-112.7,114.3
		c-27.8,47.9-41.7,102.9-41.7,165.2c0,62.3,13.9,118,41.7,166.9c27.8,49,65.4,87.9,112.7,116.8c47.3,29,101,43.4,161.1,43.4
		c46.7,0,90.4-8.6,131-25.9c40.6-17.2,75.4-42,104.3-74.3l56.7,56.8c-36.7,39-80.4,69.3-131,91S3031,2122.6,2974.3,2122.6z"/>
	<path class="st0" d="M2639.8,3048.9v-776.2h85.1v776.2H2639.8z M3222.3,3048.9v-460.7c0-75.7-22-136.9-65.9-183.6
		c-44-46.7-102.7-70.1-176.1-70.1c-50.1,0-94.3,10.8-132.7,32.5s-68.4,51.5-90.1,89.3c-21.7,37.8-32.5,81.8-32.5,131.9l-43.4-25
		c0-59,13.9-111.6,41.7-157.7c27.8-46.2,65.9-82.6,114.3-109.3c48.4-26.7,102.7-40.1,162.7-40.1c61.2,0,114.9,14.2,161.1,42.6
		c46.2,28.4,82.1,67.1,107.7,116c25.6,49,38.4,103.5,38.4,163.6V3049L3222.3,3048.9L3222.3,3048.9z"/>
	<path class="st0" d="M692.5,2347.9v-75.1h2032.4v75.1H692.5z M1385.4,3048.9v-851.3h85.1v851.3H1385.4z"/>
	<path class="st0" d="M2324.4,2498.1c25.4,46.6,38.1,99.5,38.1,158.6c0,62.3-13.6,118.2-40.9,167.7
		c-27.3,49.5-64.6,88.8-111.8,117.7c-47.3,29-101,43.4-161.1,43.4c-59,0-112.1-14.5-159.4-43.4s-84.9-67.9-112.7-116.8
		c-27.8-49-41.7-104.6-41.7-166.9c0-60.1,13-113.6,38.9-160.2h-94.5c-20.8,49-31.2,102.4-31.2,160.2c0,75.7,17.8,144.4,53.4,206.1
		c35.6,61.8,83.7,110.7,144.4,146.9c60.6,36.2,128.2,54.2,202.8,54.2c75.7,0,143.8-18.1,204.5-54.2
		c60.6-36.2,108.7-84.8,144.4-146.1c35.6-61.2,53.4-130.2,53.4-207c0-57.8-10.4-111.2-31.2-160.2H2324.4z"/>
</g>
</svg>
