<?xml version="1.0" encoding="utf-8"?>
<!-- Generator: Adobe Illustrator 27.3.1, SVG Export Plug-In . SVG Version: 6.00 Build 0)  -->
<svg version="1.1" id="Laag_1" xmlns="http://www.w3.org/2000/svg" xmlns:xlink="http://www.w3.org/1999/xlink" x="0px" y="0px"
	 viewBox="0 0 750 500" style="enable-background:new 0 0 750 500;" xml:space="preserve">
<style type="text/css">
	.st0{fill:#1D1D1B;}
</style>
<g>
	<g>
		<path class="st0" d="M133.1,352.6c-2.6,0-4.9-0.6-7-1.9c-2-1.3-3.6-2.9-4.8-5.1c-1.2-2.1-1.8-4.5-1.8-7.2c0-2.7,0.6-5.2,1.8-7.3
			c1.2-2.1,2.8-3.8,4.9-5.1s4.4-1.9,6.9-1.9c2,0,3.8,0.4,5.6,1.1c1.7,0.7,3.2,1.8,4.5,3.3c1.3,1.4,2.1,3.1,2.5,5.2v9.3
			c-0.5,1.9-1.3,3.6-2.5,5.1c-1.2,1.4-2.7,2.6-4.4,3.3C137,352.2,135.1,352.6,133.1,352.6z M133.4,350.9c2.3,0,4.2-0.5,6-1.6
			c1.7-1.1,3.1-2.5,4-4.4c1-1.9,1.5-4,1.5-6.4c0-2.5-0.5-4.7-1.5-6.6s-2.4-3.3-4.1-4.4c-1.7-1.1-3.8-1.6-6.1-1.6
			c-2.3,0-4.3,0.5-6.1,1.6c-1.8,1.1-3.2,2.5-4.2,4.4c-1,1.9-1.6,4-1.6,6.5c0,2.4,0.5,4.6,1.6,6.5c1,1.9,2.4,3.4,4.3,4.4
			C129,350.4,131.1,350.9,133.4,350.9z M146.6,352.1h-1.8v-7.3l0.6-6.8l-0.6-6.6v-20.6h1.8V352.1z"/>
		<path class="st0" d="M170.1,352.6c-2.7,0-5.2-0.6-7.3-1.9c-2.1-1.3-3.8-3-5.1-5.1c-1.3-2.1-1.9-4.6-1.9-7.3c0-2.7,0.6-5.1,1.8-7.2
			c1.2-2.1,2.9-3.8,5-5.1c2.1-1.3,4.5-1.9,7.2-1.9c2.4,0,4.6,0.5,6.5,1.6c1.9,1.1,3.3,2.6,4.4,4.5c1.1,1.9,1.6,4.2,1.6,6.7
			c0,0.1,0,0.4,0,0.7c0,0.3-0.1,0.8-0.1,1.3h-25v-1.7h23.8l-0.5,0.4c0.1-2.3-0.2-4.4-1.1-6.2c-0.9-1.8-2.1-3.2-3.8-4.2
			c-1.6-1-3.6-1.5-5.8-1.5c-2.4,0-4.5,0.5-6.3,1.6c-1.8,1-3.2,2.5-4.2,4.3c-1,1.8-1.5,4-1.5,6.4c0,2.5,0.5,4.7,1.6,6.7
			c1,1.9,2.5,3.4,4.4,4.4c1.9,1.1,4.1,1.6,6.7,1.6c1.9,0,3.6-0.4,5.2-1.1c1.6-0.7,3-1.8,4.1-3.2l1.3,1.3c-1.2,1.5-2.8,2.6-4.7,3.5
			C174.4,352.2,172.3,352.6,170.1,352.6z"/>
		<path class="st0" d="M203.5,352.6c-2.7,0-5-0.6-7.2-1.9c-2.1-1.3-3.8-3-5-5.2c-1.3-2.2-1.9-4.6-1.9-7.3c0-2.7,0.6-5,1.9-7.2
			c1.3-2.1,2.9-3.8,5-5.1c2.1-1.3,4.5-1.9,7.2-1.9c2,0,3.8,0.4,5.5,1.1c1.7,0.7,3.2,1.8,4.4,3.1l-1.3,1.3c-1.1-1.1-2.4-2.1-3.8-2.7
			c-1.5-0.7-3.1-1-4.9-1c-2.3,0-4.4,0.5-6.2,1.6c-1.8,1.1-3.3,2.6-4.4,4.4c-1.1,1.9-1.6,4-1.6,6.4c0,2.4,0.5,4.6,1.6,6.5
			c1.1,1.9,2.5,3.4,4.4,4.5c1.8,1.1,3.9,1.7,6.2,1.7c1.8,0,3.4-0.3,5-1s2.8-1.6,3.9-2.8l1.3,1.3c-1.3,1.3-2.8,2.4-4.5,3.1
			C207.4,352.3,205.5,352.6,203.5,352.6z"/>
		<path class="st0" d="M233.9,352.6c-2.7,0-5-0.6-7.2-1.9c-2.1-1.3-3.8-3-5-5.2c-1.3-2.2-1.9-4.6-1.9-7.3c0-2.7,0.6-5,1.9-7.2
			c1.3-2.1,2.9-3.8,5-5.1c2.1-1.3,4.5-1.9,7.2-1.9c2.6,0,5,0.6,7.1,1.9c2.1,1.3,3.8,2.9,5,5.1c1.3,2.1,1.9,4.5,1.9,7.2
			c0,2.7-0.6,5.2-1.9,7.3c-1.3,2.1-2.9,3.9-5,5.1C238.9,352,236.5,352.6,233.9,352.6z M233.9,350.9c2.3,0,4.4-0.6,6.2-1.7
			c1.8-1.1,3.3-2.6,4.3-4.5c1.1-1.9,1.6-4.1,1.6-6.5c0-2.3-0.5-4.4-1.6-6.3c-1.1-1.8-2.5-3.3-4.3-4.4c-1.8-1.1-3.9-1.6-6.2-1.6
			s-4.4,0.5-6.2,1.6c-1.8,1.1-3.3,2.6-4.4,4.4c-1.1,1.9-1.6,4-1.6,6.4c0,2.4,0.5,4.6,1.6,6.5c1.1,1.9,2.5,3.4,4.4,4.5
			C229.5,350.4,231.6,350.9,233.9,350.9z"/>
		<path class="st0" d="M257.1,352.1v-27.3h1.8v27.3H257.1z M258.9,335.4l-1.3-0.4c0-3.5,0.9-6.2,2.8-8c1.8-1.9,4.1-2.8,6.9-2.8
			c1.3,0,2.6,0.2,3.8,0.7c1.2,0.5,2.2,1.2,3.2,2.3l-1.3,1.4c-0.8-0.9-1.7-1.6-2.7-2c-1-0.4-2.1-0.6-3.3-0.6c-2.4,0-4.4,0.8-5.9,2.5
			C259.7,330,258.9,332.4,258.9,335.4z"/>
		<path class="st0" d="M292.5,352.6c-2.7,0-5.1-0.6-7.2-1.9c-2.1-1.3-3.8-2.9-5-5.1c-1.2-2.1-1.8-4.5-1.8-7.2s0.6-5.1,1.8-7.3
			c1.2-2.1,2.9-3.9,5-5.1c2.1-1.3,4.5-1.9,7.1-1.9c2.1,0,4,0.4,5.7,1.2c1.7,0.8,3.1,1.9,4.2,3.3c1.1,1.4,1.9,3.1,2.3,5.1v9.3
			c-0.5,2-1.3,3.7-2.4,5.1c-1.1,1.4-2.5,2.6-4.1,3.3C296.4,352.3,294.6,352.6,292.5,352.6z M292.8,350.9c3.4,0,6.1-1.1,8.1-3.4
			c2-2.3,3-5.3,3-9c0-2.5-0.5-4.7-1.4-6.6c-0.9-1.9-2.2-3.3-3.9-4.4c-1.7-1-3.7-1.6-5.9-1.6c-2.4,0-4.5,0.5-6.3,1.6
			c-1.8,1.1-3.3,2.6-4.4,4.4c-1.1,1.9-1.6,4-1.6,6.4c0,2.4,0.5,4.6,1.6,6.4s2.5,3.4,4.4,4.4C288.3,350.4,290.4,350.9,292.8,350.9z
			 M303.9,352.1v-7.3l0.5-6.8l-0.5-6.6v-6.7h1.8v27.3H303.9z"/>
		<path class="st0" d="M313.3,326.4v-1.6h16.3v1.6H313.3z M320.5,352.1v-38.9h1.8v38.9H320.5z"/>
		<path class="st0" d="M338.5,317.9c-0.5,0-1-0.2-1.3-0.6c-0.4-0.4-0.5-0.8-0.5-1.4c0-0.6,0.2-1,0.5-1.4c0.4-0.4,0.8-0.5,1.3-0.5
			c0.6,0,1,0.2,1.4,0.5c0.4,0.4,0.6,0.8,0.6,1.4c0,0.5-0.2,1-0.6,1.4C339.5,317.8,339.1,317.9,338.5,317.9z M337.6,352.1v-27.3h1.8
			v27.3H337.6z"/>
		<path class="st0" d="M363,352.6c-2.7,0-5.2-0.6-7.3-1.9c-2.1-1.3-3.8-3-5.1-5.1c-1.3-2.1-1.9-4.6-1.9-7.3c0-2.7,0.6-5.1,1.8-7.2
			c1.2-2.1,2.9-3.8,5-5.1c2.1-1.3,4.5-1.9,7.2-1.9c2.4,0,4.6,0.5,6.5,1.6s3.3,2.6,4.4,4.5c1.1,1.9,1.6,4.2,1.6,6.7
			c0,0.1,0,0.4,0,0.7c0,0.3-0.1,0.8-0.1,1.3h-25v-1.7h23.8l-0.5,0.4c0.1-2.3-0.2-4.4-1.1-6.2c-0.9-1.8-2.1-3.2-3.8-4.2
			c-1.6-1-3.6-1.5-5.8-1.5c-2.4,0-4.5,0.5-6.3,1.6c-1.8,1-3.2,2.5-4.2,4.3c-1,1.8-1.5,4-1.5,6.4c0,2.5,0.5,4.7,1.6,6.7
			c1,1.9,2.5,3.4,4.4,4.4s4.1,1.6,6.7,1.6c1.9,0,3.6-0.4,5.2-1.1c1.6-0.7,3-1.8,4.1-3.2l1.3,1.3c-1.2,1.5-2.8,2.6-4.7,3.5
			C367.3,352.2,365.2,352.6,363,352.6z"/>
		<path class="st0" d="M409.7,352.6c-2.1,0-4-0.5-5.7-1.5c-1.7-1-3-2.4-3.9-4.2c-1-1.8-1.4-3.9-1.4-6.3v-15.9h1.8v15.8
			c0,2,0.4,3.8,1.2,5.4c0.8,1.6,1.8,2.8,3.3,3.7c1.4,0.9,3,1.3,4.8,1.3c2.8,0,5-1,6.7-2.9c1.7-1.9,2.6-4.4,2.6-7.5v-15.8h1.8v15.9
			c0,2.3-0.5,4.4-1.4,6.2c-1,1.8-2.3,3.2-3.9,4.2C413.8,352.1,411.9,352.6,409.7,352.6z"/>
		<path class="st0" d="M432,317.9c-0.5,0-1-0.2-1.3-0.6c-0.4-0.4-0.5-0.8-0.5-1.4c0-0.6,0.2-1,0.5-1.4c0.4-0.4,0.8-0.5,1.3-0.5
			c0.6,0,1,0.2,1.4,0.5c0.4,0.4,0.6,0.8,0.6,1.4c0,0.5-0.2,1-0.6,1.4C433,317.8,432.6,317.9,432,317.9z M431.1,352.1v-27.3h1.8v27.3
			H431.1z"/>
		<path class="st0" d="M441.1,326.4v-1.6h16.3v1.6H441.1z M448.3,352.1v-38.9h1.8v38.9H448.3z"/>
		<path class="st0" d="M480.5,352.1v-41.3h1.8v20.6l-0.6,6.6l0.6,6.8v7.3H480.5z M494.1,352.6c-2.1,0-3.9-0.4-5.7-1.2
			c-1.7-0.8-3.2-1.9-4.4-3.3c-1.2-1.4-2.1-3.1-2.5-5.1v-9.3c0.5-2,1.3-3.7,2.6-5.2c1.2-1.4,2.7-2.5,4.4-3.3c1.7-0.7,3.6-1.1,5.6-1.1
			c2.6,0,4.9,0.6,7,1.9c2,1.3,3.6,3,4.8,5.1c1.2,2.1,1.8,4.6,1.8,7.3c0,2.7-0.6,5.1-1.8,7.2c-1.2,2.1-2.8,3.8-4.8,5.1
			C499.1,352,496.7,352.6,494.1,352.6z M493.8,350.9c2.4,0,4.5-0.5,6.3-1.6c1.8-1.1,3.2-2.6,4.2-4.4c1-1.9,1.6-4.1,1.6-6.5
			c0-2.4-0.5-4.6-1.6-6.5c-1-1.9-2.4-3.3-4.2-4.4c-1.8-1.1-3.8-1.6-6.1-1.6s-4.3,0.5-6.1,1.6c-1.7,1.1-3.1,2.5-4.1,4.4
			c-1,1.9-1.5,4.1-1.5,6.6c0,2.4,0.5,4.6,1.5,6.4c1,1.9,2.3,3.3,4,4.4C489.5,350.4,491.5,350.9,493.8,350.9z"/>
		<path class="st0" d="M529.5,352.6c-2.7,0-5.2-0.6-7.3-1.9c-2.1-1.3-3.8-3-5.1-5.1c-1.3-2.1-1.9-4.6-1.9-7.3c0-2.7,0.6-5.1,1.8-7.2
			c1.2-2.1,2.9-3.8,5-5.1c2.1-1.3,4.5-1.9,7.2-1.9c2.4,0,4.6,0.5,6.5,1.6s3.3,2.6,4.4,4.5c1.1,1.9,1.6,4.2,1.6,6.7
			c0,0.1,0,0.4,0,0.7c0,0.3-0.1,0.8-0.1,1.3h-25v-1.7h23.8l-0.5,0.4c0.1-2.3-0.2-4.4-1.1-6.2c-0.9-1.8-2.1-3.2-3.8-4.2
			c-1.6-1-3.6-1.5-5.8-1.5c-2.4,0-4.5,0.5-6.3,1.6c-1.8,1-3.2,2.5-4.2,4.3c-1,1.8-1.5,4-1.5,6.4c0,2.5,0.5,4.7,1.6,6.7
			c1,1.9,2.5,3.4,4.4,4.4c1.9,1.1,4.1,1.6,6.7,1.6c1.9,0,3.6-0.4,5.2-1.1c1.6-0.7,3-1.8,4.1-3.2l1.3,1.3c-1.2,1.5-2.8,2.6-4.7,3.5
			C533.7,352.2,531.7,352.6,529.5,352.6z"/>
		<path class="st0" d="M546.4,326.4v-1.6h16.3v1.6H546.4z M553.6,352.1v-38.9h1.8v38.9H553.6z"/>
		<path class="st0" d="M581.8,352.6c-2.7,0-5-0.6-7.2-1.9c-2.1-1.3-3.8-3-5-5.2c-1.3-2.2-1.9-4.6-1.9-7.3c0-2.7,0.6-5,1.9-7.2
			c1.3-2.1,2.9-3.8,5-5.1c2.1-1.3,4.5-1.9,7.2-1.9c2.6,0,5,0.6,7.1,1.9c2.1,1.3,3.8,2.9,5,5.1c1.3,2.1,1.9,4.5,1.9,7.2
			c0,2.7-0.6,5.2-1.9,7.3c-1.3,2.1-2.9,3.9-5,5.1C586.7,352,584.4,352.6,581.8,352.6z M581.8,350.9c2.3,0,4.4-0.6,6.2-1.7
			s3.3-2.6,4.3-4.5s1.6-4.1,1.6-6.5c0-2.3-0.5-4.4-1.6-6.3c-1.1-1.8-2.5-3.3-4.3-4.4c-1.8-1.1-3.9-1.6-6.2-1.6s-4.4,0.5-6.2,1.6
			c-1.8,1.1-3.3,2.6-4.4,4.4c-1.1,1.9-1.6,4-1.6,6.4c0,2.4,0.5,4.6,1.6,6.5c1.1,1.9,2.5,3.4,4.4,4.5
			C577.4,350.4,579.5,350.9,581.8,350.9z"/>
		<path class="st0" d="M605,352.1v-27.3h1.8v27.3H605z M626.1,352.1v-16.3c0-3-0.9-5.4-2.6-7.2c-1.7-1.8-4-2.7-6.8-2.7
			c-1.9,0-3.6,0.4-5.1,1.3c-1.5,0.9-2.7,2-3.5,3.5c-0.9,1.5-1.3,3.2-1.3,5.1l-1.3-0.7c0-2.1,0.5-3.9,1.5-5.5c1-1.6,2.4-2.9,4.1-3.8
			c1.7-1,3.7-1.4,5.8-1.4c2.2,0,4.1,0.5,5.7,1.5c1.6,1,2.9,2.4,3.8,4.1c0.9,1.7,1.4,3.7,1.4,6v16.3L626.1,352.1L626.1,352.1z"/>
	</g>
	<g>
		<path class="st0" d="M129.7,287.8c-8.6,0-16.2-2.1-23.1-6.3c-6.8-4.2-12.2-9.9-16.2-17.1c-3.9-7.2-5.9-15.3-5.9-24.4
			c0-9.1,2-17.2,5.9-24.5c3.9-7.2,9.3-12.9,16.2-17.1c6.8-4.2,14.5-6.3,23.1-6.3c6.8,0,13.1,1.3,18.8,3.9
			c5.7,2.6,10.6,6.4,14.5,11.3c3.9,4.9,6.4,10.7,7.5,17.4v30c-1.2,6.6-3.7,12.3-7.5,17.3c-3.8,4.9-8.6,8.8-14.3,11.5
			C143,286.4,136.7,287.8,129.7,287.8z M131.5,278.3c7,0,13.1-1.6,18.4-4.9c5.3-3.3,9.5-7.8,12.4-13.5c3-5.7,4.4-12.3,4.4-19.8
			c0-7.6-1.5-14.3-4.5-20c-3-5.7-7.2-10.2-12.5-13.5c-5.3-3.3-11.5-4.9-18.6-4.9c-7,0-13.2,1.6-18.6,4.9c-5.5,3.3-9.8,7.8-12.9,13.5
			c-3.2,5.7-4.7,12.3-4.7,19.8c0,7.5,1.6,14.1,4.7,19.9c3.2,5.8,7.5,10.3,13,13.6C118.1,276.6,124.4,278.3,131.5,278.3z
			 M176.4,285.8h-10v-24.6l2.4-22.5l-2.4-22.3v-69h10V285.8z"/>
		<path class="st0" d="M248.2,287.8c-9.2,0-17.4-2.1-24.6-6.3c-7.2-4.2-12.9-9.9-17.1-17.1s-6.3-15.4-6.3-24.5
			c0-9.1,2-17.2,6.1-24.4c4.1-7.2,9.7-12.9,16.9-17.1c7.2-4.2,15.1-6.3,24-6.3c8.3,0,15.6,1.9,22.1,5.6c6.4,3.8,11.5,8.9,15.1,15.5
			c3.6,6.6,5.4,14.2,5.4,22.9c0,0.8-0.1,1.8-0.2,3.1c-0.1,1.3-0.3,2.7-0.6,4.4h-81.6v-8.7h75.9l-3.3,2.8c0.3-7.2-0.9-13.6-3.5-19
			c-2.6-5.5-6.4-9.7-11.4-12.7c-5-3-11-4.5-18-4.5c-7.2,0-13.6,1.6-19.1,4.8s-9.8,7.7-12.9,13.3c-3.1,5.7-4.6,12.2-4.6,19.7
			c0,7.9,1.6,14.8,4.8,20.6c3.2,5.8,7.7,10.4,13.5,13.6c5.8,3.2,12.6,4.8,20.3,4.8c5.9,0,11.4-1.1,16.5-3.3
			c5.1-2.2,9.3-5.4,12.7-9.8l6.7,6.5c-4.3,5-9.7,8.9-16,11.7C262.4,286.3,255.6,287.8,248.2,287.8z"/>
		<path class="st0" d="M354.1,287.8c-8.9,0-17-2.1-24.2-6.4c-7.2-4.3-12.9-10-17.1-17.4c-4.2-7.3-6.3-15.4-6.3-24.4
			c0-8.9,2.1-17,6.3-24.2c4.2-7.2,9.9-12.9,17.1-17.1c7.2-4.2,15.2-6.3,24.2-6.3c6.7,0,13,1.3,18.9,3.8c5.9,2.5,11,6.1,15.2,10.6
			l-6.7,6.7c-3.4-3.7-7.5-6.5-12.2-8.6s-9.8-3.1-15.2-3.1c-7.1,0-13.4,1.7-19,5s-10,7.9-13.3,13.5c-3.3,5.7-4.9,12.2-4.9,19.5
			s1.6,13.9,4.9,19.7c3.3,5.8,7.7,10.4,13.3,13.8c5.6,3.4,11.9,5.1,19,5.1c5.5,0,10.7-1,15.5-3.1c4.8-2,8.9-5,12.3-8.8l6.7,6.7
			c-4.3,4.6-9.5,8.2-15.5,10.7C367.1,286.5,360.8,287.8,354.1,287.8z"/>
		<path class="st0" d="M586.6,285.8v-91.7h10v91.7H586.6z M655.4,285.8v-54.4c0-8.9-2.6-16.2-7.8-21.7c-5.2-5.5-12.1-8.3-20.8-8.3
			c-5.9,0-11.1,1.3-15.7,3.8c-4.5,2.6-8.1,6.1-10.6,10.6c-2.6,4.5-3.8,9.7-3.8,15.6l-5.1-3c0-7,1.6-13.2,4.9-18.6
			c3.3-5.5,7.8-9.8,13.5-12.9c5.7-3.2,12.1-4.7,19.2-4.7c7.2,0,13.6,1.7,19,5c5.5,3.3,9.7,7.9,12.7,13.7c3,5.8,4.5,12.2,4.5,19.3
			v55.6L655.4,285.8L655.4,285.8z"/>
		<path class="st0" d="M400.1,202.9v-8.9h196.6v8.9H400.1z M423.7,285.8V155.2h10v130.5H423.7z"/>
		<path class="st0" d="M548.1,220.5c3.1,5.6,4.6,11.9,4.6,18.9c0,7.4-1.6,14-4.8,19.8c-3.2,5.8-7.6,10.5-13.2,13.9
			c-5.6,3.4-11.9,5.1-19,5.1c-7,0-13.2-1.7-18.8-5.1c-5.6-3.4-10-8-13.3-13.8c-3.3-5.8-4.9-12.3-4.9-19.7c0-7.2,1.6-13.6,4.7-19.1
			H472c-2.5,5.8-3.8,12.2-3.8,19.1c0,8.9,2.1,17.1,6.3,24.4c4.2,7.3,9.9,13.1,17.1,17.4c7.2,4.3,15.1,6.4,24,6.4
			c8.9,0,17-2.1,24.2-6.4c7.2-4.3,12.9-10,17.1-17.3c4.2-7.2,6.3-15.4,6.3-24.5c0-6.9-1.3-13.3-3.8-19.1L548.1,220.5L548.1,220.5z"
			/>
	</g>
</g>
</svg>
