<?xml version="1.0" encoding="utf-8"?>
<!-- Generator: Adobe Illustrator 27.0.0, SVG Export Plug-In . SVG Version: 6.00 Build 0)  -->
<svg version="1.1" id="Laag_1" xmlns="http://www.w3.org/2000/svg" xmlns:xlink="http://www.w3.org/1999/xlink" x="0px" y="0px"
	 viewBox="0 0 1920 1920" style="enable-background:new 0 0 1920 1920;" xml:space="preserve">
<style type="text/css">
	.st0{font-family:'Montserrat-Regular';}
	.st1{font-size:229.3245px;}
	.st2{font-family:'Montserrat-Light';}
	.st3{font-size:44.2136px;}
	.st4{fill:#FFFFFF;}
</style>
<text transform="matrix(1 0 0 1 89.0371 1260.6689)" class="st0 st1">LANAKEN CITY</text>
<text transform="matrix(1 0 0 1 448.0752 1339.4102)" class="st2 st3">Waar het beste van Laoneke naar boven komt.</text>
<path d="M1112.57,849.48 M1122.17,849.4 M1124.83,864v122.58l-1.33,1.33h-9.6l-1.33-1.33V862.5l2.66-0.28v123.04h6.93V861.94
	L1124.83,864z M1122.17,846.4v-36.47h-6.93v39.48l-2.66,0.06V808.6l1.33-1.33h9.6l1.33,1.33v41.03L1122.17,846.4z M1115.23,862.22"
	/>
<path d="M1123.5,816.91h-9.6l-1.33-1.33v-6.98l1.33-1.33h9.6l1.33,1.33v6.98L1123.5,816.91z M1115.23,814.25h6.93v-4.32h-6.93
	V814.25z"/>
<path d="M387.03,1009.9h-2.66v-17.98h-28.64l-1.33-1.33V830.01l-3.52-2.92l-0.48-1.03v-45.63l-3.42-5.66h-4.74l-1.1-0.59l-3.35-4.96
	l-2.24,3.59l-2.46-0.71v-30.26l-2.11,4.82l-1.22,0.8h-6.66l-1.23-0.83l-10.15-25.09c-1.57,3.56-3.16,7.38-4.7,11.11
	c-1.97,4.76-4.01,9.68-6.02,14.04l-1.21,0.77h-6.66l-1.33-1.33v-13.27l-2.8-25.62l-3.42,25.64v13.25l-1.33,1.33h-5.48l-1.33-1.33
	v-78.17L268.06,655l-0.25-0.78v-85.26l0.59-1.11l1.41-0.94v-4.66l0.4-0.95l2.93-2.9v-2.11h-3.38l-0.99-0.44l-13.27-14.65l-0.31-0.61
	l-20.68-94.62l-20.68,94.62l-0.31,0.61l-13.27,14.65l-0.99,0.44h-3.38v2.11l2.93,2.9l0.4,0.95v4.66l1.41,0.94l0.59,1.11v85.26
	l-0.25,0.78l-9.36,12.97v78.17l-1.33,1.33h-5.48l-1.33-1.33v-13.25l-3.42-25.64l-2.8,25.62v13.27l-1.33,1.33h-6.66l-1.21-0.77
	c-2.01-4.35-4.05-9.28-6.02-14.04c-1.54-3.73-3.12-7.55-4.7-11.11l-10.15,25.09l-1.23,0.83h-6.66l-1.22-0.8l-2.11-4.82v30.26
	l-2.46,0.71l-2.24-3.59l-3.35,4.96l-1.1,0.59h-4.74l-3.42,5.66v45.63l-0.48,1.03l-3.52,2.92v160.57l-1.33,1.33H84.64v17.98h-2.66
	v-19.32l1.33-1.33h28.64V829.38l0.48-1.03l3.52-2.92v-45.38l0.19-0.69l4-6.62l1.14-0.64h4.78l4.1-6.07l2.23,0.04l0.87,1.39v-31.99
	l2.55-0.53l4.31,9.86h4.89L156,717.66l2.44-0.06c2.01,4.35,4.05,9.28,6.02,14.04c1.84,4.45,3.75,9.05,5.62,13.16h4.47l0.01-12.15
	l4-36.61l2.64-0.03l4.9,36.79v12.01h2.82v-77.26l0.25-0.78l9.36-12.97v-84.11l-1.41-0.94l-0.59-1.11v-4.81l-2.93-2.9l-0.4-0.95v-4
	l1.33-1.33h4.12l12.64-13.95l21.9-100.23h2.6l21.9,100.23l12.64,13.95h4.12l1.33,1.33v4l-0.4,0.95l-2.93,2.9v4.81l-0.59,1.11
	l-1.41,0.94v84.11l9.36,12.97l0.25,0.78v77.26h2.82l0.01-12.18L287.8,696l2.64,0.03l4,36.76v12.01h4.47
	c1.87-4.11,3.78-8.71,5.62-13.16c1.97-4.76,4.01-9.68,6.02-14.04l2.44,0.06l10.99,27.14h4.89l4.31-9.86l2.55,0.53v31.99l0.87-1.39
	l2.23-0.04l4.1,6.07h4.78l1.14,0.64l4,6.62l0.19,0.69v45.38l3.52,2.92l0.48,1.03v159.87h28.64l1.33,1.33V1009.9z"/>
<path d="M227.53,646.89l-0.69-73.58l0-0.11c0.27-3.59-0.79-7.09-2.83-9.35c-1.03-1.14-2.23-1.84-3.21-1.87
	c-1.01-0.03-2.3,0.64-3.43,1.79c-2.19,2.24-3.39,5.78-3.2,9.47l0,0.07v79.26h-2.66v-79.23c-0.22-4.47,1.22-8.63,3.95-11.43
	c1.66-1.7,3.64-2.63,5.41-2.59c1.74,0.05,3.56,1.03,5.11,2.75c2.54,2.82,3.82,6.93,3.51,11.28l0.69,73.53L227.53,646.89z"/>
<path d="M256.17,652.57l-0.69-79.26l0-0.11c0.27-3.59-0.79-7.09-2.83-9.35c-1.03-1.14-2.23-1.84-3.21-1.87
	c-1.02-0.03-2.3,0.64-3.43,1.79c-2.19,2.24-3.39,5.78-3.2,9.47l0,0.07v73.58h-2.66v-73.55c-0.22-4.47,1.22-8.63,3.95-11.43
	c1.66-1.7,3.63-2.63,5.41-2.59c1.74,0.05,3.56,1.03,5.11,2.75c2.54,2.82,3.82,6.93,3.51,11.28l0.69,79.21L256.17,652.57z"/>
<path d="M234.83,686.52c-7.35,0-13.32-5.98-13.32-13.32c0-7.35,5.98-13.32,13.32-13.32c7.35,0,13.32,5.98,13.32,13.32
	C248.16,680.55,242.18,686.52,234.83,686.52z M234.83,662.54c-5.88,0-10.66,4.78-10.66,10.66c0,5.88,4.78,10.66,10.66,10.66
	s10.66-4.78,10.66-10.66C245.49,667.33,240.71,662.54,234.83,662.54z"/>
<rect x="233.5" y="665.55" width="2.66" height="8.98"/>
<rect x="233.4" y="670.87" transform="matrix(0.9806 -0.1961 0.1961 0.9806 -127.187 60.097)" width="12.85" height="2.66"/>
<path d="M260.48,989.91h-7.99l-1.33-1.33v-75.93h-32.64v75.93l-1.33,1.33h-7.26l-1.33-1.33V798.35l0-0.1
	c0.34-4.28,1.86-12.62,8.23-20.32c6.24-7.53,13.95-10.59,17.99-11.75l0.87,0.05c4.88,2,11.83,6.02,17.23,13.79
	c4.71,6.77,6.27,13.63,6.74,18.2l0.01,0.12l2.15,190.24L260.48,989.91z M253.82,987.25h5.31L257,798.42
	c-0.45-4.25-1.91-10.62-6.27-16.89c-4.88-7.01-11.11-10.74-15.63-12.67c-3.84,1.16-10.67,4.05-16.22,10.76
	c-5.88,7.1-7.3,14.79-7.62,18.78v188.85h4.6v-75.93l1.33-1.33h35.3l1.33,1.33V987.25z"/>
<path d="M247.84,901.77l-0.02-1.33c-0.2-17.5-0.4-33.34-0.59-49.18c-0.2-15.82-0.39-31.64-0.59-49.12
	c-0.24-2.28-1.03-5.67-3.36-9.02c-2.54-3.65-5.77-5.64-8.17-6.7c-2.09,0.66-5.59,2.22-8.46,5.68c-3.13,3.78-3.9,7.87-4.07,10.01
	v99.64h-2.66l0-99.8c0.19-2.44,1.06-7.17,4.68-11.55c3.54-4.28,7.93-6.02,10.23-6.68l0.87,0.05c2.77,1.14,6.71,3.42,9.78,7.82
	c2.67,3.84,3.56,7.74,3.83,10.33l0.01,0.12c0.2,17.5,0.4,33.34,0.59,49.18c0.2,15.84,0.4,31.68,0.59,49.18l0.01,1.33L247.84,901.77z
	"/>
<path d="M171.18,917.99l-1.2-102.96c-0.24-2.28-1.03-5.67-3.36-9.02c-2.54-3.65-5.77-5.64-8.17-6.7c-2.09,0.66-5.59,2.22-8.46,5.68
	c-3.13,3.78-3.9,7.87-4.07,10.01v102.97h-2.66l0-103.13c0.19-2.44,1.06-7.17,4.68-11.55c3.54-4.28,7.93-6.02,10.23-6.68l0.87,0.05
	c2.77,1.14,6.71,3.42,9.78,7.82c2.67,3.84,3.56,7.74,3.83,10.33l0.01,0.12l1.2,103.03L171.18,917.99z"/>
<path d="M325.04,917.99l-1.2-102.96c-0.24-2.28-1.03-5.67-3.36-9.02c-2.54-3.65-5.77-5.64-8.17-6.7c-2.09,0.66-5.59,2.22-8.46,5.68
	c-3.13,3.78-3.9,7.87-4.07,10.01v102.97h-2.66l0-103.13c0.19-2.44,1.06-7.17,4.68-11.55c3.54-4.28,7.93-6.02,10.23-6.68l0.87,0.05
	c2.77,1.14,6.71,3.42,9.78,7.82c2.67,3.84,3.56,7.74,3.83,10.33l0.01,0.12l1.2,103.03L325.04,917.99z"/>
<polygon points="1015.28,1009.9 997.49,1009.9 996.16,1008.56 996.16,850.04 433.46,850.04 433.46,1008.56 432.13,1009.9 
	414.34,1009.9 414.34,1007.23 430.79,1007.23 430.79,848.71 432.13,847.38 997.49,847.38 998.82,848.71 998.82,1007.23 
	1015.28,1007.23 "/>
<rect x="451.95" y="866.18" width="2.66" height="143.71"/>
<rect x="451.95" y="866.18" width="2.66" height="143.71"/>
<path d="M445.05,938.21h-1.33v-2.66h1.33c35.95,0,70.87,0,105.79-0.01c34.92,0,69.84-0.01,105.79-0.01h1.33v2.66h-1.33
	c-35.95,0-70.87,0-105.79,0.01C515.92,938.2,480.99,938.21,445.05,938.21z"/>
<rect x="473.7" y="866.18" width="2.66" height="143.71"/>
<rect x="495.44" y="866.18" width="2.66" height="143.71"/>
<rect x="517.19" y="866.18" width="2.66" height="143.71"/>
<rect x="538.93" y="866.18" width="2.66" height="143.71"/>
<rect x="560.67" y="866.18" width="2.66" height="143.71"/>
<rect x="582.42" y="866.18" width="2.66" height="143.71"/>
<rect x="604.16" y="866.18" width="2.66" height="143.71"/>
<rect x="625.91" y="866.18" width="2.66" height="143.71"/>
<rect x="647.65" y="866.18" width="2.66" height="143.71"/>
<rect x="674.96" y="945.45" width="2.66" height="64.45"/>
<rect x="758.22" y="945.45" width="2.66" height="64.45"/>
<polygon points="760.88,913.98 758.22,913.98 758.22,868.85 677.63,868.85 677.63,913.98 674.96,913.98 674.96,867.52 
	676.29,866.18 759.55,866.18 760.88,867.52 "/>
<rect x="785.18" y="866.18" width="2.66" height="143.71"/>
<rect x="785.18" y="866.18" width="2.66" height="143.71"/>
<path d="M778.27,938.21h-1.33v-2.66h1.33c35.95,0,70.87,0,105.79-0.01c34.92,0,69.84-0.01,105.79-0.01h1.33v2.66h-1.33
	c-35.95,0-70.87,0-105.79,0.01C849.14,938.2,814.22,938.21,778.27,938.21z"/>
<rect x="806.92" y="866.18" width="2.66" height="143.71"/>
<rect x="828.67" y="866.18" width="2.66" height="143.71"/>
<rect x="850.41" y="866.18" width="2.66" height="143.71"/>
<rect x="872.15" y="866.18" width="2.66" height="143.71"/>
<rect x="893.9" y="866.18" width="2.66" height="143.71"/>
<rect x="915.64" y="866.18" width="2.66" height="143.71"/>
<rect x="937.39" y="866.18" width="2.66" height="143.71"/>
<rect x="959.13" y="866.18" width="2.66" height="143.71"/>
<rect x="980.88" y="866.18" width="2.66" height="143.71"/>
<path d="M759.47,939.37h-82.87l-1.33-1.33v-18.81l1.33-1.33h82.87l1.33,1.33v18.81L759.47,939.37z M677.94,936.71h80.2v-16.14h-80.2
	V936.71z"/>
<rect x="430.32" y="1023.22" width="388.98" height="2.66"/>
<rect x="473.62" y="1029.88" width="345.69" height="2.66"/>
<polygon points="819.3,1039.21 817.97,1039.2 513.58,1038.53 513.58,1035.87 514.92,1035.87 819.31,1036.54 "/>
<rect x="562.87" y="1043.2" width="256.43" height="2.66"/>
<rect x="607.5" y="1049.86" width="211.81" height="2.66"/>
<rect x="384.37" y="1007.23" width="32.64" height="2.66"/>
<rect x="52" y="1007.23" class="st4" width="32.64" height="2.66"/>
<polygon points="1191.97,1009.9 1189.3,1009.9 1189.3,993.91 1048.76,993.91 1048.76,1009.9 1046.1,1009.9 1046.1,992.58 
	1047.43,991.25 1190.63,991.25 1191.97,992.58 "/>
<path d="M1194.63,993.91h-151.2l-1.33-1.33v-5.99l1.33-1.33h151.2l1.33,1.33v5.99L1194.63,993.91z M1044.77,991.25h148.53v-3.33
	h-148.53V991.25z"/>
<path d="M1102.99,987.94l-1.76-115.62c-0.26-7.22-2.74-32.22-23.94-49.59c-14.03-11.49-29.59-14.04-37.63-14.53l-1.25-1.33v-8.77
	l1.35-1.33c9.41,0.16,27.7,2.34,44.41,15.15c27.73,21.26,29.28,54.75,29.31,61.25l1.77,113.87l-2.66,0.04l-1.77-113.88
	c-0.03-6.29-1.52-38.66-28.27-59.16c-15.33-11.76-32.07-14.22-41.48-14.56v6.16c8.65,0.7,23.99,3.65,37.9,15.04
	c22.07,18.08,24.65,44.06,24.92,51.59l1.77,115.65L1102.99,987.94z"/>
<path d="M1134.41,987.94l-2.66-0.04l1.76-115.62c0.27-7.56,2.85-33.53,24.92-51.61c13.91-11.4,29.25-14.34,37.9-15.04v-6.16
	c-9.41,0.34-26.15,2.81-41.48,14.56c-26.74,20.51-28.24,52.87-28.27,59.15l-1.77,113.89l-2.66-0.04l1.77-113.88
	c0.03-6.48,1.58-39.97,29.31-61.24c16.71-12.81,35-14.99,44.41-15.15l1.35,1.33v8.77l-1.25,1.33c-8.03,0.49-23.6,3.04-37.63,14.53
	c-21.2,17.37-23.69,42.37-23.94,49.62L1134.41,987.94z"/>
<g>
	<path d="M1126.5,866.32l-7.47-5.2l-7.47,5.2l-2.04-1.48l2.64-8.71l-7.25-5.5l0.78-2.39l9.1-0.19l2.99-8.6h2.52l2.99,8.6l9.1,0.19
		l0.78,2.39l-7.25,5.5l2.64,8.71L1126.5,866.32z M1118.27,858.4h1.52l5.09,3.54l-1.79-5.93l0.47-1.45l4.94-3.74l-6.2-0.13l-1.23-0.9
		l-2.04-5.85l-2.04,5.85l-1.23,0.9l-6.2,0.13l4.94,3.74l0.47,1.45l-1.79,5.93L1118.27,858.4z"/>
</g>
<g>
	<path d="M1096.66,866.91l-5.93-5l-5.93,5l-2.15-1.34l2.2-8.83l-6.01-5.52l0.87-2.31l7.3-0.18l2.45-8.53h2.56l2.45,8.53l7.3,0.18
		l0.87,2.31l-6.01,5.52l2.2,8.83L1096.66,866.91z M1089.87,859.14h1.72l3.64,3.07l-1.4-5.6l0.39-1.3l4.17-3.83l-4.98-0.12
		l-1.25-0.96l-1.44-5.01l-1.44,5.01l-1.25,0.96l-4.98,0.12l4.17,3.83l0.39,1.3l-1.4,5.6L1089.87,859.14z"/>
</g>
<g>
	<path d="M1070.16,866.52l-2.5-0.78l1.05-9.21l-2.82-5.71l1.12-1.92l2.65-0.14l1.09-8.38h2.64l1.09,8.38l2.66,0.14l1.12,1.92
		l-2.82,5.71l1.04,9.21l-2.5,0.78l-1.91-3.55L1070.16,866.52z M1071.05,859.53h2.05l-0.35-3.09l0.13-0.74l2.1-4.25l-1.74-0.09
		l-1.16-1.08l-1.16,1.08l-1.74,0.09l2.1,4.25l0.13,0.74L1071.05,859.53z"/>
</g>
<g>
	<path d="M1152.61,866.91l-5.93-5l-5.93,5l-2.15-1.34l2.2-8.83l-6.01-5.52l0.87-2.31l7.3-0.18l2.45-8.53h2.56l2.45,8.53l7.3,0.18
		l0.87,2.31l-6.01,5.52l2.2,8.83L1152.61,866.91z M1145.81,859.14h1.72l3.64,3.07l-1.4-5.6l0.39-1.3l4.17-3.83l-4.98-0.12
		l-1.25-0.96l-1.44-5.01l-1.44,5.01l-1.25,0.96l-4.98,0.12l4.17,3.83l0.39,1.3l-1.4,5.6L1145.81,859.14z"/>
</g>
<g>
	<path d="M1167.24,866.52l-1.91-3.55l-1.91,3.55l-2.5-0.78l1.04-9.21l-2.82-5.71l1.12-1.92l2.66-0.14l1.09-8.38h2.64l1.09,8.38
		l2.65,0.14l1.12,1.92l-2.82,5.71l1.05,9.21L1167.24,866.52z M1162.42,851.45l2.1,4.25l0.13,0.74l-0.35,3.09h2.05l-0.35-3.09
		l0.13-0.74l2.1-4.25l-1.74-0.09l-1.16-1.08l-1.16,1.08L1162.42,851.45z"/>
</g>
<rect x="1012.46" y="1007.23" width="35.97" height="2.66"/>
<polygon points="1252.91,1009.23 1250.25,1009.23 1250.25,863.19 1239.24,850.24 1240.26,848.04 1252.42,848.04 1344.54,753.2 
	1345.49,752.8 1402.77,752.8 1402.77,755.46 1346.06,755.46 1253.94,850.3 1252.98,850.71 1243.14,850.71 1252.59,861.83 
	1252.91,862.7 "/>
<rect x="1411.43" y="752.8" width="256.43" height="2.66"/>
<polygon points="1828.64,1009.23 1825.97,1009.23 1825.97,862.7 1826.29,861.83 1835.75,850.71 1825.9,850.71 1824.95,850.3 
	1732.83,755.46 1675.86,755.46 1675.86,752.8 1733.39,752.8 1734.35,753.2 1826.47,848.04 1838.63,848.04 1839.64,850.24 
	1828.64,863.19 "/>
<path d="M1639.18,850.71h-198.2l-1.1-2.08c22.58-33.27,60.04-53.14,100.2-53.14c40.16,0,77.61,19.86,100.2,53.14L1639.18,850.71z
	 M1443.53,848.04h193.1c-22.22-31.29-58.12-49.89-96.55-49.89C1501.65,798.16,1465.75,816.76,1443.53,848.04z"/>
<path d="M1294.21,911.32h-21.31l-1.33-1.33v-29.97l1.33-1.33h21.31l1.33,1.33v29.97L1294.21,911.32z M1274.22,908.65h18.65v-27.31
	h-18.65V908.65z"/>
<path d="M1297.54,881.35h-27.97l-1.33-1.33v-4.66l1.33-1.33h27.97l1.33,1.33v4.66L1297.54,881.35z M1270.89,878.68h25.31v-2h-25.31
	V878.68z"/>
<path d="M1335.5,911.32h-21.31l-1.33-1.33v-29.97l1.33-1.33h21.31l1.33,1.33v29.97L1335.5,911.32z M1315.52,908.65h18.65v-27.31
	h-18.65V908.65z"/>
<path d="M1338.83,881.35h-27.97l-1.33-1.33v-4.66l1.33-1.33h27.97l1.33,1.33v4.66L1338.83,881.35z M1312.19,878.68h25.31v-2h-25.31
	V878.68z"/>
<path d="M1376.8,911.32h-21.31l-1.33-1.33v-29.97l1.33-1.33h21.31l1.33,1.33v29.97L1376.8,911.32z M1356.82,908.65h18.65v-27.31
	h-18.65V908.65z"/>
<path d="M1380.13,881.35h-27.97l-1.33-1.33v-4.66l1.33-1.33h27.97l1.33,1.33v4.66L1380.13,881.35z M1353.49,878.68h25.31v-2h-25.31
	V878.68z"/>
<path d="M1418.09,911.32h-21.31l-1.33-1.33v-29.97l1.33-1.33h21.31l1.33,1.33v29.97L1418.09,911.32z M1398.11,908.65h18.65v-27.31
	h-18.65V908.65z"/>
<path d="M1421.42,881.35h-27.97l-1.33-1.33v-4.66l1.33-1.33h27.97l1.33,1.33v4.66L1421.42,881.35z M1394.78,878.68h25.31v-2h-25.31
	V878.68z"/>
<path d="M1294.21,979.26h-21.31l-1.33-1.33V931.3l1.33-1.33h21.31l1.33,1.33v46.62L1294.21,979.26z M1274.22,976.59h18.65v-43.96
	h-18.65V976.59z"/>
<path d="M1297.54,932.63h-27.97l-1.33-1.33v-4.66l1.33-1.33h27.97l1.33,1.33v4.66L1297.54,932.63z M1270.89,929.97h25.31v-2h-25.31
	V929.97z"/>
<path d="M1335.5,979.26h-21.31l-1.33-1.33V931.3l1.33-1.33h21.31l1.33,1.33v46.62L1335.5,979.26z M1315.52,976.59h18.65v-43.96
	h-18.65V976.59z"/>
<path d="M1338.83,932.63h-27.97l-1.33-1.33v-4.66l1.33-1.33h27.97l1.33,1.33v4.66L1338.83,932.63z M1312.19,929.97h25.31v-2h-25.31
	V929.97z"/>
<path d="M1376.8,979.26h-21.31l-1.33-1.33V931.3l1.33-1.33h21.31l1.33,1.33v46.62L1376.8,979.26z M1356.82,976.59h18.65v-43.96
	h-18.65V976.59z"/>
<path d="M1380.13,932.63h-27.97l-1.33-1.33v-4.66l1.33-1.33h27.97l1.33,1.33v4.66L1380.13,932.63z M1353.49,929.97h25.31v-2h-25.31
	V929.97z"/>
<path d="M1418.09,979.26h-21.31l-1.33-1.33V931.3l1.33-1.33h21.31l1.33,1.33v46.62L1418.09,979.26z M1398.11,976.59h18.65v-43.96
	h-18.65V976.59z"/>
<path d="M1421.42,932.63h-27.97l-1.33-1.33v-4.66l1.33-1.33h27.97l1.33,1.33v4.66L1421.42,932.63z M1394.78,929.97h25.31v-2h-25.31
	V929.97z"/>
<path d="M1685.18,911.32h-21.31l-1.33-1.33v-29.97l1.33-1.33h21.31l1.33,1.33v29.97L1685.18,911.32z M1665.2,908.65h18.65v-27.31
	h-18.65V908.65z"/>
<path d="M1688.52,881.35h-27.97l-1.33-1.33v-4.66l1.33-1.33h27.97l1.33,1.33v4.66L1688.52,881.35z M1661.87,878.68h25.31v-2h-25.31
	V878.68z"/>
<path d="M1726.48,911.32h-21.31l-1.33-1.33v-29.97l1.33-1.33h21.31l1.33,1.33v29.97L1726.48,911.32z M1706.5,908.65h18.65v-27.31
	h-18.65V908.65z"/>
<path d="M1729.81,881.35h-27.97l-1.33-1.33v-4.66l1.33-1.33h27.97l1.33,1.33v4.66L1729.81,881.35z M1703.17,878.68h25.31v-2h-25.31
	V878.68z"/>
<path d="M1767.78,911.32h-21.31l-1.33-1.33v-29.97l1.33-1.33h21.31l1.33,1.33v29.97L1767.78,911.32z M1747.79,908.65h18.65v-27.31
	h-18.65V908.65z"/>
<path d="M1771.11,881.35h-27.97l-1.33-1.33v-4.66l1.33-1.33h27.97l1.33,1.33v4.66L1771.11,881.35z M1744.46,878.68h25.31v-2h-25.31
	V878.68z"/>
<path d="M1809.07,911.32h-21.31l-1.33-1.33v-29.97l1.33-1.33h21.31l1.33,1.33v29.97L1809.07,911.32z M1789.09,908.65h18.65v-27.31
	h-18.65V908.65z"/>
<path d="M1812.4,881.35h-27.97l-1.33-1.33v-4.66l1.33-1.33h27.97l1.33,1.33v4.66L1812.4,881.35z M1785.76,878.68h25.31v-2h-25.31
	V878.68z"/>
<path d="M1506.32,912.65h-22.95l-1.33-1.33v-32.28l1.33-1.33h22.95l1.33,1.33v32.28L1506.32,912.65z M1484.7,909.99h20.29v-29.61
	h-20.29V909.99z"/>
<path d="M1509.91,880.37h-30.13l-1.33-1.33v-5.02l1.33-1.33h30.13l1.33,1.33v5.02L1509.91,880.37z M1481.11,877.71h27.46v-2.36
	h-27.46V877.71z"/>
<path d="M1550.79,912.65h-22.95l-1.33-1.33v-32.28l1.33-1.33h22.95l1.33,1.33v32.28L1550.79,912.65z M1529.17,909.99h20.29v-29.61
	h-20.29V909.99z"/>
<path d="M1554.38,880.37h-30.13l-1.33-1.33v-5.02l1.33-1.33h30.13l1.33,1.33v5.02L1554.38,880.37z M1525.59,877.71h27.46v-2.36
	h-27.46V877.71z"/>
<path d="M1595.27,912.65h-22.95l-1.33-1.33v-32.28l1.33-1.33h22.95l1.33,1.33v32.28L1595.27,912.65z M1573.64,909.99h20.29v-29.61
	h-20.29V909.99z"/>
<path d="M1598.85,880.37h-30.13l-1.33-1.33v-5.02l1.33-1.33h30.13l1.33,1.33v5.02L1598.85,880.37z M1570.06,877.71h27.46v-2.36
	h-27.46V877.71z"/>
<path d="M1685.18,979.26h-21.31l-1.33-1.33V931.3l1.33-1.33h21.31l1.33,1.33v46.62L1685.18,979.26z M1665.2,976.59h18.65v-43.96
	h-18.65V976.59z"/>
<path d="M1688.52,932.63h-27.97l-1.33-1.33v-4.66l1.33-1.33h27.97l1.33,1.33v4.66L1688.52,932.63z M1661.87,929.97h25.31v-2h-25.31
	V929.97z"/>
<path d="M1726.48,979.26h-21.31l-1.33-1.33V931.3l1.33-1.33h21.31l1.33,1.33v46.62L1726.48,979.26z M1706.5,976.59h18.65v-43.96
	h-18.65V976.59z"/>
<path d="M1729.81,932.63h-27.97l-1.33-1.33v-4.66l1.33-1.33h27.97l1.33,1.33v4.66L1729.81,932.63z M1703.17,929.97h25.31v-2h-25.31
	V929.97z"/>
<path d="M1767.78,979.26h-21.31l-1.33-1.33V931.3l1.33-1.33h21.31l1.33,1.33v46.62L1767.78,979.26z M1747.79,976.59h18.65v-43.96
	h-18.65V976.59z"/>
<path d="M1771.11,932.63h-27.97l-1.33-1.33v-4.66l1.33-1.33h27.97l1.33,1.33v4.66L1771.11,932.63z M1744.46,929.97h25.31v-2h-25.31
	V929.97z"/>
<path d="M1809.07,979.26h-21.31l-1.33-1.33V931.3l1.33-1.33h21.31l1.33,1.33v46.62L1809.07,979.26z M1789.09,976.59h18.65v-43.96
	h-18.65V976.59z"/>
<path d="M1812.4,932.63h-27.97l-1.33-1.33v-4.66l1.33-1.33h27.97l1.33,1.33v4.66L1812.4,932.63z M1785.76,929.97h25.31v-2h-25.31
	V929.97z"/>
<path d="M1550.79,989.91h-22.95l-1.33-1.33v-45.29l0.15-0.15c0.08-6.91,5.73-12.5,12.65-12.5s12.57,5.59,12.65,12.5l0.15,0.15v45.29
	L1550.79,989.91z M1529.17,987.25h20.29v-43.81l-0.15-0.15c0-5.51-4.48-9.99-9.99-9.99s-9.99,4.48-9.99,9.99l-0.15,0.15V987.25z
	 M1551.97,943.29L1551.97,943.29L1551.97,943.29z"/>
<path d="M1595.42,989.91h-22.95l-1.33-1.33v-45.29l0.15-0.15c0.08-6.91,5.73-12.5,12.65-12.5c6.93,0,12.57,5.59,12.65,12.5
	l0.15,0.15v45.29L1595.42,989.91z M1573.8,987.25h20.29v-43.81l-0.15-0.15c0-5.51-4.48-9.99-9.99-9.99c-5.51,0-9.99,4.48-9.99,9.99
	l-0.15,0.15V987.25z M1596.6,943.29L1596.6,943.29L1596.6,943.29z"/>
<path d="M1506.17,989.91h-22.95l-1.33-1.33v-45.29l0.15-0.15c0.08-6.91,5.73-12.5,12.65-12.5c6.93,0,12.57,5.59,12.65,12.5
	l0.15,0.15v45.29L1506.17,989.91z M1484.55,987.25h20.29v-43.81l-0.15-0.15c0-5.51-4.48-9.99-9.99-9.99c-5.51,0-9.99,4.48-9.99,9.99
	l-0.15,0.15V987.25z M1507.35,943.29L1507.35,943.29L1507.35,943.29z"/>
<rect x="1479.37" y="993.24" width="119.89" height="2.66"/>
<rect x="1468.05" y="999.24" width="142.54" height="2.66"/>
<rect x="1458.72" y="1005.23" width="161.19" height="2.66"/>
<polygon points="1307.53,795.42 1304.86,795.42 1304.86,743.84 1302.5,740.99 1302.39,739.46 1304.39,736.12 1305.53,735.48 
	1320.86,735.48 1321.81,735.87 1324.46,738.54 1324.45,740.42 1322.18,742.69 1322.18,780.1 1319.52,780.1 1319.52,742.14 
	1319.91,741.2 1321.63,739.47 1320.31,738.14 1306.28,738.14 1305.16,740.02 1307.22,742.51 1307.53,743.36 "/>
<polygon points="1774.02,795.42 1771.36,795.42 1771.36,743.36 1771.66,742.51 1773.73,740.02 1772.6,738.14 1758.57,738.14 
	1757.25,739.47 1758.98,741.2 1759.37,742.14 1759.37,780.1 1756.7,780.1 1756.7,742.69 1754.43,740.42 1754.43,738.54 
	1757.08,735.87 1758.02,735.48 1773.35,735.48 1774.5,736.12 1776.5,739.46 1776.38,740.99 1774.02,743.84 "/>
<polygon points="1678.52,762.79 1675.86,762.79 1675.86,731.48 1676,730.89 1676.37,730.15 1667.36,730.15 1667.73,730.88 
	1667.87,731.47 1667.87,762.79 1665.2,762.79 1665.2,731.79 1664.01,729.41 1665.2,727.49 1678.52,727.49 1679.72,729.41 
	1678.52,731.8 "/>
<polygon points="1411.02,762.79 1411.02,731.47 1411.16,730.88 1411.52,730.15 1402.51,730.15 1402.88,730.89 1403.02,731.48 
	1403.02,762.79 1400.36,762.79 1400.36,731.8 1399.17,729.41 1400.36,727.49 1413.68,727.49 1414.87,729.41 1413.68,731.79 
	1413.68,762.79 "/>
<path d="M1350.16,790.76h-2.66v-1.33c0-1.84-1.49-3.33-3.33-3.33c-1.84,0-3.33,1.49-3.33,3.33v1.33h-2.66v-1.33
	c0-3.31,2.69-5.99,5.99-5.99c3.31,0,5.99,2.69,5.99,5.99V790.76z"/>
<path d="M1740.72,790.76h-2.66v-1.33c0-1.84-1.49-3.33-3.33-3.33s-3.33,1.49-3.33,3.33v1.33h-2.66v-1.33c0-3.31,2.69-5.99,5.99-5.99
	s5.99,2.69,5.99,5.99V790.76z"/>
<path d="M1428.27,790.76h-2.66v-1.33c0-1.84-1.49-3.33-3.33-3.33s-3.33,1.49-3.33,3.33v1.33h-2.66v-1.33c0-3.31,2.69-5.99,5.99-5.99
	c3.31,0,5.99,2.69,5.99,5.99V790.76z"/>
<path d="M1506.38,790.76h-2.66v-1.33c0-1.84-1.49-3.33-3.33-3.33c-1.84,0-3.33,1.49-3.33,3.33v1.33h-2.66v-1.33
	c0-3.31,2.69-5.99,5.99-5.99c3.31,0,5.99,2.69,5.99,5.99V790.76z"/>
<path d="M1584.49,790.76h-2.66v-1.33c0-1.84-1.49-3.33-3.33-3.33c-1.84,0-3.33,1.49-3.33,3.33v1.33h-2.66v-1.33
	c0-3.31,2.69-5.99,5.99-5.99c3.31,0,5.99,2.69,5.99,5.99V790.76z"/>
<path d="M1662.61,790.76h-2.66v-1.33c0-1.84-1.49-3.33-3.33-3.33s-3.33,1.49-3.33,3.33v1.33h-2.66v-1.33c0-3.31,2.69-5.99,5.99-5.99
	c3.31,0,5.99,2.69,5.99,5.99V790.76z"/>
<path d="M1287.55,844.71c-4.41,0-7.99-3.59-7.99-7.99c0-4.41,3.59-7.99,7.99-7.99s7.99,3.59,7.99,7.99
	C1295.54,841.13,1291.95,844.71,1287.55,844.71z M1287.55,831.39c-2.94,0-5.33,2.39-5.33,5.33c0,2.94,2.39,5.33,5.33,5.33
	s5.33-2.39,5.33-5.33C1292.87,833.78,1290.48,831.39,1287.55,831.39z"/>
<path d="M1370.36,844.71c-4.41,0-7.99-3.59-7.99-7.99c0-4.41,3.59-7.99,7.99-7.99s7.99,3.59,7.99,7.99
	C1378.35,841.13,1374.77,844.71,1370.36,844.71z M1370.36,831.39c-2.94,0-5.33,2.39-5.33,5.33c0,2.94,2.39,5.33,5.33,5.33
	s5.33-2.39,5.33-5.33C1375.69,833.78,1373.3,831.39,1370.36,831.39z"/>
<path d="M1340.16,846.04h-22.42l-1.09-2.1l4.43-6.29v-6.6h-5.12v-1.33c0-7.16,5.83-12.99,12.99-12.99s12.99,5.83,12.99,12.99v1.33
	h-5.12v6.6l4.43,6.29L1340.16,846.04z M1331.08,843.38h6.52l-3.19-4.54l-0.24-0.77v-8.35l1.33-1.33h3.7
	c-0.66-5.07-5-8.99-10.24-8.99s-9.58,3.93-10.24,8.99h3.7l1.33,1.33v8.35l-0.24,0.77l-3.19,4.54H1331.08z"/>
<path d="M1422.76,846.04h-22.42l-1.09-2.1l4.43-6.29v-6.6h-5.12v-1.33c0-7.16,5.83-12.99,12.99-12.99c7.16,0,12.99,5.83,12.99,12.99
	v1.33h-5.12v6.6l4.43,6.29L1422.76,846.04z M1413.67,843.38h6.52l-3.19-4.54l-0.24-0.77v-8.35l1.33-1.33h3.7
	c-0.66-5.07-5-8.99-10.24-8.99s-9.58,3.93-10.24,8.99h3.7l1.33,1.33v8.35l-0.24,0.77l-3.19,4.54H1413.67z"/>
<path d="M1678.52,846.04h-22.42l-1.09-2.1l4.43-6.29v-6.6h-5.12v-1.33c0-7.16,5.83-12.99,12.99-12.99c7.16,0,12.99,5.83,12.99,12.99
	v1.33h-5.12v6.6l4.43,6.29L1678.52,846.04z M1669.44,843.38h6.52l-3.19-4.54l-0.24-0.77v-8.35l1.33-1.33h3.7
	c-0.66-5.07-5-8.99-10.24-8.99s-9.58,3.93-10.24,8.99h3.7l1.33,1.33v8.35l-0.24,0.77l-3.19,4.54H1669.44z"/>
<path d="M1761.12,846.04h-22.42l-1.09-2.1l4.43-6.29v-6.6h-5.12v-1.33c0-7.16,5.83-12.99,12.99-12.99s12.99,5.83,12.99,12.99v1.33
	h-5.12v6.6l4.43,6.29L1761.12,846.04z M1752.03,843.38h6.52l-3.19-4.54l-0.24-0.77v-8.35l1.33-1.33h3.7
	c-0.66-5.07-5-8.99-10.24-8.99s-9.58,3.93-10.24,8.99h3.7l1.33,1.33v8.35l-0.24,0.77l-3.19,4.54H1752.03z"/>
<path d="M1791.34,844.71c-4.41,0-7.99-3.59-7.99-7.99c0-4.41,3.59-7.99,7.99-7.99c4.41,0,7.99,3.59,7.99,7.99
	C1799.33,841.13,1795.75,844.71,1791.34,844.71z M1791.34,831.39c-2.94,0-5.33,2.39-5.33,5.33c0,2.94,2.39,5.33,5.33,5.33
	c2.94,0,5.33-2.39,5.33-5.33C1796.67,833.78,1794.28,831.39,1791.34,831.39z"/>
<path d="M1708.52,844.71c-4.41,0-7.99-3.59-7.99-7.99c0-4.41,3.59-7.99,7.99-7.99s7.99,3.59,7.99,7.99
	C1716.52,841.13,1712.93,844.71,1708.52,844.71z M1708.52,831.39c-2.94,0-5.33,2.39-5.33,5.33c0,2.94,2.39,5.33,5.33,5.33
	s5.33-2.39,5.33-5.33C1713.85,833.78,1711.46,831.39,1708.52,831.39z"/>
<rect x="1189.63" y="1007.23" width="63.28" height="2.66"/>
<rect x="1825.72" y="1007.23" width="46.28" height="2.66"/>
<rect x="1076" y="849" width="6" height="3"/>
<rect x="1075" y="861" width="10" height="3"/>
<rect x="1101" y="849" width="8" height="3"/>
<rect x="1129" y="849" width="8" height="3"/>
<rect x="1156" y="849" width="6" height="3"/>
<rect x="1152" y="861" width="10" height="3"/>
<rect x="1097" y="861" width="15" height="3"/>
<rect x="1126" y="861" width="15" height="3"/>
</svg>
