<?xml version="1.0" encoding="utf-8"?>
<!-- Generator: Adobe Illustrator 27.6.1, SVG Export Plug-In . SVG Version: 6.00 Build 0)  -->
<svg version="1.1" id="Laag_1" xmlns="http://www.w3.org/2000/svg" xmlns:xlink="http://www.w3.org/1999/xlink" x="0px" y="0px"
	 viewBox="0 0 1920 1920" style="enable-background:new 0 0 1920 1920;" xml:space="preserve">
<style type="text/css">
	.st0{enable-background:new    ;}
	.st1{fill:#FFFFFF;}
</style>
<g class="st0">
	<path d="M115.2,1100.1h17V1246H222v14.7H115.2V1100.1z"/>
	<path d="M351.4,1217.8h-89.4l-19.3,42.9H225l73.4-160.5h16.7l73.4,160.5h-17.9L351.4,1217.8z M345.2,1204l-38.5-86.2l-38.5,86.2
		H345.2z"/>
	<path d="M549.3,1100.1v160.5h-14l-103.2-130.3v130.3h-17v-160.5h14l103.4,130.3v-130.3H549.3z"/>
	<path d="M702.2,1217.8h-89.4l-19.3,42.9h-17.7l73.4-160.5H666l73.4,160.5h-17.9L702.2,1217.8z M696.1,1204l-38.5-86.2L619,1204
		H696.1z"/>
	<path d="M815.8,1185.2l-32.8,33.3v42.2h-17v-160.5h17v97l94.3-97h19.5l-69.5,72.7l74.3,87.8h-20.2L815.8,1185.2z"/>
	<path d="M1042.6,1246v14.7H929v-160.5h110.1v14.7H946v57.1h83v14.4h-83v59.6H1042.6z"/>
	<path d="M1216.6,1100.1v160.5h-14l-103.2-130.3v130.3h-17v-160.5h14l103.4,130.3v-130.3H1216.6z"/>
	<path d="M1314.8,1180.4c0-47,35.8-81.6,84.2-81.6c23.4,0,44.5,7.8,58.7,23.4l-10.8,10.8c-13.1-13.3-29.1-19-47.5-19
		c-38.8,0-67.9,28.4-67.9,66.5c0,38.1,29.1,66.5,67.9,66.5c18.3,0,34.4-5.7,47.5-19.3l10.8,10.8c-14.2,15.6-35.3,23.6-58.9,23.6
		C1350.5,1262,1314.8,1227.4,1314.8,1180.4z"/>
	<path d="M1493.9,1100.1h17v160.5h-17V1100.1z"/>
	<path d="M1594.3,1114.8h-56.4v-14.7h129.8v14.7h-56.4v145.9h-17V1114.8z"/>
	<path d="M1748.6,1205.2v55.5h-16.7v-55.5l-64.2-105h18.1l55,90.1l55-90.1h17L1748.6,1205.2z"/>
</g>
<g class="st0">
	<path d="M494.9,1308.5l-10.5,31H482l-9.6-27.8l-9.6,27.8h-2.4l-10.5-31h2.4l9.4,27.9l9.7-27.9h2.2l9.6,27.9l9.5-27.9H494.9z"/>
	<path d="M515.5,1324.8v14.6h-2.1v-4.1c-1.5,2.7-4.3,4.3-8.3,4.3c-5.2,0-8.3-2.7-8.3-6.6c0-3.5,2.2-6.5,8.6-6.5h7.9v-1.9
		c0-4.3-2.3-6.6-6.9-6.6c-3.2,0-6.1,1.2-8,2.9l-1.1-1.6c2.3-2,5.7-3.3,9.2-3.3C512.4,1316.2,515.5,1319.1,515.5,1324.8z
		 M513.3,1332.6v-4.3h-7.9c-4.8,0-6.5,2-6.5,4.6c0,3,2.3,4.9,6.4,4.9C509.3,1337.8,512,1335.9,513.3,1332.6z"/>
	<path d="M541.3,1324.8v14.6h-2.1v-4.1c-1.5,2.7-4.3,4.3-8.3,4.3c-5.2,0-8.3-2.7-8.3-6.6c0-3.5,2.2-6.5,8.6-6.5h7.9v-1.9
		c0-4.3-2.3-6.6-6.9-6.6c-3.2,0-6.1,1.2-8,2.9l-1.1-1.6c2.3-2,5.7-3.3,9.2-3.3C538.1,1316.2,541.3,1319.1,541.3,1324.8z
		 M539.1,1332.6v-4.3h-7.9c-4.8,0-6.5,2-6.5,4.6c0,3,2.3,4.9,6.4,4.9C535.1,1337.8,537.8,1335.9,539.1,1332.6z"/>
	<path d="M561.4,1316.2v2.2c-0.2,0-0.4,0-0.5,0c-5.1,0-8.2,3.4-8.2,9.1v12h-2.2v-23.1h2.1v5C554,1318,557,1316.2,561.4,1316.2z"/>
	<path d="M599.9,1325.9v13.5h-2.2v-13.3c0-5.2-2.8-8-7.5-8c-5.4,0-8.8,3.5-8.8,9v12.3h-2.2v-32.8h2.2v14.5c1.6-3.1,4.8-5,9.1-5
		C596.1,1316.2,599.9,1319.5,599.9,1325.9z"/>
	<path d="M628.5,1328.4h-19.9c0.2,5.5,4.2,9.2,9.8,9.2c2.9,0,5.6-1.1,7.4-3.2l1.3,1.5c-2,2.5-5.2,3.8-8.7,3.8
		c-7,0-11.9-4.9-11.9-11.7c0-6.9,4.7-11.7,11.1-11.7c6.3,0,11,4.8,11,11.6C628.6,1328,628.5,1328.2,628.5,1328.4z M608.7,1326.7
		h17.7c-0.3-5-3.9-8.6-8.8-8.6C612.6,1318.1,609.1,1321.6,608.7,1326.7z"/>
	<path d="M646.9,1338c-1.1,1.1-3,1.6-4.7,1.6c-4.1,0-6.3-2.4-6.3-6.3v-15.1h-4.2v-1.9h4.2v-5h2.2v5h7.3v1.9h-7.3v14.9
		c0,3,1.5,4.6,4.3,4.6c1.4,0,2.7-0.4,3.6-1.3L646.9,1338z"/>
	<path d="M687.4,1327.9c0,6.9-4.9,11.7-11.4,11.7c-4.2,0-7.6-2.1-9.5-5.6v5.4h-2.1v-32.8h2.2v15c1.9-3.4,5.3-5.4,9.4-5.4
		C682.5,1316.2,687.4,1320.9,687.4,1327.9z M685.1,1327.9c0-5.8-4-9.7-9.3-9.7c-5.3,0-9.3,3.9-9.3,9.7c0,5.8,4,9.7,9.3,9.7
		C681.1,1337.6,685.1,1333.7,685.1,1327.9z"/>
	<path d="M713.7,1328.4h-19.9c0.2,5.5,4.2,9.2,9.8,9.2c2.9,0,5.6-1.1,7.4-3.2l1.3,1.5c-2,2.5-5.2,3.8-8.7,3.8
		c-7,0-11.9-4.9-11.9-11.7c0-6.9,4.7-11.7,11.1-11.7c6.3,0,11,4.8,11,11.6C713.8,1328,713.7,1328.2,713.7,1328.4z M693.9,1326.7
		h17.7c-0.3-5-3.9-8.6-8.8-8.6C697.8,1318.1,694.3,1321.6,693.9,1326.7z"/>
	<path d="M717.2,1336.6l1-1.8c1.8,1.5,4.9,2.8,8.3,2.8c4.9,0,6.8-1.7,6.8-4.3c0-6.7-15.3-1.8-15.3-10.8c0-3.5,2.9-6.3,8.8-6.3
		c2.9,0,6.1,0.9,7.9,2.3l-1,1.8c-1.9-1.4-4.5-2.1-6.9-2.1c-4.5,0-6.5,1.9-6.5,4.3c0,6.9,15.3,2,15.3,10.8c0,3.8-3.2,6.3-9.1,6.3
		C722.6,1339.6,719,1338.3,717.2,1336.6z"/>
	<path d="M753.2,1338c-1.1,1.1-3,1.6-4.7,1.6c-4.1,0-6.3-2.4-6.3-6.3v-15.1h-4.2v-1.9h4.2v-5h2.2v5h7.3v1.9h-7.3v14.9
		c0,3,1.5,4.6,4.3,4.6c1.4,0,2.7-0.4,3.6-1.3L753.2,1338z"/>
	<path d="M778,1328.4h-19.9c0.2,5.5,4.2,9.2,9.8,9.2c2.9,0,5.6-1.1,7.4-3.2l1.3,1.5c-2,2.5-5.2,3.8-8.7,3.8c-7,0-11.9-4.9-11.9-11.7
		c0-6.9,4.7-11.7,11.1-11.7c6.3,0,11,4.8,11,11.6C778,1328,778,1328.2,778,1328.4z M758.2,1326.7h17.7c-0.3-5-3.9-8.6-8.8-8.6
		C762.1,1318.1,758.5,1321.6,758.2,1326.7z"/>
	<path d="M814.8,1316.3l-10.4,23.1h-2.3l-10.4-23.1h2.3l9.2,20.7l9.3-20.7H814.8z"/>
	<path d="M835.6,1324.8v14.6h-2.1v-4.1c-1.5,2.7-4.3,4.3-8.3,4.3c-5.2,0-8.3-2.7-8.3-6.6c0-3.5,2.2-6.5,8.6-6.5h7.9v-1.9
		c0-4.3-2.3-6.6-6.9-6.6c-3.2,0-6.1,1.2-8,2.9l-1.1-1.6c2.3-2,5.7-3.3,9.2-3.3C832.4,1316.2,835.6,1319.1,835.6,1324.8z
		 M833.3,1332.6v-4.3h-7.9c-4.8,0-6.5,2-6.5,4.6c0,3,2.3,4.9,6.4,4.9C829.3,1337.8,832,1335.9,833.3,1332.6z"/>
	<path d="M865.3,1325.9v13.5h-2.2v-13.3c0-5.2-2.8-8-7.5-8c-5.4,0-8.8,3.5-8.8,9v12.3h-2.2v-23.1h2.1v5c1.5-3.2,4.8-5.2,9.2-5.2
		C861.6,1316.2,865.3,1319.5,865.3,1325.9z"/>
	<path d="M886.5,1308.5h2.3v28.9h17.8v2h-20.1V1308.5z"/>
	<path d="M928.4,1324.8v14.6h-2.1v-4.1c-1.5,2.7-4.3,4.3-8.3,4.3c-5.2,0-8.3-2.7-8.3-6.6c0-3.5,2.2-6.5,8.6-6.5h7.9v-1.9
		c0-4.3-2.3-6.6-6.9-6.6c-3.2,0-6.1,1.2-8,2.9l-1.1-1.6c2.3-2,5.7-3.3,9.2-3.3C925.2,1316.2,928.4,1319.1,928.4,1324.8z
		 M926.2,1332.6v-4.3h-7.9c-4.8,0-6.5,2-6.5,4.6c0,3,2.3,4.9,6.4,4.9C922.1,1337.8,924.8,1335.9,926.2,1332.6z"/>
	<path d="M935,1327.9c0-6.9,4.9-11.7,11.5-11.7c6.6,0,11.5,4.9,11.5,11.7c0,6.9-4.9,11.7-11.5,11.7
		C939.9,1339.6,935,1334.7,935,1327.9z M955.8,1327.9c0-5.8-4-9.7-9.3-9.7c-5.3,0-9.3,3.9-9.3,9.7c0,5.8,4,9.7,9.3,9.7
		C951.8,1337.6,955.8,1333.7,955.8,1327.9z"/>
	<path d="M985.6,1325.9v13.5h-2.2v-13.3c0-5.2-2.8-8-7.5-8c-5.4,0-8.8,3.5-8.8,9v12.3h-2.2v-23.1h2.1v5c1.5-3.2,4.8-5.2,9.2-5.2
		C981.8,1316.2,985.6,1319.5,985.6,1325.9z"/>
	<path d="M1014.2,1328.4h-19.9c0.2,5.5,4.2,9.2,9.8,9.2c2.9,0,5.6-1.1,7.4-3.2l1.3,1.5c-2,2.5-5.2,3.8-8.7,3.8
		c-7,0-11.9-4.9-11.9-11.7c0-6.9,4.7-11.7,11.1-11.7s11,4.8,11,11.6C1014.3,1328,1014.2,1328.2,1014.2,1328.4z M994.4,1326.7h17.7
		c-0.3-5-3.9-8.6-8.8-8.6S994.8,1321.6,994.4,1326.7z"/>
	<path d="M1029.3,1327.1l-6,5.5v6.9h-2.2v-32.8h2.2v23.2l14.8-13.5h2.8l-9.9,9.3l10.9,13.8h-2.7L1029.3,1327.1z"/>
	<path d="M1065.7,1328.4h-19.9c0.2,5.5,4.2,9.2,9.8,9.2c2.9,0,5.6-1.1,7.4-3.2l1.3,1.5c-2,2.5-5.2,3.8-8.7,3.8
		c-7,0-11.9-4.9-11.9-11.7c0-6.9,4.7-11.7,11.1-11.7s11,4.8,11,11.6C1065.7,1328,1065.7,1328.2,1065.7,1328.4z M1045.9,1326.7h17.7
		c-0.3-5-3.9-8.6-8.8-8.6S1046.2,1321.6,1045.9,1326.7z"/>
	<path d="M1104.6,1325.9v13.5h-2.2v-13.3c0-5.2-2.8-8-7.5-8c-5.4,0-8.8,3.5-8.8,9v12.3h-2.2v-23.1h2.1v5c1.5-3.2,4.8-5.2,9.2-5.2
		C1100.8,1316.2,1104.6,1319.5,1104.6,1325.9z"/>
	<path d="M1130.4,1324.8v14.6h-2.1v-4.1c-1.5,2.7-4.3,4.3-8.3,4.3c-5.2,0-8.3-2.7-8.3-6.6c0-3.5,2.2-6.5,8.6-6.5h7.9v-1.9
		c0-4.3-2.3-6.6-6.9-6.6c-3.2,0-6.1,1.2-8,2.9l-1.1-1.6c2.3-2,5.7-3.3,9.2-3.3C1127.2,1316.2,1130.4,1319.1,1130.4,1324.8z
		 M1128.2,1332.6v-4.3h-7.9c-4.8,0-6.5,2-6.5,4.6c0,3,2.3,4.9,6.4,4.9C1124.1,1337.8,1126.8,1335.9,1128.2,1332.6z"/>
	<path d="M1156.1,1324.8v14.6h-2.1v-4.1c-1.5,2.7-4.3,4.3-8.3,4.3c-5.2,0-8.3-2.7-8.3-6.6c0-3.5,2.2-6.5,8.6-6.5h7.9v-1.9
		c0-4.3-2.3-6.6-6.9-6.6c-3.2,0-6.1,1.2-8,2.9l-1.1-1.6c2.3-2,5.7-3.3,9.2-3.3C1153,1316.2,1156.1,1319.1,1156.1,1324.8z
		 M1153.9,1332.6v-4.3h-7.9c-4.8,0-6.5,2-6.5,4.6c0,3,2.3,4.9,6.4,4.9C1149.9,1337.8,1152.6,1335.9,1153.9,1332.6z"/>
	<path d="M1176.2,1316.2v2.2c-0.2,0-0.4,0-0.5,0c-5.1,0-8.2,3.4-8.2,9.1v12h-2.2v-23.1h2.1v5
		C1168.8,1318,1171.8,1316.2,1176.2,1316.2z"/>
	<path d="M1217,1327.9c0,6.9-4.9,11.7-11.4,11.7c-4.2,0-7.7-2.1-9.5-5.6v5.4h-2.1v-32.8h2.2v15c1.9-3.4,5.3-5.4,9.4-5.4
		C1212.1,1316.2,1217,1320.9,1217,1327.9z M1214.8,1327.9c0-5.8-4-9.7-9.3-9.7c-5.3,0-9.3,3.9-9.3,9.7c0,5.8,4,9.7,9.3,9.7
		C1210.8,1337.6,1214.8,1333.7,1214.8,1327.9z"/>
	<path d="M1221.4,1327.9c0-6.9,4.9-11.7,11.5-11.7s11.5,4.9,11.5,11.7c0,6.9-4.9,11.7-11.5,11.7S1221.4,1334.7,1221.4,1327.9z
		 M1242.2,1327.9c0-5.8-4-9.7-9.3-9.7s-9.3,3.9-9.3,9.7c0,5.8,4,9.7,9.3,9.7S1242.2,1333.7,1242.2,1327.9z"/>
	<path d="M1269.2,1316.3l-10.4,23.1h-2.3l-10.4-23.1h2.3l9.2,20.7l9.3-20.7H1269.2z"/>
	<path d="M1292.8,1328.4H1273c0.2,5.5,4.2,9.2,9.8,9.2c2.9,0,5.6-1.1,7.4-3.2l1.3,1.5c-2,2.5-5.2,3.8-8.7,3.8
		c-7,0-11.9-4.9-11.9-11.7c0-6.9,4.7-11.7,11.1-11.7s11,4.8,11,11.6C1292.9,1328,1292.8,1328.2,1292.8,1328.4z M1273,1326.7h17.7
		c-0.3-5-3.9-8.6-8.8-8.6S1273.4,1321.6,1273,1326.7z"/>
	<path d="M1320.4,1325.9v13.5h-2.2v-13.3c0-5.2-2.8-8-7.5-8c-5.4,0-8.8,3.5-8.8,9v12.3h-2.2v-23.1h2.1v5c1.5-3.2,4.8-5.2,9.2-5.2
		C1316.6,1316.2,1320.4,1319.5,1320.4,1325.9z"/>
	<path d="M1349,1327.1l-6,5.5v6.9h-2.2v-32.8h2.2v23.2l14.8-13.5h2.8l-9.9,9.3l10.9,13.8h-2.7L1349,1327.1z"/>
	<path d="M1363.4,1327.9c0-6.9,4.9-11.7,11.5-11.7s11.5,4.9,11.5,11.7c0,6.9-4.9,11.7-11.5,11.7S1363.4,1334.7,1363.4,1327.9z
		 M1384.2,1327.9c0-5.8-4-9.7-9.3-9.7s-9.3,3.9-9.3,9.7c0,5.8,4,9.7,9.3,9.7S1384.2,1333.7,1384.2,1327.9z"/>
	<path d="M1431.2,1325.9v13.5h-2.2v-13.3c0-5.2-2.7-8-7.2-8c-5.2,0-8.4,3.5-8.4,9v12.3h-2.2v-13.3c0-5.2-2.7-8-7.2-8
		c-5.2,0-8.4,3.5-8.4,9v12.3h-2.2v-23.1h2.1v5c1.5-3.2,4.6-5.1,8.8-5.1c4.2,0,7.2,1.9,8.4,5.6c1.5-3.4,4.9-5.6,9.3-5.6
		C1427.6,1316.2,1431.2,1319.5,1431.2,1325.9z"/>
	<path d="M1451.8,1338c-1.2,1.1-3,1.6-4.7,1.6c-4.1,0-6.3-2.4-6.3-6.3v-15.1h-4.2v-1.9h4.2v-5h2.2v5h7.3v1.9h-7.3v14.9
		c0,3,1.5,4.6,4.3,4.6c1.4,0,2.7-0.4,3.6-1.3L1451.8,1338z"/>
	<path d="M1456.3,1337.7c0-1.1,0.8-1.9,1.9-1.9c1,0,1.9,0.8,1.9,1.9s-0.8,1.9-1.9,1.9C1457.1,1339.6,1456.3,1338.7,1456.3,1337.7z"
		/>
</g>
<path d="M1124.8,864v122.6l-1.3,1.3h-9.6l-1.3-1.3V862.5l2.7-0.3v123h6.9V861.9L1124.8,864z M1122.2,846.4v-36.5h-6.9v39.5l-2.7,0.1
	v-40.9l1.3-1.3h9.6l1.3,1.3v41L1122.2,846.4z"/>
<path d="M1123.5,816.9h-9.6l-1.3-1.3v-7l1.3-1.3h9.6l1.3,1.3v7L1123.5,816.9z M1115.2,814.2h6.9v-4.3h-6.9V814.2z"/>
<path d="M387,1009.9h-2.7v-18h-28.6l-1.3-1.3V830l-3.5-2.9l-0.5-1v-45.6l-3.4-5.7h-4.7l-1.1-0.6l-3.4-5l-2.2,3.6l-2.5-0.7v-30.3
	l-2.1,4.8l-1.2,0.8h-6.7l-1.2-0.8l-10.1-25.1c-1.6,3.6-3.2,7.4-4.7,11.1c-2,4.8-4,9.7-6,14l-1.2,0.8h-6.7l-1.3-1.3v-13.3l-2.8-25.6
	l-3.4,25.6v13.2l-1.3,1.3h-5.5l-1.3-1.3V668l-9.4-13l-0.2-0.8V569l0.6-1.1l1.4-0.9v-4.7l0.4-1l2.9-2.9v-2.1h-3.4l-1-0.4l-13.3-14.7
	l-0.3-0.6L234.5,446l-20.7,94.6l-0.3,0.6l-13.3,14.7l-1,0.4h-3.4v2.1l2.9,2.9l0.4,1v4.7l1.4,0.9l0.6,1.1v85.3L201,655l-9.4,13v78.2
	l-1.3,1.3h-5.5l-1.3-1.3v-13.2l-3.4-25.6l-2.8,25.6v13.3l-1.3,1.3h-6.7l-1.2-0.8c-2-4.3-4.1-9.3-6-14c-1.5-3.7-3.1-7.5-4.7-11.1
	l-10.1,25.1l-1.2,0.8h-6.7l-1.2-0.8l-2.1-4.8v30.3l-2.5,0.7l-2.2-3.6l-3.3,5l-1.1,0.6h-4.7l-3.4,5.7v45.6l-0.5,1l-3.5,2.9v160.6
	l-1.3,1.3H84.6v18H82v-19.3l1.3-1.3h28.6V829.4l0.5-1l3.5-2.9V780l0.2-0.7l4-6.6l1.1-0.6h4.8l4.1-6.1l2.2,0l0.9,1.4v-32l2.6-0.5
	l4.3,9.9h4.9l11-27.1l2.4-0.1c2,4.3,4.1,9.3,6,14c1.8,4.5,3.8,9,5.6,13.2h4.5l0-12.2l4-36.6l2.6,0l4.9,36.8v12h2.8v-77.3l0.2-0.8
	l9.4-13v-84.1l-1.4-0.9l-0.6-1.1v-4.8l-2.9-2.9l-0.4-1v-4l1.3-1.3h4.1l12.6-14l21.9-100.2h2.6l21.9,100.2l12.6,14h4.1l1.3,1.3v4
	l-0.4,1l-2.9,2.9v4.8l-0.6,1.1l-1.4,0.9v84.1l9.4,13l0.2,0.8v77.3h2.8l0-12.2l4.9-36.6l2.6,0l4,36.8v12h4.5
	c1.9-4.1,3.8-8.7,5.6-13.2c2-4.8,4-9.7,6-14l2.4,0.1l11,27.1h4.9l4.3-9.9l2.5,0.5v32l0.9-1.4l2.2,0l4.1,6.1h4.8l1.1,0.6l4,6.6
	l0.2,0.7v45.4l3.5,2.9l0.5,1v159.9h28.6l1.3,1.3L387,1009.9L387,1009.9z"/>
<path d="M227.5,646.9l-0.7-73.6v-0.1c0.3-3.6-0.8-7.1-2.8-9.3c-1-1.1-2.2-1.8-3.2-1.9c-1,0-2.3,0.6-3.4,1.8
	c-2.2,2.2-3.4,5.8-3.2,9.5v0.1v79.3h-2.7v-79.2c-0.2-4.5,1.2-8.6,3.9-11.4c1.7-1.7,3.6-2.6,5.4-2.6c1.7,0,3.6,1,5.1,2.8
	c2.5,2.8,3.8,6.9,3.5,11.3l0.7,73.5L227.5,646.9z"/>
<path d="M256.2,652.6l-0.7-79.3v-0.1c0.3-3.6-0.8-7.1-2.8-9.3c-1-1.1-2.2-1.8-3.2-1.9c-1,0-2.3,0.6-3.4,1.8
	c-2.2,2.2-3.4,5.8-3.2,9.5v0.1v73.6h-2.7v-73.5c-0.2-4.5,1.2-8.6,3.9-11.4c1.7-1.7,3.6-2.6,5.4-2.6c1.7,0,3.6,1,5.1,2.8
	c2.5,2.8,3.8,6.9,3.5,11.3l0.7,79.2L256.2,652.6z"/>
<path d="M234.8,686.5c-7.4,0-13.3-6-13.3-13.3c0-7.3,6-13.3,13.3-13.3c7.4,0,13.3,6,13.3,13.3C248.2,680.5,242.2,686.5,234.8,686.5z
	 M234.8,662.5c-5.9,0-10.7,4.8-10.7,10.7c0,5.9,4.8,10.7,10.7,10.7s10.7-4.8,10.7-10.7C245.5,667.3,240.7,662.5,234.8,662.5z"/>
<rect x="233.5" y="665.5" width="2.7" height="9"/>
<rect x="233.4" y="670.9" transform="matrix(0.9806 -0.1961 0.1961 0.9806 -127.1656 60.0764)" width="12.9" height="2.7"/>
<path d="M260.5,989.9h-8l-1.3-1.3v-75.9h-32.6v75.9l-1.3,1.3h-7.3l-1.3-1.3V798.3v-0.1c0.3-4.3,1.9-12.6,8.2-20.3
	c6.2-7.5,13.9-10.6,18-11.8l0.9,0c4.9,2,11.8,6,17.2,13.8c4.7,6.8,6.3,13.6,6.7,18.2l0,0.1l2.1,190.2L260.5,989.9z M253.8,987.2h5.3
	L257,798.4c-0.5-4.2-1.9-10.6-6.3-16.9c-4.9-7-11.1-10.7-15.6-12.7c-3.8,1.2-10.7,4-16.2,10.8c-5.9,7.1-7.3,14.8-7.6,18.8v188.8h4.6
	v-75.9l1.3-1.3h35.3l1.3,1.3V987.2z"/>
<path d="M247.8,901.8l0-1.3c-0.2-17.5-0.4-33.3-0.6-49.2c-0.2-15.8-0.4-31.6-0.6-49.1c-0.2-2.3-1-5.7-3.4-9
	c-2.5-3.7-5.8-5.6-8.2-6.7c-2.1,0.7-5.6,2.2-8.5,5.7c-3.1,3.8-3.9,7.9-4.1,10v99.6h-2.7V802c0.2-2.4,1.1-7.2,4.7-11.5
	c3.5-4.3,7.9-6,10.2-6.7l0.9,0c2.8,1.1,6.7,3.4,9.8,7.8c2.7,3.8,3.6,7.7,3.8,10.3l0,0.1c0.2,17.5,0.4,33.3,0.6,49.2
	c0.2,15.8,0.4,31.7,0.6,49.2l0,1.3L247.8,901.8z"/>
<path d="M171.2,918L170,815c-0.2-2.3-1-5.7-3.4-9c-2.5-3.7-5.8-5.6-8.2-6.7c-2.1,0.7-5.6,2.2-8.5,5.7c-3.1,3.8-3.9,7.9-4.1,10v103
	h-2.7V814.8c0.2-2.4,1.1-7.2,4.7-11.5c3.5-4.3,7.9-6,10.2-6.7l0.9,0c2.8,1.1,6.7,3.4,9.8,7.8c2.7,3.8,3.6,7.7,3.8,10.3l0,0.1
	l1.2,103L171.2,918z"/>
<path d="M325,918l-1.2-103c-0.2-2.3-1-5.7-3.4-9c-2.5-3.7-5.8-5.6-8.2-6.7c-2.1,0.7-5.6,2.2-8.5,5.7c-3.1,3.8-3.9,7.9-4.1,10v103
	h-2.7V814.8c0.2-2.4,1.1-7.2,4.7-11.5c3.5-4.3,7.9-6,10.2-6.7l0.9,0c2.8,1.1,6.7,3.4,9.8,7.8c2.7,3.8,3.6,7.7,3.8,10.3l0,0.1
	l1.2,103L325,918z"/>
<polygon points="1015.3,1009.9 997.5,1009.9 996.2,1008.6 996.2,850 433.5,850 433.5,1008.6 432.1,1009.9 414.3,1009.9 
	414.3,1007.2 430.8,1007.2 430.8,848.7 432.1,847.4 997.5,847.4 998.8,848.7 998.8,1007.2 1015.3,1007.2 "/>
<rect x="452" y="866.2" width="2.7" height="143.7"/>
<rect x="452" y="866.2" width="2.7" height="143.7"/>
<path d="M445,938.2h-1.3v-2.7h1.3c36,0,70.9,0,105.8,0c34.9,0,69.8,0,105.8,0h1.3v2.7h-1.3c-36,0-70.9,0-105.8,0
	C515.9,938.2,481,938.2,445,938.2z"/>
<rect x="473.7" y="866.2" width="2.7" height="143.7"/>
<rect x="495.4" y="866.2" width="2.7" height="143.7"/>
<rect x="517.2" y="866.2" width="2.7" height="143.7"/>
<rect x="538.9" y="866.2" width="2.7" height="143.7"/>
<rect x="560.7" y="866.2" width="2.7" height="143.7"/>
<rect x="582.4" y="866.2" width="2.7" height="143.7"/>
<rect x="604.2" y="866.2" width="2.7" height="143.7"/>
<rect x="625.9" y="866.2" width="2.7" height="143.7"/>
<rect x="647.7" y="866.2" width="2.7" height="143.7"/>
<rect x="675" y="945.5" width="2.7" height="64.5"/>
<rect x="758.2" y="945.5" width="2.7" height="64.5"/>
<polygon points="760.9,914 758.2,914 758.2,868.8 677.6,868.8 677.6,914 675,914 675,867.5 676.3,866.2 759.5,866.2 760.9,867.5 "/>
<rect x="785.2" y="866.2" width="2.7" height="143.7"/>
<rect x="785.2" y="866.2" width="2.7" height="143.7"/>
<path d="M778.3,938.2h-1.3v-2.7h1.3c36,0,70.9,0,105.8,0c34.9,0,69.8,0,105.8,0h1.3v2.7h-1.3c-36,0-70.9,0-105.8,0
	C849.1,938.2,814.2,938.2,778.3,938.2z"/>
<rect x="806.9" y="866.2" width="2.7" height="143.7"/>
<rect x="828.7" y="866.2" width="2.7" height="143.7"/>
<rect x="850.4" y="866.2" width="2.7" height="143.7"/>
<rect x="872.2" y="866.2" width="2.7" height="143.7"/>
<rect x="893.9" y="866.2" width="2.7" height="143.7"/>
<rect x="915.6" y="866.2" width="2.7" height="143.7"/>
<rect x="937.4" y="866.2" width="2.7" height="143.7"/>
<rect x="959.1" y="866.2" width="2.7" height="143.7"/>
<rect x="980.9" y="866.2" width="2.7" height="143.7"/>
<path d="M759.5,939.4h-82.9l-1.3-1.3v-18.8l1.3-1.3h82.9l1.3,1.3V938L759.5,939.4z M677.9,936.7h80.2v-16.1h-80.2V936.7z"/>
<rect x="430.3" y="1023.2" width="389" height="2.7"/>
<rect x="473.6" y="1029.9" width="345.7" height="2.7"/>
<polygon points="819.3,1039.2 818,1039.2 513.6,1038.5 513.6,1035.9 514.9,1035.9 819.3,1036.5 "/>
<rect x="562.9" y="1043.2" width="256.4" height="2.7"/>
<rect x="607.5" y="1049.9" width="211.8" height="2.7"/>
<rect x="384.4" y="1007.2" width="32.6" height="2.7"/>
<rect x="52" y="1007.2" class="st1" width="32.6" height="2.7"/>
<polygon points="1192,1009.9 1189.3,1009.9 1189.3,993.9 1048.8,993.9 1048.8,1009.9 1046.1,1009.9 1046.1,992.6 1047.4,991.2 
	1190.6,991.2 1192,992.6 "/>
<path d="M1194.6,993.9h-151.2l-1.3-1.3v-6l1.3-1.3h151.2l1.3,1.3v6L1194.6,993.9z M1044.8,991.2h148.5v-3.3h-148.5V991.2z"/>
<path d="M1103,987.9l-1.8-115.6c-0.3-7.2-2.7-32.2-23.9-49.6c-14-11.5-29.6-14-37.6-14.5l-1.2-1.3v-8.8l1.3-1.3
	c9.4,0.2,27.7,2.3,44.4,15.2c27.7,21.3,29.3,54.8,29.3,61.2l1.8,113.9l-2.7,0l-1.8-113.9c0-6.3-1.5-38.7-28.3-59.2
	c-15.3-11.8-32.1-14.2-41.5-14.6v6.2c8.7,0.7,24,3.7,37.9,15c22.1,18.1,24.7,44.1,24.9,51.6l1.8,115.7L1103,987.9z"/>
<path d="M1134.4,987.9l-2.7,0l1.8-115.6c0.3-7.6,2.8-33.5,24.9-51.6c13.9-11.4,29.2-14.3,37.9-15v-6.2c-9.4,0.3-26.2,2.8-41.5,14.6
	c-26.7,20.5-28.2,52.9-28.3,59.2l-1.8,113.9l-2.7,0l1.8-113.9c0-6.5,1.6-40,29.3-61.2c16.7-12.8,35-15,44.4-15.2l1.3,1.3v8.8
	l-1.2,1.3c-8,0.5-23.6,3-37.6,14.5c-21.2,17.4-23.7,42.4-23.9,49.6L1134.4,987.9z"/>
<g>
	<path d="M1126.5,866.3l-7.5-5.2l-7.5,5.2l-2-1.5l2.6-8.7l-7.2-5.5l0.8-2.4l9.1-0.2l3-8.6h2.5l3,8.6l9.1,0.2l0.8,2.4l-7.2,5.5
		l2.6,8.7L1126.5,866.3z M1118.3,858.4h1.5l5.1,3.5l-1.8-5.9l0.5-1.5l4.9-3.7l-6.2-0.1l-1.2-0.9l-2-5.8l-2,5.8l-1.2,0.9l-6.2,0.1
		l4.9,3.7l0.5,1.5l-1.8,5.9L1118.3,858.4z"/>
</g>
<g>
	<path d="M1096.7,866.9l-5.9-5l-5.9,5l-2.2-1.3l2.2-8.8l-6-5.5l0.9-2.3l7.3-0.2l2.4-8.5h2.6l2.4,8.5l7.3,0.2l0.9,2.3l-6,5.5l2.2,8.8
		L1096.7,866.9z M1089.9,859.1h1.7l3.6,3.1l-1.4-5.6l0.4-1.3l4.2-3.8l-5-0.1l-1.2-1l-1.4-5l-1.4,5l-1.2,1l-5,0.1l4.2,3.8l0.4,1.3
		l-1.4,5.6L1089.9,859.1z"/>
</g>
<g>
	<path d="M1070.2,866.5l-2.5-0.8l1.1-9.2l-2.8-5.7l1.1-1.9l2.7-0.1l1.1-8.4h2.6l1.1,8.4l2.7,0.1l1.1,1.9l-2.8,5.7l1,9.2l-2.5,0.8
		l-1.9-3.5L1070.2,866.5z M1071.1,859.5h2.1l-0.3-3.1l0.1-0.7l2.1-4.2l-1.7-0.1l-1.2-1.1l-1.2,1.1l-1.7,0.1l2.1,4.2l0.1,0.7
		L1071.1,859.5z"/>
</g>
<g>
	<path d="M1152.6,866.9l-5.9-5l-5.9,5l-2.2-1.3l2.2-8.8l-6-5.5l0.9-2.3l7.3-0.2l2.4-8.5h2.6l2.4,8.5l7.3,0.2l0.9,2.3l-6,5.5l2.2,8.8
		L1152.6,866.9z M1145.8,859.1h1.7l3.6,3.1l-1.4-5.6l0.4-1.3l4.2-3.8l-5-0.1l-1.2-1l-1.4-5l-1.4,5l-1.2,1l-5,0.1l4.2,3.8l0.4,1.3
		l-1.4,5.6L1145.8,859.1z"/>
</g>
<g>
	<path d="M1167.2,866.5l-1.9-3.5l-1.9,3.5l-2.5-0.8l1-9.2l-2.8-5.7l1.1-1.9l2.7-0.1l1.1-8.4h2.6l1.1,8.4l2.7,0.1l1.1,1.9l-2.8,5.7
		l1.1,9.2L1167.2,866.5z M1162.4,851.5l2.1,4.2l0.1,0.7l-0.3,3.1h2.1l-0.3-3.1l0.1-0.7l2.1-4.2l-1.7-0.1l-1.2-1.1l-1.2,1.1
		L1162.4,851.5z"/>
</g>
<rect x="1012.5" y="1007.2" width="36" height="2.7"/>
<polygon points="1252.9,1009.2 1250.2,1009.2 1250.2,863.2 1239.2,850.2 1240.3,848 1252.4,848 1344.5,753.2 1345.5,752.8 
	1402.8,752.8 1402.8,755.5 1346.1,755.5 1253.9,850.3 1253,850.7 1243.1,850.7 1252.6,861.8 1252.9,862.7 "/>
<rect x="1411.4" y="752.8" width="256.4" height="2.7"/>
<polygon points="1828.6,1009.2 1826,1009.2 1826,862.7 1826.3,861.8 1835.8,850.7 1825.9,850.7 1824.9,850.3 1732.8,755.5 
	1675.9,755.5 1675.9,752.8 1733.4,752.8 1734.3,753.2 1826.5,848 1838.6,848 1839.6,850.2 1828.6,863.2 "/>
<path d="M1639.2,850.7H1441l-1.1-2.1c22.6-33.3,60-53.1,100.2-53.1c40.2,0,77.6,19.9,100.2,53.1L1639.2,850.7z M1443.5,848h193.1
	c-22.2-31.3-58.1-49.9-96.6-49.9C1501.7,798.2,1465.8,816.8,1443.5,848z"/>
<path d="M1294.2,911.3h-21.3l-1.3-1.3v-30l1.3-1.3h21.3l1.3,1.3v30L1294.2,911.3z M1274.2,908.7h18.7v-27.3h-18.7V908.7z"/>
<path d="M1297.5,881.3h-28l-1.3-1.3v-4.7l1.3-1.3h28l1.3,1.3v4.7L1297.5,881.3z M1270.9,878.7h25.3v-2h-25.3V878.7z"/>
<path d="M1335.5,911.3h-21.3l-1.3-1.3v-30l1.3-1.3h21.3l1.3,1.3v30L1335.5,911.3z M1315.5,908.7h18.7v-27.3h-18.7V908.7z"/>
<path d="M1338.8,881.3h-28l-1.3-1.3v-4.7l1.3-1.3h28l1.3,1.3v4.7L1338.8,881.3z M1312.2,878.7h25.3v-2h-25.3V878.7z"/>
<path d="M1376.8,911.3h-21.3l-1.3-1.3v-30l1.3-1.3h21.3l1.3,1.3v30L1376.8,911.3z M1356.8,908.7h18.7v-27.3h-18.7V908.7z"/>
<path d="M1380.1,881.3h-28l-1.3-1.3v-4.7l1.3-1.3h28l1.3,1.3v4.7L1380.1,881.3z M1353.5,878.7h25.3v-2h-25.3V878.7z"/>
<path d="M1418.1,911.3h-21.3l-1.3-1.3v-30l1.3-1.3h21.3l1.3,1.3v30L1418.1,911.3z M1398.1,908.7h18.7v-27.3h-18.7V908.7z"/>
<path d="M1421.4,881.3h-28l-1.3-1.3v-4.7l1.3-1.3h28l1.3,1.3v4.7L1421.4,881.3z M1394.8,878.7h25.3v-2h-25.3V878.7z"/>
<path d="M1294.2,979.3h-21.3l-1.3-1.3v-46.6l1.3-1.3h21.3l1.3,1.3v46.6L1294.2,979.3z M1274.2,976.6h18.7v-44h-18.7V976.6z"/>
<path d="M1297.5,932.6h-28l-1.3-1.3v-4.7l1.3-1.3h28l1.3,1.3v4.7L1297.5,932.6z M1270.9,930h25.3v-2h-25.3V930z"/>
<path d="M1335.5,979.3h-21.3l-1.3-1.3v-46.6l1.3-1.3h21.3l1.3,1.3v46.6L1335.5,979.3z M1315.5,976.6h18.7v-44h-18.7V976.6z"/>
<path d="M1338.8,932.6h-28l-1.3-1.3v-4.7l1.3-1.3h28l1.3,1.3v4.7L1338.8,932.6z M1312.2,930h25.3v-2h-25.3V930z"/>
<path d="M1376.8,979.3h-21.3l-1.3-1.3v-46.6l1.3-1.3h21.3l1.3,1.3v46.6L1376.8,979.3z M1356.8,976.6h18.7v-44h-18.7V976.6z"/>
<path d="M1380.1,932.6h-28l-1.3-1.3v-4.7l1.3-1.3h28l1.3,1.3v4.7L1380.1,932.6z M1353.5,930h25.3v-2h-25.3V930z"/>
<path d="M1418.1,979.3h-21.3l-1.3-1.3v-46.6l1.3-1.3h21.3l1.3,1.3v46.6L1418.1,979.3z M1398.1,976.6h18.7v-44h-18.7V976.6z"/>
<path d="M1421.4,932.6h-28l-1.3-1.3v-4.7l1.3-1.3h28l1.3,1.3v4.7L1421.4,932.6z M1394.8,930h25.3v-2h-25.3V930z"/>
<path d="M1685.2,911.3h-21.3l-1.3-1.3v-30l1.3-1.3h21.3l1.3,1.3v30L1685.2,911.3z M1665.2,908.7h18.7v-27.3h-18.7V908.7z"/>
<path d="M1688.5,881.3h-28l-1.3-1.3v-4.7l1.3-1.3h28l1.3,1.3v4.7L1688.5,881.3z M1661.9,878.7h25.3v-2h-25.3V878.7z"/>
<path d="M1726.5,911.3h-21.3l-1.3-1.3v-30l1.3-1.3h21.3l1.3,1.3v30L1726.5,911.3z M1706.5,908.7h18.7v-27.3h-18.7V908.7z"/>
<path d="M1729.8,881.3h-28l-1.3-1.3v-4.7l1.3-1.3h28l1.3,1.3v4.7L1729.8,881.3z M1703.2,878.7h25.3v-2h-25.3V878.7z"/>
<path d="M1767.8,911.3h-21.3l-1.3-1.3v-30l1.3-1.3h21.3l1.3,1.3v30L1767.8,911.3z M1747.8,908.7h18.7v-27.3h-18.7V908.7z"/>
<path d="M1771.1,881.3h-28l-1.3-1.3v-4.7l1.3-1.3h28l1.3,1.3v4.7L1771.1,881.3z M1744.5,878.7h25.3v-2h-25.3V878.7z"/>
<path d="M1809.1,911.3h-21.3l-1.3-1.3v-30l1.3-1.3h21.3l1.3,1.3v30L1809.1,911.3z M1789.1,908.7h18.7v-27.3h-18.7V908.7z"/>
<path d="M1812.4,881.3h-28l-1.3-1.3v-4.7l1.3-1.3h28l1.3,1.3v4.7L1812.4,881.3z M1785.8,878.7h25.3v-2h-25.3V878.7z"/>
<path d="M1506.3,912.7h-22.9l-1.3-1.3V879l1.3-1.3h22.9l1.3,1.3v32.3L1506.3,912.7z M1484.7,910h20.3v-29.6h-20.3V910z"/>
<path d="M1509.9,880.4h-30.1l-1.3-1.3v-5l1.3-1.3h30.1l1.3,1.3v5L1509.9,880.4z M1481.1,877.7h27.5v-2.4h-27.5V877.7z"/>
<path d="M1550.8,912.7h-22.9l-1.3-1.3V879l1.3-1.3h22.9l1.3,1.3v32.3L1550.8,912.7z M1529.2,910h20.3v-29.6h-20.3V910z"/>
<path d="M1554.4,880.4h-30.1l-1.3-1.3v-5l1.3-1.3h30.1l1.3,1.3v5L1554.4,880.4z M1525.6,877.7h27.5v-2.4h-27.5V877.7z"/>
<path d="M1595.3,912.7h-22.9l-1.3-1.3V879l1.3-1.3h22.9l1.3,1.3v32.3L1595.3,912.7z M1573.6,910h20.3v-29.6h-20.3V910z"/>
<path d="M1598.8,880.4h-30.1l-1.3-1.3v-5l1.3-1.3h30.1l1.3,1.3v5L1598.8,880.4z M1570.1,877.7h27.5v-2.4h-27.5V877.7z"/>
<path d="M1685.2,979.3h-21.3l-1.3-1.3v-46.6l1.3-1.3h21.3l1.3,1.3v46.6L1685.2,979.3z M1665.2,976.6h18.7v-44h-18.7V976.6z"/>
<path d="M1688.5,932.6h-28l-1.3-1.3v-4.7l1.3-1.3h28l1.3,1.3v4.7L1688.5,932.6z M1661.9,930h25.3v-2h-25.3V930z"/>
<path d="M1726.5,979.3h-21.3l-1.3-1.3v-46.6l1.3-1.3h21.3l1.3,1.3v46.6L1726.5,979.3z M1706.5,976.6h18.7v-44h-18.7V976.6z"/>
<path d="M1729.8,932.6h-28l-1.3-1.3v-4.7l1.3-1.3h28l1.3,1.3v4.7L1729.8,932.6z M1703.2,930h25.3v-2h-25.3V930z"/>
<path d="M1767.8,979.3h-21.3l-1.3-1.3v-46.6l1.3-1.3h21.3l1.3,1.3v46.6L1767.8,979.3z M1747.8,976.6h18.7v-44h-18.7V976.6z"/>
<path d="M1771.1,932.6h-28l-1.3-1.3v-4.7l1.3-1.3h28l1.3,1.3v4.7L1771.1,932.6z M1744.5,930h25.3v-2h-25.3V930z"/>
<path d="M1809.1,979.3h-21.3l-1.3-1.3v-46.6l1.3-1.3h21.3l1.3,1.3v46.6L1809.1,979.3z M1789.1,976.6h18.7v-44h-18.7V976.6z"/>
<path d="M1812.4,932.6h-28l-1.3-1.3v-4.7l1.3-1.3h28l1.3,1.3v4.7L1812.4,932.6z M1785.8,930h25.3v-2h-25.3V930z"/>
<path d="M1550.8,989.9h-22.9l-1.3-1.3v-45.3l0.2-0.2c0.1-6.9,5.7-12.5,12.7-12.5s12.6,5.6,12.7,12.5l0.2,0.2v45.3L1550.8,989.9z
	 M1529.2,987.2h20.3v-43.8l-0.2-0.2c0-5.5-4.5-10-10-10s-10,4.5-10,10l-0.2,0.2L1529.2,987.2L1529.2,987.2z M1552,943.3L1552,943.3
	L1552,943.3z"/>
<path d="M1595.4,989.9h-22.9l-1.3-1.3v-45.3l0.2-0.2c0.1-6.9,5.7-12.5,12.7-12.5c6.9,0,12.6,5.6,12.7,12.5l0.2,0.2v45.3
	L1595.4,989.9z M1573.8,987.2h20.3v-43.8l-0.2-0.2c0-5.5-4.5-10-10-10s-10,4.5-10,10l-0.2,0.2L1573.8,987.2L1573.8,987.2z
	 M1596.6,943.3L1596.6,943.3L1596.6,943.3z"/>
<path d="M1506.2,989.9h-22.9l-1.3-1.3v-45.3l0.2-0.2c0.1-6.9,5.7-12.5,12.7-12.5c6.9,0,12.6,5.6,12.7,12.5l0.2,0.2v45.3
	L1506.2,989.9z M1484.6,987.2h20.3v-43.8l-0.2-0.2c0-5.5-4.5-10-10-10s-10,4.5-10,10l-0.2,0.2L1484.6,987.2L1484.6,987.2z
	 M1507.3,943.3L1507.3,943.3L1507.3,943.3z"/>
<rect x="1479.4" y="993.2" width="119.9" height="2.7"/>
<rect x="1468.1" y="999.2" width="142.5" height="2.7"/>
<rect x="1458.7" y="1005.2" width="161.2" height="2.7"/>
<polygon points="1307.5,795.4 1304.9,795.4 1304.9,743.8 1302.5,741 1302.4,739.5 1304.4,736.1 1305.5,735.5 1320.9,735.5 
	1321.8,735.9 1324.5,738.5 1324.4,740.4 1322.2,742.7 1322.2,780.1 1319.5,780.1 1319.5,742.1 1319.9,741.2 1321.6,739.5 
	1320.3,738.1 1306.3,738.1 1305.2,740 1307.2,742.5 1307.5,743.4 "/>
<polygon points="1774,795.4 1771.4,795.4 1771.4,743.4 1771.7,742.5 1773.7,740 1772.6,738.1 1758.6,738.1 1757.2,739.5 1759,741.2 
	1759.4,742.1 1759.4,780.1 1756.7,780.1 1756.7,742.7 1754.4,740.4 1754.4,738.5 1757.1,735.9 1758,735.5 1773.3,735.5 
	1774.5,736.1 1776.5,739.5 1776.4,741 1774,743.8 "/>
<polygon points="1678.5,762.8 1675.9,762.8 1675.9,731.5 1676,730.9 1676.4,730.2 1667.4,730.2 1667.7,730.9 1667.9,731.5 
	1667.9,762.8 1665.2,762.8 1665.2,731.8 1664,729.4 1665.2,727.5 1678.5,727.5 1679.7,729.4 1678.5,731.8 "/>
<polygon points="1411,762.8 1411,731.5 1411.2,730.9 1411.5,730.2 1402.5,730.2 1402.9,730.9 1403,731.5 1403,762.8 1400.4,762.8 
	1400.4,731.8 1399.2,729.4 1400.4,727.5 1413.7,727.5 1414.9,729.4 1413.7,731.8 1413.7,762.8 "/>
<path d="M1350.2,790.8h-2.7v-1.3c0-1.8-1.5-3.3-3.3-3.3s-3.3,1.5-3.3,3.3v1.3h-2.7v-1.3c0-3.3,2.7-6,6-6c3.3,0,6,2.7,6,6V790.8z"/>
<path d="M1740.7,790.8h-2.7v-1.3c0-1.8-1.5-3.3-3.3-3.3s-3.3,1.5-3.3,3.3v1.3h-2.7v-1.3c0-3.3,2.7-6,6-6s6,2.7,6,6V790.8z"/>
<path d="M1428.3,790.8h-2.7v-1.3c0-1.8-1.5-3.3-3.3-3.3s-3.3,1.5-3.3,3.3v1.3h-2.7v-1.3c0-3.3,2.7-6,6-6c3.3,0,6,2.7,6,6V790.8z"/>
<path d="M1506.4,790.8h-2.7v-1.3c0-1.8-1.5-3.3-3.3-3.3s-3.3,1.5-3.3,3.3v1.3h-2.7v-1.3c0-3.3,2.7-6,6-6c3.3,0,6,2.7,6,6V790.8z"/>
<path d="M1584.5,790.8h-2.7v-1.3c0-1.8-1.5-3.3-3.3-3.3s-3.3,1.5-3.3,3.3v1.3h-2.7v-1.3c0-3.3,2.7-6,6-6c3.3,0,6,2.7,6,6V790.8z"/>
<path d="M1662.6,790.8h-2.7v-1.3c0-1.8-1.5-3.3-3.3-3.3s-3.3,1.5-3.3,3.3v1.3h-2.7v-1.3c0-3.3,2.7-6,6-6c3.3,0,6,2.7,6,6V790.8z"/>
<path d="M1287.6,844.7c-4.4,0-8-3.6-8-8c0-4.4,3.6-8,8-8s8,3.6,8,8C1295.5,841.1,1291.9,844.7,1287.6,844.7z M1287.6,831.4
	c-2.9,0-5.3,2.4-5.3,5.3s2.4,5.3,5.3,5.3s5.3-2.4,5.3-5.3C1292.9,833.8,1290.5,831.4,1287.6,831.4z"/>
<path d="M1370.4,844.7c-4.4,0-8-3.6-8-8c0-4.4,3.6-8,8-8s8,3.6,8,8C1378.3,841.1,1374.8,844.7,1370.4,844.7z M1370.4,831.4
	c-2.9,0-5.3,2.4-5.3,5.3s2.4,5.3,5.3,5.3s5.3-2.4,5.3-5.3S1373.3,831.4,1370.4,831.4z"/>
<path d="M1340.2,846h-22.4l-1.1-2.1l4.4-6.3v-6.6h-5.1v-1.3c0-7.2,5.8-13,13-13s13,5.8,13,13v1.3h-5.1v6.6l4.4,6.3L1340.2,846z
	 M1331.1,843.4h6.5l-3.2-4.5l-0.2-0.8v-8.3l1.3-1.3h3.7c-0.7-5.1-5-9-10.2-9s-9.6,3.9-10.2,9h3.7l1.3,1.3v8.3l-0.2,0.8l-3.2,4.5
	H1331.1z"/>
<path d="M1422.8,846h-22.4l-1.1-2.1l4.4-6.3v-6.6h-5.1v-1.3c0-7.2,5.8-13,13-13s13,5.8,13,13v1.3h-5.1v6.6l4.4,6.3L1422.8,846z
	 M1413.7,843.4h6.5l-3.2-4.5l-0.2-0.8v-8.3l1.3-1.3h3.7c-0.7-5.1-5-9-10.2-9s-9.6,3.9-10.2,9h3.7l1.3,1.3v8.3l-0.2,0.8l-3.2,4.5
	H1413.7z"/>
<path d="M1678.5,846h-22.4l-1.1-2.1l4.4-6.3v-6.6h-5.1v-1.3c0-7.2,5.8-13,13-13s13,5.8,13,13v1.3h-5.1v6.6l4.4,6.3L1678.5,846z
	 M1669.4,843.4h6.5l-3.2-4.5l-0.2-0.8v-8.3l1.3-1.3h3.7c-0.7-5.1-5-9-10.2-9s-9.6,3.9-10.2,9h3.7l1.3,1.3v8.3l-0.2,0.8l-3.2,4.5
	H1669.4z"/>
<path d="M1761.1,846h-22.4l-1.1-2.1l4.4-6.3v-6.6h-5.1v-1.3c0-7.2,5.8-13,13-13s13,5.8,13,13v1.3h-5.1v6.6l4.4,6.3L1761.1,846z
	 M1752,843.4h6.5l-3.2-4.5l-0.2-0.8v-8.3l1.3-1.3h3.7c-0.7-5.1-5-9-10.2-9s-9.6,3.9-10.2,9h3.7l1.3,1.3v8.3l-0.2,0.8l-3.2,4.5H1752z
	"/>
<path d="M1791.3,844.7c-4.4,0-8-3.6-8-8c0-4.4,3.6-8,8-8c4.4,0,8,3.6,8,8C1799.3,841.1,1795.8,844.7,1791.3,844.7z M1791.3,831.4
	c-2.9,0-5.3,2.4-5.3,5.3s2.4,5.3,5.3,5.3s5.3-2.4,5.3-5.3C1796.7,833.8,1794.3,831.4,1791.3,831.4z"/>
<path d="M1708.5,844.7c-4.4,0-8-3.6-8-8c0-4.4,3.6-8,8-8s8,3.6,8,8C1716.5,841.1,1712.9,844.7,1708.5,844.7z M1708.5,831.4
	c-2.9,0-5.3,2.4-5.3,5.3s2.4,5.3,5.3,5.3s5.3-2.4,5.3-5.3S1711.5,831.4,1708.5,831.4z"/>
<rect x="1189.6" y="1007.2" width="63.3" height="2.7"/>
<rect x="1825.7" y="1007.2" width="46.3" height="2.7"/>
<rect x="1076" y="849" width="6" height="3"/>
<rect x="1075" y="861" width="10" height="3"/>
<rect x="1101" y="849" width="8" height="3"/>
<rect x="1129" y="849" width="8" height="3"/>
<rect x="1156" y="849" width="6" height="3"/>
<rect x="1152" y="861" width="10" height="3"/>
<rect x="1097" y="861" width="15" height="3"/>
<rect x="1126" y="861" width="15" height="3"/>
</svg>
