<svg xmlns="http://www.w3.org/2000/svg" width="496" height="496" viewBox="0 0 496 496">
  <path id="Subtraction_1" data-name="Subtraction 1" d="M248,496a249.837,249.837,0,0,1-49.981-5.038,246.643,246.643,0,0,1-88.679-37.316A248.723,248.723,0,0,1,19.489,344.533,246.751,246.751,0,0,1,5.038,297.981a250.421,250.421,0,0,1,0-99.962,246.642,246.642,0,0,1,37.316-88.679A248.723,248.723,0,0,1,151.467,19.489,246.753,246.753,0,0,1,198.02,5.038a250.421,250.421,0,0,1,99.962,0,246.64,246.64,0,0,1,88.678,37.316,248.723,248.723,0,0,1,89.852,109.113,246.753,246.753,0,0,1,14.451,46.552,250.422,250.422,0,0,1,0,99.962,246.641,246.641,0,0,1-37.316,88.678,248.723,248.723,0,0,1-109.112,89.852,246.752,246.752,0,0,1-46.552,14.451A249.834,249.834,0,0,1,248,496ZM366.088,331.336a.4.4,0,0,0-.409.409.409.409,0,1,0,.818,0A.4.4,0,0,0,366.088,331.336Zm-4.749-4.293v.418h.934v3.32a1.258,1.258,0,0,0,1.382,1.382,1.528,1.528,0,0,0,1.041-.36l-.2-.341a1.165,1.165,0,0,1-.788.283c-.618,0-.944-.35-.944-1.012v-3.272h1.615v-.418h-1.615v-1.111h-.487v1.111ZM347.769,327a2.58,2.58,0,1,0,2.542,2.58A2.477,2.477,0,0,0,347.769,327Zm-20.488,0a2.428,2.428,0,0,0-2.434,2.58,2.487,2.487,0,0,0,2.618,2.579,2.412,2.412,0,0,0,1.918-.827l-.282-.321a2.175,2.175,0,0,1-3.777-1.314H329.7c0-.025,0-.05,0-.074s0-.044,0-.063A2.413,2.413,0,0,0,327.281,327ZM316.5,327a2.58,2.58,0,1,0,2.542,2.58A2.477,2.477,0,0,0,316.5,327Zm-8.086,3.927a2.284,2.284,0,0,0,2.082,1.233,2.581,2.581,0,0,0,0-5.16,2.268,2.268,0,0,0-2.065,1.2v-3.3h-.487v7.223h.468v-1.194Zm-11.039-1.639c-1.652,0-1.9.89-1.9,1.421,0,.881.718,1.451,1.83,1.451a1.964,1.964,0,0,0,1.831-.944v.905h.467V328.9a1.724,1.724,0,0,0-1.958-1.9,3.09,3.09,0,0,0-2.034.721l.243.35a2.63,2.63,0,0,1,1.752-.643,1.324,1.324,0,0,1,1.509,1.451v.409Zm-5.675,0c-1.652,0-1.9.89-1.9,1.421,0,.881.719,1.451,1.831,1.451a1.962,1.962,0,0,0,1.83-.944v.905h.468V328.9a1.724,1.724,0,0,0-1.958-1.9,3.09,3.09,0,0,0-2.034.721l.243.35a2.626,2.626,0,0,1,1.752-.643,1.324,1.324,0,0,1,1.509,1.451v.409ZM277.279,327a2.428,2.428,0,0,0-2.434,2.58,2.487,2.487,0,0,0,2.618,2.579,2.412,2.412,0,0,0,1.918-.827l-.282-.321a2.175,2.175,0,0,1-3.777-1.314h4.371c0-.025,0-.05,0-.074s0-.044,0-.063A2.413,2.413,0,0,0,277.279,327Zm-11.33,0a2.428,2.428,0,0,0-2.434,2.58,2.487,2.487,0,0,0,2.619,2.579,2.414,2.414,0,0,0,1.918-.827l-.283-.321a2.175,2.175,0,0,1-3.777-1.314h4.371c0-.025,0-.05,0-.074s0-.044,0-.063A2.413,2.413,0,0,0,265.949,327Zm-12.488,0a2.58,2.58,0,1,0,2.541,2.58A2.477,2.477,0,0,0,253.461,327Zm-6.23,2.288c-1.652,0-1.9.89-1.9,1.421,0,.881.719,1.451,1.831,1.451a1.962,1.962,0,0,0,1.83-.944v.905h.468V328.9A1.724,1.724,0,0,0,247.5,327a3.09,3.09,0,0,0-2.034.721l.243.35a2.626,2.626,0,0,1,1.752-.643,1.324,1.324,0,0,1,1.509,1.451v.409Zm-20.43,0c-1.651,0-1.9.89-1.9,1.421,0,.881.718,1.451,1.83,1.451a1.963,1.963,0,0,0,1.831-.944v.905h.467V328.9a1.724,1.724,0,0,0-1.957-1.9,3.094,3.094,0,0,0-2.035.721l.244.35a2.627,2.627,0,0,1,1.752-.643,1.323,1.323,0,0,1,1.508,1.451v.409ZM213.943,327a2.428,2.428,0,0,0-2.434,2.58,2.487,2.487,0,0,0,2.619,2.579,2.414,2.414,0,0,0,1.918-.827l-.283-.321a2.175,2.175,0,0,1-3.777-1.314h4.371c0-.025,0-.05,0-.074s0-.044,0-.063A2.413,2.413,0,0,0,213.943,327Zm-6.405.04v.418h.934v3.32a1.259,1.259,0,0,0,1.383,1.382,1.528,1.528,0,0,0,1.041-.36l-.2-.341a1.166,1.166,0,0,1-.789.283c-.618,0-.944-.35-.944-1.012v-3.272h1.616v-.418h-1.616v-1.111h-.487v1.111Zm-4.341,4.079-.224.389a3.2,3.2,0,0,0,2.035.652c1.237,0,2.005-.533,2.005-1.391,0-1.026-.932-1.2-1.834-1.375-.789-.15-1.535-.292-1.535-1.011,0-.606.522-.954,1.432-.954a2.61,2.61,0,0,1,1.528.458l.223-.39a3.127,3.127,0,0,0-1.742-.5c-1.171,0-1.928.547-1.928,1.392,0,1.073.952,1.25,1.873,1.422.769.143,1.5.279,1.5.963,0,.633-.5.954-1.5.954A2.977,2.977,0,0,1,203.2,331.122ZM199.79,327a2.428,2.428,0,0,0-2.434,2.58,2.487,2.487,0,0,0,2.618,2.579,2.412,2.412,0,0,0,1.918-.827l-.282-.321a2.175,2.175,0,0,1-3.777-1.314H202.2c0-.025,0-.05,0-.074s0-.044,0-.063A2.413,2.413,0,0,0,199.79,327Zm-7.98,3.927a2.257,2.257,0,0,0,2.082,1.233,2.581,2.581,0,0,0,0-5.16,2.265,2.265,0,0,0-2.064,1.2v-3.3h-.487v7.223h.467v-1.194Zm-7.682-3.887v.418h.934v3.32a1.259,1.259,0,0,0,1.383,1.382,1.528,1.528,0,0,0,1.041-.36l-.2-.341a1.165,1.165,0,0,1-.788.283c-.618,0-.945-.35-.945-1.012v-3.272h1.616v-.418h-1.616v-1.111h-.487v1.111Zm-3.1-.04a2.428,2.428,0,0,0-2.434,2.58,2.487,2.487,0,0,0,2.619,2.579,2.414,2.414,0,0,0,1.918-.827l-.283-.321a2.175,2.175,0,0,1-3.777-1.314h4.371a.717.717,0,0,1,.005-.075.6.6,0,0,0,0-.062A2.413,2.413,0,0,0,181.033,327Zm-19.009,2.288c-1.652,0-1.9.89-1.9,1.421,0,.881.719,1.451,1.831,1.451a1.961,1.961,0,0,0,1.83-.944v.905h.468V328.9A1.724,1.724,0,0,0,162.3,327a3.091,3.091,0,0,0-2.035.721l.243.35a2.626,2.626,0,0,1,1.752-.643,1.324,1.324,0,0,1,1.509,1.451v.409Zm-5.675,0c-1.652,0-1.9.89-1.9,1.421,0,.881.719,1.451,1.831,1.451a1.962,1.962,0,0,0,1.83-.944v.905h.467V328.9a1.724,1.724,0,0,0-1.957-1.9,3.1,3.1,0,0,0-2.035.721l.244.35a2.626,2.626,0,0,1,1.752-.643,1.323,1.323,0,0,1,1.508,1.451v.409ZM358.1,327.442c1.023,0,1.587.622,1.587,1.752v2.93h.487v-2.969A1.9,1.9,0,0,0,358.146,327a2.153,2.153,0,0,0-2.054,1.227A1.8,1.8,0,0,0,354.233,327a2.029,2.029,0,0,0-1.947,1.13v-1.09h-.468v5.081h.487v-2.706a1.782,1.782,0,0,1,1.859-1.976c1.023,0,1.587.622,1.587,1.752v2.93h.487v-2.706A1.782,1.782,0,0,1,358.1,327.442Zm-16.022,1.967h0l2.16,2.715h.6l-2.4-3.028,2.191-2.054H344l-3.252,2.969V324.9h-.486v7.223h.486v-1.509l1.324-1.206Zm-8.448-1.967a1.534,1.534,0,0,1,1.644,1.752v2.93h.487v-2.969A1.938,1.938,0,0,0,333.695,327a2.113,2.113,0,0,0-2.015,1.139v-1.1h-.467v5.081h.487v-2.706A1.812,1.812,0,0,1,333.627,327.442Zm-14.222-.4h0l2.288,5.081h.5l2.3-5.081h-.5l-2.044,4.546-2.025-4.546h-.516Zm-17.793,0v5.081h.487v-2.648a1.755,1.755,0,0,1,1.8-2.005.494.494,0,0,1,.056,0,.533.533,0,0,0,.061,0V327a1.922,1.922,0,0,0-1.938,1.149v-1.11Zm-15.485.4a1.534,1.534,0,0,1,1.645,1.752v2.93h.486v-2.969A1.938,1.938,0,0,0,286.195,327a2.113,2.113,0,0,0-2.015,1.139v-1.1h-.467v5.081h.487v-2.706A1.812,1.812,0,0,1,286.127,327.442Zm-14.435,1.967h0l2.16,2.715h.6l-2.4-3.028,2.191-2.054h-.623l-3.252,2.969V324.9h-.487v7.223h.487v-1.509l1.323-1.206Zm-11.768-1.967a1.534,1.534,0,0,1,1.645,1.752v2.93h.487v-2.969A1.938,1.938,0,0,0,259.992,327a2.087,2.087,0,0,0-2.015,1.139v-1.1h-.467v5.081H258v-2.706A1.811,1.811,0,0,1,259.924,327.442Zm-19.681-2.132v6.815h4.42v-.448h-3.923V325.31Zm-6.793,2.132a1.534,1.534,0,0,1,1.645,1.752v2.93h.486v-2.969A1.938,1.938,0,0,0,233.517,327a2.113,2.113,0,0,0-2.015,1.139v-1.1h-.467v5.081h.487v-2.706A1.812,1.812,0,0,1,233.449,327.442Zm-14.076-.4h0l2.288,5.081h.5l2.3-5.081h-.5l-2.045,4.546-2.024-4.546h-.517Zm-44.365.4a1.534,1.534,0,0,1,1.645,1.752v2.93h.487v-2.969A1.938,1.938,0,0,0,175.077,327a2.1,2.1,0,0,0-2,1.1v-3.2h-.487v7.223h.487v-2.706A1.811,1.811,0,0,1,175.009,327.442Zm-8.751-.4v5.081h.487v-2.648a1.755,1.755,0,0,1,1.8-2.005.5.5,0,0,1,.056,0,.527.527,0,0,0,.061,0V327a1.922,1.922,0,0,0-1.938,1.149v-1.11Zm-17.179-1.032v0l2.111,6.111h.526l2.308-6.815h-.487l-2.093,6.143-2.122-6.143h-.477l-2.132,6.134-2.074-6.134h-.526l2.318,6.815h.526l2.121-6.111Zm203.978-46.865a18.852,18.852,0,0,0-13.26,5.105,18.353,18.353,0,0,0-.006,25.736,18.772,18.772,0,0,0,13.215,5.105c5.309,0,9.917-1.846,12.974-5.2l-2.372-2.373a13.543,13.543,0,0,1-4.79,3.237,15.407,15.407,0,0,1-5.661,1,15.1,15.1,0,0,1-10.671-4.178,14.949,14.949,0,0,1,0-20.927,15.1,15.1,0,0,1,10.671-4.178,15.532,15.532,0,0,1,5.661,1,13.656,13.656,0,0,1,4.79,3.193l2.372-2.372C362.953,280.975,358.364,279.146,353.057,279.146Zm59.169.3,0,0,14.134,23.12v12.217h3.686V302.572l14.136-23.123h-3.736L428.331,299.29l-12.117-19.841H383.65v3.232h12.419v32.109h3.736V282.68h12.42v-3.231Zm-38.268,0v35.34h3.736v-35.34Zm-86.836,6.664,0,0,22.717,28.674h3.08v-35.34h-3.685v28.676l-22.769-28.676h-3.08v35.34h3.736V286.113Zm-37.511-6.665v35.341H274.6v-3.231H253.346V298.432h18.276v-3.181H253.346V282.68h20.5v-3.232Zm-24.94,18.731h0l14.439,16.61h4.442L227.2,295.453l15.3-16H238.2L217.451,300.8V279.449h-3.736v35.34h3.736V305.5l7.219-7.32Zm-44.68,7.169h19.69l4.241,9.441h3.938L191.7,279.449h-3.685l-16.156,35.34h3.887l4.24-9.44Zm-39.782-19.236,0,0,22.717,28.674h3.08v-35.34h-3.686v28.676l-22.77-28.676h-3.08v35.34h3.737V286.113Zm-37.462,19.236h19.69l4.241,9.441h3.938l-16.156-35.34h-3.686l-16.156,35.34h3.887l4.241-9.44Zm-32.31-25.9v35.34H93.963v-3.231H74.173V279.449Zm108.385-11.07v.586h46.631v-.586ZM169,266.913v.585H225.45v-.585ZM158.145,265.3v.585l67.012.148.292,0,0-.588-67.012-.148Zm-8.8-1.318v.585h76.1v-.585Zm-9.533-1.467v.586H225.45v-.586Zm136.151-6.452h30.94v3.52h.589l13.415,0v-32.4l-.07-.192-2.08-2.448h2.166l.211-.09,11.736-12.082h.062V212.3l3.213-3.308h.013v-.013l5.257-5.413h11.955v1.615h.585v-6.893l-.031-.131-.081-.163h1.984l-.08.161-.031.13v6.9h.586v-1.614h55.373v1.614h.588v-6.9l-.031-.13-.081-.161h1.984l-.082.163-.031.131v6.893h.585v-1.615h11.957l5.255,5.411v.014h.014l3.213,3.308v.064h.062l11.735,12.082.21.09h2.168l-2.083,2.448-.07.192v31.819h-.055v.586H457.2v-.586h-9.545V227.283l2.422-2.851-.222-.484h-2.677L435.634,212.06V201.008l.52-.627.026-.337-.44-.735-.254-.141h-3.375l-.206.086-.584.588v.414l.5.5v7.38l-4.921-5.066-.211-.088h-12.08v-4.623l.265-.527-.265-.422h-2.932l-.262.422.262.524v4.626H356.3v-4.626l.262-.524-.262-.422h-2.932l-.262.422.262.527v4.623h-12.08l-.21.088-4.922,5.068v-7.382l.5-.5,0-.414-.584-.588-.209-.086H332.5l-.251.141-.44.735.024.337.519.627v11.055L320.8,223.948h-2.677l-.224.484,2.424,2.851v31.711h-12.83v-2.932h.585l.293-.293V254.45l-.293-.292H294.832l.378-24.86a14.572,14.572,0,0,1,.189-1.836h.433l-.086.346.473.3,1.3-1.1,1.306,1.1.477-.3-.086-.346H300.7l-.043.383.551.171.42-.781.42.781.551-.171-.231-2.028.621-1.257-.247-.423-.583-.031-.24-1.845h-.581l-.239,1.845-.586.031-.013.023h-.538l-.007-.02-1.607-.04-.539-1.878h-.564L296.7,224.1l-.378.009a14,14,0,0,1,4.153-5.736,14.627,14.627,0,0,1,8.285-3.2l.275-.292v-1.931l-.3-.293a16.707,16.707,0,0,0-9.778,3.335,16.066,16.066,0,0,0-5.518,7.979l-.732-.015v-8.692l-.293-.293h-2.113l-.3.293V216.8l0,7.158-.735.016a16.069,16.069,0,0,0-5.52-7.98,16.7,16.7,0,0,0-9.777-3.335l-.3.293v1.93l.275.293a14.609,14.609,0,0,1,8.284,3.2,14.005,14.005,0,0,1,4.153,5.733l-.37-.009-.54-1.878h-.563l-.539,1.878-1.607.04-.007.02h-.544l-.013-.023-.586-.031-.24-1.845h-.581l-.24,1.845-.583.031-.247.423.621,1.257-.231,2.028.55.171.42-.781.421.781.55-.171-.043-.383h1.488l-.086.346.473.3,1.306-1.1,1.3,1.1.478-.3-.086-.346h.425a14.676,14.676,0,0,1,.19,1.831l.379,24.864h-13.1l-.293.292v1.318l.293.293h.588v2.932H264.972V224.1l-.293-.293H140.214l-.3.293v34.9H130.28v-3.666l-.293-.292h-6.305v-35.2l-.105-.227-.775-.643v-9.99l-.042-.152-.88-1.458-.251-.14h-1.052l-.9-1.337-.491.009-.192.306v-7.043l-.561-.117-.95,2.171H116.4l-2.419-5.975-.537-.014c-.446.967-.893,2.046-1.325,3.091l0,.006c-.362.874-.811,1.962-1.235,2.892H109.9v-2.644l-.88-8.093-.581-.006-1.081,8.064,0,2.681h-.62V184.213l-.055-.172-2.061-2.856V162.669l.31-.207.13-.245v-1.058l.645-.639.088-.209v-.881l-.293-.293h-.906l-2.783-3.071L96.989,134h-.572L91.6,156.066l-2.783,3.071h-.907l-.293.293v.881l.088.209.645.639v1.058l.13.245.31.207v18.517l-2.06,2.856-.055.172v17.008H86.05v-2.643l-1.079-8.1-.581.007-.88,8.059,0,2.675h-.984c-.4-.884-.815-1.875-1.237-2.9l-.011-.026c-.431-1.04-.876-2.115-1.314-3.066l-.537.014L77,201.219H75.927l-.949-2.171-.562.117v7.043l-.191-.306-.491-.009-.9,1.337H71.78l-.251.14-.88,1.458-.042.152v9.99l-.775.643-.105.227v35.2H63.42l-.292.292v3.666h-6.6v.586h6.6l.585,0v-3.958h6.312l.293-.293v-35.35l.775-.643.105-.227V209.066l.753-1.246h1.043l.242-.13.738-1.092.493.79.541-.157V200.57l.464,1.061.269.176h1.466l.271-.183,2.235-5.523c.345.779.686,1.6,1.034,2.445.435,1.051.883,2.135,1.326,3.092l.266.169h1.466l.292-.293v-2.921l.617-5.64.753,5.645v2.917l.293.293h1.207l.292-.293V184.3l2.061-2.855.055-.172v-18.77l-.13-.244-.311-.207v-1.026l-.088-.21-.645-.638v-.464h.744l.218-.1,2.921-3.225.068-.135,4.552-20.83,4.553,20.83.068.135,2.921,3.225.218.1h.744v.464l-.645.638-.088.21v1.026l-.311.207-.13.244v18.77l.055.172,2.065,2.853v17.209l.293.293h1.207l.292-.293v-2.917l.753-5.645.616,5.64v2.921l.293.293h1.466l.266-.17c.456-.987.917-2.1,1.325-3.091.316-.764.682-1.645,1.035-2.446l2.235,5.524.271.183h1.466l.268-.176.465-1.061v6.662l.541.157.493-.791.738,1.093.242.13h1.043l.753,1.247v10.045l.105.227.775.644v35.352l.293.293h6.3v3.958h.581l6.016,0,3.917,0,.293-.3v-34.9H264.387v34.9l.292.3H268.6l6.785,0,.585,0v-3.519ZM212,245.393v14.188h.586V245.393Zm-18.329,0v14.188h.585V245.393Zm63.146-1.6h4.2V259.58h.586V243.795h1.682v-.586h-1.682V227.941h-.586v15.268h-4.2V227.941h-.585V243.21h-4.2V227.941h-.585V243.21h-4.2V227.941h-.586v15.269h-4.2v-15.27h-.585v15.27h-4.2v-15.27h-.586v15.271h-4.2V227.941H232.3v15.271h-4.2V227.941h-.586v15.272h-4.2V227.941h-.586v15.272h-4.2V227.941h-.586v15.272h-1.814v.586h1.814V259.58h.586V243.8h4.2V259.58h.586V243.8h4.2V259.58h.586V243.8h4.2V259.58h.586V243.8h4.2V259.58h.586V243.8h4.2V259.58h.585V243.8h4.2V259.58h.586V243.8h4.2V259.58h.585V243.795h4.2V259.58h.585V243.8Zm-73.359,0h4.2V259.58h.586V243.795h1.684v-.586h-1.684V227.941h-.586v15.268h-4.2V227.941h-.586V243.21h-4.2V227.941h-.586V243.21h-4.2V227.941H173.3v15.269h-4.2v-15.27h-.585v15.27h-4.2v-15.27h-.586v15.271h-4.2V227.941h-.586v15.271h-4.2V227.941h-.585v15.272h-4.2V227.941h-.585v15.272h-4.2V227.941h-.586v15.272h-1.812v.586h1.812V259.58h.586V243.8h4.2V259.58h.585V243.8h4.2V259.58h.585V243.8h4.2V259.58h.586V243.8h4.2V259.58h.586V243.8h4.2V259.58h.585V243.8h4.2V259.58h.586V243.8h4.2V259.58h.586V243.795h4.2V259.58h.586V243.8ZM366.22,258.554v.585h35.487v-.585Zm2.055-1.319v.585h31.38v-.585Zm2.492-1.321v.586H397.16v-.586Zm23.021-13.782A2.794,2.794,0,0,0,391,244.885l-.033.032v9.971l.293.292h5.053l.291-.292v-9.971l-.033-.032A2.794,2.794,0,0,0,393.788,242.132Zm-9.825,0a2.8,2.8,0,0,0-2.786,2.752l-.032.032v9.971l.292.292h5.053l.291-.292v-9.971l-.033-.032A2.793,2.793,0,0,0,383.963,242.132Zm-9.824,0a2.794,2.794,0,0,0-2.785,2.752l-.033.032v9.971l.293.292h5.053l.291-.292v-9.971l-.033-.032A2.794,2.794,0,0,0,374.139,242.132ZM93.187,238.172h7.186v16.717l.293.292h1.759l.3-.292-.473-41.882,0-.027a8.542,8.542,0,0,0-5.278-7.043l-.192-.011A7.989,7.989,0,0,0,91,212.987v41.9l.293.292h1.6l.292-.292V238.173Zm344.739,2.787-.292.293v1.025l.292.293h.441v9.973l.293.292h4.692l.293-.3v-9.97h.44l.293-.293v-1.025l-.293-.293Zm-9.09,0-.292.293v1.025l.292.293h.441v9.973l.293.292h4.692l.292-.3v-9.97h.44l.293-.293v-1.025l-.293-.293Zm-9.092,0-.293.293v1.025l.293.293h.44v9.973l.293.292h4.691l.293-.3v-9.97h.44l.293-.293v-1.025l-.293-.293Zm-9.09,0-.293.293v1.025l.293.293h.438v9.973l.293.292h4.692l.293-.3v-9.97h.443l.292-.293v-1.025l-.292-.293Zm-58.8,0-.293.293v1.025l.293.293h.441v9.973l.293.292h4.692l.293-.3v-9.97h.44l.293-.293v-1.025l-.293-.293Zm-9.09,0-.293.293v1.025l.293.293h.441v9.973l.293.292h4.692l.293-.3v-9.97h.44l.293-.293v-1.025l-.293-.293Zm-9.092,0-.293.293v1.025l.293.293h.44v9.973l.293.292h4.692l.293-.3v-9.97h.441l.293-.293v-1.025l-.293-.293Zm-9.09,0-.293.293v1.025l.293.293h.44v9.973l.293.292H330l.292-.3v-9.97h.44l.293-.293v-1.025l-.293-.293Zm-130.544-1.631-.292.292v4.141l.292.293h18.244l.292-.293v-4.141l-.292-.292Zm-80.2-26.108h0a4.264,4.264,0,0,1,2.539,3.46l.264,22.667.59-.007-.265-22.682,0-.027a4.848,4.848,0,0,0-3-4l-.192-.012a4.543,4.543,0,0,0-3.282,4.014v22.7h.585V216.674a3.953,3.953,0,0,1,2.758-3.454Zm-33.872,0h0a4.265,4.265,0,0,1,2.539,3.46l.264,22.667.59-.007-.265-22.682,0-.027a4.847,4.847,0,0,0-3-4l-.191-.012a4.542,4.542,0,0,0-3.283,4.014v22.7H77.2V216.674a3.953,3.953,0,0,1,2.758-3.454Zm114.3,15.309H212v9.936h.586V228.236l-.292-.3h-18.33l-.292.3v10.229h.588V228.53Zm196.176.846-.292.292v1.105l.292.292h.5v6.814l.293.293h5.052l.293-.293v-6.814h.495l.293-.292v-1.105l-.293-.292Zm-9.79,0-.292.292v1.105l.292.292h.5v6.814l.292.293h5.053l.292-.293v-6.814h.5l.293-.292v-1.105l-.293-.292Zm-9.79,0-.292.292v1.105l.292.292h.5v6.814l.292.293H376.7l.292-.293v-6.814h.5l.293-.292v-1.105l-.293-.292Zm67.069.294-.292.293v1.026l.292.293h.441v6.305l.293.292h4.692l.293-.292v-6.305h.44l.293-.293v-1.026l-.293-.293Zm-9.09,0-.292.293v1.026l.292.293h.441v6.305l.293.292h4.692l.292-.292v-6.305h.44l.293-.293v-1.026l-.293-.293Zm-9.092,0-.293.293v1.026l.293.293h.44v6.305l.293.292h4.691l.293-.292v-6.305h.44l.293-.293v-1.026l-.293-.293Zm-9.09,0-.293.293v1.026l.293.293h.438v6.305l.293.292h4.692l.293-.292v-6.305h.443l.292-.293v-1.026l-.292-.293Zm-58.8,0-.293.293v1.026l.293.293h.441v6.305l.293.292h4.692l.293-.292v-6.305h.44l.293-.293v-1.026l-.293-.293Zm-9.09,0-.293.293v1.026l.293.293h.441v6.305l.293.292h4.692l.293-.292v-6.305h.44l.293-.293v-1.026l-.293-.293Zm-9.092,0-.293.293v1.026l.293.293h.44v6.305l.293.292h4.692l.293-.292v-6.305h.441l.293-.293v-1.026l-.293-.293Zm-9.09,0-.293.293v1.026l.293.293h.44v6.305l.293.292H330l.292-.292v-6.305h.44l.293-.293v-1.026l-.293-.293Zm59.553-17.291a26.639,26.639,0,0,0-22.059,11.7l.242.458h43.634l.242-.458A26.639,26.639,0,0,0,384.132,212.378Zm46.194,4.676a2.863,2.863,0,0,0-2.859,2.86v.292h1.127v1.453l-.975,1.385.239.463h4.936l.239-.463-.976-1.385v-1.453h1.128v-.292A2.863,2.863,0,0,0,430.326,217.055Zm-18.185,0a2.863,2.863,0,0,0-2.859,2.86v.292h1.127v1.453l-.975,1.385.239.463h4.936l.239-.463-.975-1.385v-1.453H415v-.292A2.863,2.863,0,0,0,412.142,217.055Zm-56.306,0a2.863,2.863,0,0,0-2.86,2.86v.292H354.1v1.453l-.976,1.385.24.463H358.3l.24-.463-.976-1.385v-1.453H358.7v-.292A2.863,2.863,0,0,0,355.836,217.055Zm-18.184,0a2.863,2.863,0,0,0-2.86,2.86v.292h1.128v1.453l-.976,1.385.24.463h4.936l.24-.463-.976-1.385v-1.453h1.127v-.292A2.863,2.863,0,0,0,337.651,217.055Zm101.8,2.642a1.759,1.759,0,1,0,1.759,1.759A1.761,1.761,0,0,0,439.448,219.7Zm-18.233,0a1.759,1.759,0,1,0,1.247,3,1.74,1.74,0,0,0,.512-1.241A1.761,1.761,0,0,0,421.214,219.7Zm-74.447,0a1.759,1.759,0,1,0,1.759,1.759A1.761,1.761,0,0,0,346.767,219.7Zm-18.23,0a1.759,1.759,0,1,0,1.759,1.759A1.761,1.761,0,0,0,328.537,219.7Zm98.447-9.384a.734.734,0,0,1,.734.733v.293h.586v-.293a1.319,1.319,0,0,0-2.638,0v.293h.586v-.293A.733.733,0,0,1,426.984,210.312Zm-17.2,0a.734.734,0,0,1,.733.733v.293h.586v-.293a1.319,1.319,0,0,0-2.638,0v.293h.586v-.293A.733.733,0,0,1,409.788,210.312Zm-17.2,0a.734.734,0,0,1,.733.733v.293h.585v-.293a1.318,1.318,0,1,0-2.637,0v.293h.586v-.293A.733.733,0,0,1,392.59,210.312Zm-17.2,0a.734.734,0,0,1,.733.733v.293h.586v-.293a1.319,1.319,0,0,0-2.638,0v.293h.586v-.293A.733.733,0,0,1,375.394,210.312Zm-17.2,0a.733.733,0,0,1,.733.733v.293h.586v-.293a1.319,1.319,0,0,0-2.638,0v.293h.586v-.293A.734.734,0,0,1,358.2,210.312Zm-17.2,0a.733.733,0,0,1,.733.733v.293h.586v-.293a1.319,1.319,0,1,0-2.637,0v.293h.585v-.293A.734.734,0,0,1,341,210.312ZM96.778,182.524a2.933,2.933,0,1,0,2.932,2.933A2.936,2.936,0,0,0,96.778,182.524Zm3.2-21.552h.016a1.106,1.106,0,0,1,.707.411,2.8,2.8,0,0,1,.623,2.058v.024l.152,17.449.583,0-.152-17.438a3.35,3.35,0,0,0-.772-2.483,1.634,1.634,0,0,0-1.125-.606h-.025a1.707,1.707,0,0,0-1.167.571,3.352,3.352,0,0,0-.869,2.515v16.193h.586V163.45a2.8,2.8,0,0,1,.7-2.084A1.148,1.148,0,0,1,99.979,160.971Zm-6.3-.586a1.706,1.706,0,0,0-1.166.571,3.354,3.354,0,0,0-.87,2.515v17.443h.586V163.45a2.8,2.8,0,0,1,.7-2.084,1.148,1.148,0,0,1,.739-.394h.016a1.1,1.1,0,0,1,.706.411,2.8,2.8,0,0,1,.623,2.058v.024l.152,16.2.583,0L95.6,163.474a3.354,3.354,0,0,0-.773-2.483,1.634,1.634,0,0,0-1.125-.606Zm203.7,171.379c-.884,0-1.412-.4-1.412-1.071s.492-1.022,1.422-1.022h1.733v.954A1.741,1.741,0,0,1,297.379,331.764Zm-5.675,0c-.884,0-1.411-.4-1.411-1.071s.491-1.022,1.421-1.022h1.733v.954A1.741,1.741,0,0,1,291.7,331.764Zm-44.473,0c-.884,0-1.411-.4-1.411-1.071s.491-1.022,1.421-1.022h1.733v.954A1.741,1.741,0,0,1,247.231,331.764Zm-20.43,0c-.884,0-1.411-.4-1.411-1.071s.491-1.022,1.421-1.022h1.732v.954A1.739,1.739,0,0,1,226.8,331.764Zm-64.777,0c-.884,0-1.412-.4-1.412-1.071s.491-1.022,1.421-1.022h1.733v.954A1.741,1.741,0,0,1,162.024,331.764Zm-5.675,0c-.884,0-1.411-.4-1.411-1.071s.491-1.022,1.421-1.022h1.732v.954A1.739,1.739,0,0,1,156.349,331.764Zm191.42-.04a2.144,2.144,0,1,1,2.045-2.141A2.025,2.025,0,0,1,347.769,331.725Zm-31.264,0a2.144,2.144,0,1,1,2.045-2.141A2.025,2.025,0,0,1,316.5,331.725Zm-6.034,0a2.143,2.143,0,1,1,2.054-2.141A2.025,2.025,0,0,1,310.47,331.725Zm-57.01,0a2.144,2.144,0,1,1,2.045-2.141A2.025,2.025,0,0,1,253.461,331.725Zm-59.6,0a2.143,2.143,0,1,1,2.055-2.141A2.025,2.025,0,0,1,193.862,331.725Zm135.365-2.4h-3.894a1.948,1.948,0,0,1,3.894,0Zm-50,0h-3.894a1.948,1.948,0,0,1,3.894,0Zm-11.33,0H264a1.948,1.948,0,0,1,3.893,0Zm-52.007,0H212a1.948,1.948,0,0,1,3.893,0Zm-14.152,0h-3.894a1.948,1.948,0,0,1,3.894,0Zm-18.756,0h-3.894a1.948,1.948,0,0,1,3.894,0Zm15.336-27H181.354l8.482-18.983,8.481,18.981Zm-77.243,0H104.11l8.482-18.983,8.481,18.981Zm186.714-46.843h-32.7v-.733h19.475l.26,0,12.964,0v.732Zm-205.66-.879h-1.169V237.879l-.292-.292H92.894l-.293.292V254.6H91.589V213.019a7.4,7.4,0,0,1,5.249-6.5,7.958,7.958,0,0,1,4.821,6.508l.469,41.572Zm-5.288-44.214h0a4.264,4.264,0,0,1,2.539,3.46c.048,4.211.09,7.648.13,10.814.016,1.3.031,2.606.047,3.928l0,.128c.026,2.176.053,4.4.081,6.771l0,.293.588-.009,0-.292c-.037-3.385-.076-6.5-.113-9.506l-.016-1.321-.036-2.98c-.031-2.518-.062-5.089-.094-7.847l0-.027a4.845,4.845,0,0,0-3-4l-.192-.012A4.54,4.54,0,0,0,93.5,213.8v21.971h.585V213.836a3.953,3.953,0,0,1,2.758-3.454ZM396.023,254.6h-4.465V244.95l.033-.033a2.2,2.2,0,0,1,4.4,0l.033.033v9.644Zm-9.825,0h-4.465V244.95l.033-.033a2.2,2.2,0,0,1,4.4,0l.033.033v9.644Zm-9.823,0h-4.465V244.95l.033-.033a2.2,2.2,0,0,1,4.4,0l.033.033v9.644Zm-82.128-.438h-1.531l.383-24.674a15.4,15.4,0,0,1,.1-1.6l.336-.241-.056-.184h1.329a15.159,15.159,0,0,0-.184,1.822l-.378,24.872Zm-2.12,0H290.6V227.409l.836-.582.689.48v26.85Zm-2.113,0h-1.528l-.381-24.875a15.149,15.149,0,0,0-.184-1.821H289.4l-.056.184.173.125a15.582,15.582,0,0,1,.113,1.715l.383,24.67Zm153.046-1.909h-4.107v-9.678h4.107v9.677Zm-9.093,0H429.86v-9.678h4.106v9.677Zm-9.09,0H420.77v-9.678h4.106v9.677Zm-9.093,0h-4.106v-9.678h4.106v9.677Zm-58.8,0h-4.106v-9.678h4.106v9.677Zm-9.09,0h-4.106v-9.678h4.106v9.677Zm-9.092,0h-4.106v-9.678H338.8v9.677Zm-9.093,0H325.6v-9.678h4.106v9.677Zm-117.722-8.78H194.33v-3.553h17.656v3.552Zm231.8-1.484h-5.572v-.44h5.572v.439Zm-9.092,0h-5.573v-.44H434.7v.439Zm-9.091,0h-5.572v-.44h5.572v.439Zm-9.092,0h-5.572v-.44h5.572v.439Zm-58.8,0h-5.572v-.44h5.572v.439Zm-9.09,0h-5.572v-.44h5.572v.439Zm-9.093,0h-5.572v-.44h5.572v.439Zm-9.092,0h-5.572v-.44h5.572v.439Zm65.546-4.4H391.52v-6.519h4.468v6.518Zm-9.79,0h-4.467v-6.519H386.2v6.518Zm-9.79,0h-4.468v-6.519h4.468v6.518Zm66.651-.3h-4.107v-6.01h4.107v6.009Zm-9.093,0H429.86v-6.01h4.106v6.009Zm-9.09,0H420.77v-6.01h4.106v6.009Zm-9.093,0h-4.106v-6.01h4.106v6.009Zm-58.8,0h-4.106v-6.01h4.106v6.009Zm-9.09,0h-4.106v-6.01h4.106v6.009Zm-9.092,0h-4.106v-6.01H338.8v6.009Zm-9.093,0H325.6v-6.01h4.106v6.009Zm114.083-6.6h-5.572v-.44h5.572v.439Zm-9.092,0h-5.573v-.44H434.7v.439Zm-9.091,0h-5.572v-.44h5.572v.439Zm-9.092,0h-5.572v-.44h5.572v.439Zm-58.8,0h-5.572v-.44h5.572v.439Zm-9.09,0h-5.572v-.44h5.572v.439Zm-9.093,0h-5.572v-.44h5.572v.439Zm-9.092,0h-5.572v-.44h5.572v.439Zm66.336-.213h-6.045v-.52h6.045v.519Zm-9.79,0h-6.045v-.52h6.045v.519Zm-9.793,0h-6.045v-.52h6.045v.519Zm-80.67-3.411v0l.309-1.232-.085-.286-.711-.653.067-.2.822-.02.275-.212.317-1.1.317,1.1.275.212,1.1.026-.918.843-.086.286.307,1.23-.8-.673h-.379l-.805.676Zm-12.316,0v0l.31-1.232-.086-.286-.918-.843,1.1-.026.275-.212.317-1.1.318,1.1.275.212.824.02c.023.065.046.13.068.194l-.713.655-.086.286.308,1.23-.8-.673h-.378l-.806.676Zm5.937-.06v0l.4-1.3-.1-.32-.948-.718-.016-.054-.016-.054,1.257-.026.27-.2.449-1.288.45,1.288.27.2,1.112.023c-.024.085-.048.167-.071.25l-.763.579-.1.32.392,1.3-1.12-.777h-.334l-1.121.779Zm10.63-.209h-1.72l-.234-.938,1.136-1.043h.437l.492,1-.112.983Zm-4.781,0h-.473c.091-.44.2-.874.322-1.292l.385.354L296,226.8Zm-1.068,0h-1.575c.095-.554.215-1.107.356-1.645l.442-.336h.943l.274.252a16.96,16.96,0,0,0-.441,1.728Zm-5.552,0H287.8a17.044,17.044,0,0,0-.44-1.723l.28-.257h1.085l.255.193c.161.59.293,1.191.394,1.786Zm-2.171,0h-.465l-.234-.938.379-.347c.126.43.233.862.32,1.284Zm-3.526,0h-1.727l-.111-.984.492-1h.443l1.137,1.043-.234.937Zm18.177-.323H301.4l.077-.68-.029-.163-.463-.936.385-.02.256-.238.256.238.383.02-.463.936-.029.163.077.679Zm-20.53,0h-.451l.079-.68-.029-.163-.463-.936.383-.02.256-.238.256.238.383.02-.462.936-.029.163.076.679Zm13.766-2.318h-.658l-.055-.167-.319-.006a15.474,15.474,0,0,1,5.264-7.525,16.146,16.146,0,0,1,9.131-3.206v1.356a15.261,15.261,0,0,0-8.344,3.311,14.6,14.6,0,0,0-4.415,6.2l-.6.014-.007.019Zm-6.646,0h-.8l-.007-.02-.6-.015a14.6,14.6,0,0,0-4.415-6.2,15.29,15.29,0,0,0-8.344-3.311v-1.356a16.162,16.162,0,0,1,9.132,3.206,15.465,15.465,0,0,1,5.265,7.526l-.171,0-.055.167Zm116.943-.212H362.876a26.057,26.057,0,0,1,42.51,0ZM290.6,223.66h0v-6.565h1.525v6.146l-.411-1.184h-.554Zm141.625-.738h-3.8l.7-1,.053-.169v-1.838l-.292-.293h-.814a2.273,2.273,0,0,1,4.508,0h-.814l-.293.293v1.838l.053.169.7,1Zm-18.183,0h-3.8l.7-1,.052-.169v-1.838l-.293-.293h-.814a2.274,2.274,0,0,1,4.509,0h-.815l-.293.293v1.838l.053.169.7,1Zm-56.309,0h-3.8l.7-1,.052-.169v-1.838l-.293-.293h-.814a2.274,2.274,0,0,1,4.509,0h-.815l-.293.293v1.838l.053.169.7,1Zm-18.182,0h-3.8l.7-1,.053-.169v-1.838l-.292-.293H335.4a2.274,2.274,0,0,1,4.509,0h-.815l-.293.293v1.838l.052.169.7,1Zm99.892-.292a1.174,1.174,0,1,1,1.174-1.174A1.175,1.175,0,0,1,439.448,222.629Zm-18.233,0a1.174,1.174,0,1,1,1.174-1.174A1.175,1.175,0,0,1,421.214,222.629Zm-74.447,0a1.174,1.174,0,1,1,1.174-1.174A1.175,1.175,0,0,1,346.767,222.629Zm-18.23,0a1.174,1.174,0,1,1,1.174-1.174A1.175,1.175,0,0,1,328.537,222.629Zm-36.411-6.121H290.6v-.95h1.524v.949Zm142.924-5.051,0,0-2.638-2.715v-8.107l-.086-.207-.381-.381.291-.292h3.089l.248.414-.455.548-.066.187v10.555Zm-102.114,0V200.9l-.068-.187-.454-.548.247-.414h3.089l.291.292-.378.381-.086.207v8.106l-2.638,2.716ZM96.778,187.8A2.347,2.347,0,1,1,99,184.717l-1.934.387v-1.332h-.586v1.45l-.056.011.056.28v.237h.047l.012.058.288-.058h.239V185.7l2.048-.41c0,.066.005.117.005.166A2.349,2.349,0,0,1,96.778,187.8Z" fill="#fff"/>
</svg>
