<?xml version="1.0" encoding="UTF-8"?>
<svg id="Laag_2" data-name="Laag 2" xmlns="http://www.w3.org/2000/svg" viewBox="0 0 377.25 123.2">
  <defs>
    <style>
      .cls-1 {
        fill: #33333a;
      }
    </style>
  </defs>
  <g id="Laag_1-2" data-name="Laag 1">
    <g>
      <g>
        <path class="cls-1" d="m61.6,0C27.59,0,0,27.59,0,61.6s27.59,61.6,61.6,61.6,61.6-27.59,61.6-61.6S95.61,0,61.6,0Zm-11.86,104.36c-19.17-2.95-32.49-13.06-32.49-24.74,0-7.65,5.62-14.76,15.45-19.61,1.64,2.1,3.23,4.16,4.75,6.13-7.96,3.52-12.65,8.52-12.65,13.47,0,7.26,10.86,15.73,29.13,17.66-1.21,2-2.59,4.39-4.18,7.08Zm18.63.56l-4.65-7.29c20.51-.67,34.19-9.73,34.19-18.02,0-1.98-.67-3.85-1.87-5.57-8.01,5.88-20.46,9.62-34.7,9.62-1.23,0-2.44-.05-3.64-.1l-3.59-.18c-.03-21.87-.05-43.76-.08-65.63l7.55-3.36v18.07h.77c24.18.31,43.12,11.55,43.12,25.59,0,3.88-1.41,7.52-3.95,10.78,2.54,3.26,3.95,6.9,3.95,10.78.03,12.78-15.55,23.38-37.09,25.31Z"/>
        <path class="cls-1" d="m62.45,39.99h-.8v14.01c14.04.05,26.33,3.75,34.32,9.55,1.26-1.8,1.95-3.67,1.95-5.49,0-8.47-14.24-17.74-35.47-18.07Z"/>
        <path class="cls-1" d="m61.65,76.13h.8c11.91-.18,21.61-3.18,27.85-7.29-7.14-4.49-18.22-7.24-28.64-7.29v14.58h0Z"/>
      </g>
      <g>
        <g>
          <path class="cls-1" d="m140.37,64.24V15.13h8.88v19.4c1.49-2.37,5.16-4.54,10.11-4.54,9.77,0,15.4,7.53,15.4,17.43s-6.24,17.63-15.74,17.63c-4.61,0-8.14-2.03-9.9-4.88v4.07h-8.75Zm17.09-26.18c-4.54,0-8.34,3.32-8.34,9.43s3.8,9.5,8.34,9.5,8.27-3.39,8.27-9.5-3.66-9.43-8.27-9.43Z"/>
          <path class="cls-1" d="m181.88,64.24V15.13h9.02v49.1h-9.02Z"/>
          <path class="cls-1" d="m230.44,54.68c-1.7,5.77-6.99,10.58-15.19,10.58-9.16,0-17.23-6.58-17.23-17.84,0-10.65,7.87-17.57,16.41-17.57,10.31,0,16.48,6.58,16.48,17.29,0,1.29-.14,2.65-.14,2.78h-23.87c.2,4.41,3.93,7.6,8.41,7.6,4.2,0,6.51-2.1,7.6-5.09l7.53,2.24Zm-8.41-10.92c-.14-3.32-2.31-6.58-7.46-6.58-4.68,0-7.26,3.53-7.46,6.58h14.92Z"/>
          <path class="cls-1" d="m247.06,64.24h-9.02V30.87h8.75v4.14c2.03-3.46,6.04-5.02,9.63-5.02,8.27,0,12.07,5.9,12.07,13.23v21.03h-9.02v-19.47c0-3.73-1.83-6.65-6.17-6.65-3.93,0-6.24,3.05-6.24,6.92v19.19Z"/>
          <path class="cls-1" d="m309.46,58.2c0,2.24.14,4.68.27,6.04h-8.61c-.14-.68-.34-2.31-.34-3.87-1.49,2.65-4.88,4.68-9.36,4.68-9.49,0-16.28-7.46-16.28-17.57s6.58-17.43,16.01-17.43c5.76,0,8.48,2.37,9.43,4.14V15.13h8.88v43.07Zm-16.96-1.22c4.61,0,8.21-3.53,8.21-9.56s-3.59-9.29-8.21-9.29-8.27,3.39-8.27,9.36,3.53,9.5,8.27,9.5Z"/>
          <path class="cls-1" d="m349.13,54.68c-1.7,5.77-6.99,10.58-15.19,10.58-9.16,0-17.23-6.58-17.23-17.84,0-10.65,7.87-17.57,16.41-17.57,10.31,0,16.48,6.58,16.48,17.29,0,1.29-.14,2.65-.14,2.78h-23.87c.2,4.41,3.93,7.6,8.41,7.6,4.2,0,6.51-2.1,7.6-5.09l7.53,2.24Zm-8.41-10.92c-.14-3.32-2.31-6.58-7.46-6.58-4.68,0-7.26,3.53-7.46,6.58h14.92Z"/>
          <path class="cls-1" d="m377.08,39.82c-1.02-.2-1.9-.27-2.71-.27-4.61,0-8.61,2.24-8.61,9.43v15.26h-9.02V30.87h8.75v4.95c2.03-4.41,6.65-5.22,9.5-5.22.75,0,1.42.07,2.1.14v9.09Z"/>
        </g>
        <g>
          <path class="cls-1" d="m140.4,107.3v-24.54h4.59v3.27c1.53-2.7,4.59-3.98,7.45-3.98,3.06,0,6.02,1.48,7.35,4.64,1.94-3.52,5.1-4.64,8.21-4.64,4.29,0,8.47,2.91,8.47,9.34v15.92h-4.75v-15.41c0-3.21-1.58-5.61-5.2-5.61-3.37,0-5.66,2.65-5.66,6.17v14.85h-4.8v-15.41c0-3.16-1.53-5.61-5.2-5.61-3.42,0-5.71,2.55-5.71,6.22v14.8h-4.75Z"/>
          <path class="cls-1" d="m190.04,93.27l6.63-.97c1.48-.2,1.89-.97,1.89-1.84,0-2.4-1.58-4.39-5.31-4.39-3.37,0-5.26,2.09-5.56,4.95l-4.59-1.07c.51-4.69,4.75-7.96,10.05-7.96,7.35,0,10.2,4.18,10.2,8.98v12.3c0,2.14.2,3.42.31,4.03h-4.69c-.1-.61-.26-1.53-.26-3.32-1.07,1.73-3.52,4.08-7.91,4.08-5,0-8.21-3.47-8.21-7.35,0-4.39,3.21-6.84,7.45-7.45Zm8.52,3.52v-1.12l-7.5,1.12c-2.04.31-3.57,1.48-3.57,3.67,0,1.84,1.53,3.57,3.98,3.57,3.93,0,7.09-1.89,7.09-7.25Z"/>
          <path class="cls-1" d="m216.73,93.27l6.63-.97c1.48-.2,1.89-.97,1.89-1.84,0-2.4-1.58-4.39-5.31-4.39-3.37,0-5.26,2.09-5.56,4.95l-4.59-1.07c.51-4.69,4.75-7.96,10.05-7.96,7.35,0,10.2,4.18,10.2,8.98v12.3c0,2.14.2,3.42.31,4.03h-4.69c-.1-.61-.26-1.53-.26-3.32-1.07,1.73-3.52,4.08-7.91,4.08-5,0-8.21-3.47-8.21-7.35,0-4.39,3.21-6.84,7.45-7.45Zm8.52,3.52v-1.12l-7.5,1.12c-2.04.31-3.57,1.48-3.57,3.67,0,1.84,1.53,3.57,3.98,3.57,3.93,0,7.09-1.89,7.09-7.25Z"/>
          <path class="cls-1" d="m239.54,99.39c.31,2.55,2.25,4.59,5.71,4.59,2.7,0,4.18-1.53,4.18-3.27,0-1.53-1.12-2.7-3.16-3.16l-4.18-.92c-3.83-.82-6.12-3.42-6.12-6.89,0-4.18,3.93-7.76,8.73-7.76,6.73,0,8.83,4.39,9.34,6.58l-4.23,1.58c-.2-1.28-1.22-4.08-5.1-4.08-2.45,0-4.08,1.58-4.08,3.27,0,1.48.92,2.55,2.81,2.96l3.98.87c4.44.97,6.79,3.67,6.79,7.3s-2.91,7.6-8.98,7.6c-6.73,0-9.59-4.34-10-7.14l4.34-1.53Z"/>
          <path class="cls-1" d="m266.99,82.76h5.31v4.34h-5.31v12.76c0,2.25.92,3.37,3.42,3.37.61,0,1.48-.1,1.89-.2v4.08c-.41.15-1.63.46-3.27.46-4.18,0-6.84-2.55-6.84-6.99v-13.47h-4.69v-4.34h1.33c2.65,0,3.78-1.63,3.78-3.78v-3.98h4.39v7.76Z"/>
          <path class="cls-1" d="m291.78,87.6c-.71-.1-1.43-.15-2.09-.15-4.03,0-6.73,2.14-6.73,7.55v12.3h-4.8v-24.54h4.69v4.29c1.79-3.78,4.85-4.69,7.35-4.69.66,0,1.33.1,1.58.15v5.1Z"/>
          <path class="cls-1" d="m299.23,70c1.94,0,3.47,1.53,3.47,3.47s-1.53,3.42-3.47,3.42-3.42-1.53-3.42-3.42,1.53-3.47,3.42-3.47Zm-2.35,37.3v-24.54h4.75v24.54h-4.75Z"/>
          <path class="cls-1" d="m312.65,95c0,5.61,3.52,8.62,7.5,8.62,4.59,0,6.28-3.11,6.84-5.05l4.23,1.84c-1.17,3.52-4.69,7.65-11.07,7.65-7.14,0-12.4-5.61-12.4-13.06s5.36-13.01,12.35-13.01c6.53,0,9.9,4.08,10.92,7.81l-4.34,1.84c-.61-2.4-2.4-5.2-6.58-5.2-3.88,0-7.45,2.86-7.45,8.57Z"/>
          <path class="cls-1" d="m341.63,107.3h-4.8v-36.94h4.8v15.26c1.79-2.6,4.64-3.57,7.45-3.57,5.87,0,8.78,4.23,8.78,9.69v15.56h-4.8v-14.75c0-3.42-1.43-6.17-5.71-6.17-3.67,0-5.61,2.86-5.71,6.48v14.44Z"/>
          <path class="cls-1" d="m371.94,82.76h5.31v4.34h-5.31v12.76c0,2.25.92,3.37,3.42,3.37.61,0,1.48-.1,1.89-.2v4.08c-.41.15-1.63.46-3.27.46-4.18,0-6.84-2.55-6.84-6.99v-13.47h-4.69v-4.34h1.33c2.65,0,3.78-1.63,3.78-3.78v-3.98h4.39v7.76Z"/>
        </g>
      </g>
    </g>
  </g>
</svg>