<?xml version="1.0" encoding="utf-8"?>
<!-- Generator: Adobe Illustrator 27.7.0, SVG Export Plug-In . SVG Version: 6.00 Build 0)  -->
<svg version="1.1" id="Laag_1" xmlns="http://www.w3.org/2000/svg" xmlns:xlink="http://www.w3.org/1999/xlink" x="0px" y="0px"
	 viewBox="0 0 1920 1920" style="enable-background:new 0 0 1920 1920;" xml:space="preserve">
<style type="text/css">
	.st0{fill:#161616;}
</style>
<g>
	<g>
		<g>
			<path class="st0" d="M284.7,1392.9h72.5c10.8,0,19.9,1.4,27.1,4.1c7.3,2.7,13.1,6.3,17.5,10.7c4.4,4.4,7.6,9.4,9.5,15.1
				c1.9,5.7,2.9,11.4,2.9,17.1c0,4.9-0.8,9.6-2.5,14c-1.7,4.4-4.1,8.3-7.2,11.7c-3.1,3.4-6.8,6.2-11.2,8.5
				c-4.3,2.3-9.1,3.8-14.3,4.4l0.5,0.5c1.2-0.2,4,0.3,8.4,1.5c4.4,1.2,9,3.4,13.8,6.7c4.8,3.3,9.1,7.9,12.9,13.7
				c3.8,5.8,5.7,13.3,5.7,22.4c0,8.3-1.5,15.6-4.6,21.8c-3,6.3-7.3,11.5-12.8,15.9c-5.5,4.3-12.1,7.6-19.9,9.8
				c-7.8,2.2-16.4,3.3-25.9,3.3h-72.5V1392.9z M357.3,1475.1c15.4,0,26.9-3.4,34.5-10.3c7.6-6.8,11.4-15.9,11.4-27
				c0-6.6-1.3-12.1-3.8-16.6c-2.5-4.5-5.9-8.1-10.1-10.9c-4.2-2.8-9.1-4.8-14.6-6c-5.5-1.2-11.3-1.8-17.4-1.8h-61.4v72.5H357.3z
				 M357.3,1564.4c16.2,0,29-3.4,38.2-10.3c9.2-6.8,13.8-17.1,13.8-30.8c0-7.8-1.6-14.2-4.8-19.2c-3.2-5-7.3-8.9-12.3-11.8
				c-5-2.9-10.6-4.9-16.7-6c-6.2-1.1-12.2-1.6-18.1-1.6h-61.4v79.6H357.3z"/>
			<path class="st0" d="M546,1392.9h75.6c7.9,0,15.4,0.8,22.3,2.4c6.9,1.6,13,4.2,18.3,7.9c5.2,3.6,9.3,8.4,12.3,14.3
				c3,5.9,4.4,13.3,4.4,22.1c0,12.2-3.4,22.4-10.3,30.8c-6.8,8.4-16.4,13.6-28.5,15.6v0.5c8.3,1,14.8,3.2,19.7,6.6
				c4.8,3.4,8.4,7.5,10.8,12.4c2.4,4.9,3.9,10.3,4.6,16.2c0.7,5.9,1,11.8,1,17.8c0,3.6,0,7,0,10.4c0,3.4,0.2,6.6,0.5,9.5
				c0.3,3,0.9,5.7,1.6,8.2c0.8,2.5,1.8,4.7,3.2,6.3H669c-2.4-4.2-3.7-9.2-3.9-14.8c-0.3-5.7-0.4-11.5-0.4-17.6
				c0-6.1-0.3-12.1-0.8-18.1c-0.5-6-2.1-11.4-4.8-16.1c-2.7-4.7-7-8.5-12.8-11.4c-5.8-2.9-14.1-4.3-24.7-4.3h-64.4v82.4H546V1392.9z
				 M621.6,1482c6.6,0,12.7-0.8,18.4-2.4c5.7-1.6,10.5-4.1,14.6-7.5c4.1-3.4,7.3-7.7,9.6-12.9c2.4-5.2,3.6-11.5,3.6-18.8
				c0-6.8-1.3-12.6-3.8-17.4c-2.5-4.8-5.9-8.8-10.1-11.8c-4.2-3-9.1-5.2-14.7-6.6c-5.6-1.4-11.4-2-17.5-2h-64.4v79.4H621.6z"/>
			<path class="st0" d="M861,1392.9h12.2l71.5,181.1h-11.9l-22.8-58.1h-86.7l-23.1,58.1h-11.9L861,1392.9z M906.4,1506.3
				l-38.8-102.5h-0.5l-40.3,102.5H906.4z"/>
			<path class="st0" d="M1162.6,1444.7c-0.3-7.8-2-14.5-4.9-20.3c-3-5.7-7-10.6-12-14.5c-5.1-3.9-11.1-6.8-18.1-8.8
				c-7-1.9-14.7-2.9-23-2.9c-5.1,0-10.5,0.6-16.4,1.8c-5.8,1.2-11.2,3.3-16.2,6.2c-5,3-9.1,6.9-12.3,11.9c-3.2,5-4.8,11.2-4.8,18.6
				c0,7.3,1.8,13.2,5.3,17.8c3.6,4.6,8.2,8.2,14,11c5.7,2.8,12.3,5,19.8,6.7c7.4,1.7,15,3.3,22.6,4.8c7.8,1.5,15.3,3.3,22.7,5.5
				c7.4,2.1,14,5,19.8,8.6c5.8,3.6,10.5,8.4,14.1,14.2c3.6,5.8,5.3,13.1,5.3,21.9c0,9.5-2,17.4-6.1,23.8
				c-4.1,6.4-9.2,11.7-15.3,15.7c-6.2,4.1-13,7-20.5,8.8c-7.5,1.8-14.8,2.7-21.7,2.7c-10.7,0-20.6-1.1-29.9-3.4
				c-9.3-2.3-17.4-6-24.4-11.2c-6.9-5.2-12.4-11.8-16.4-19.9c-4-8.1-5.9-18-5.7-29.7h11.2c-0.5,10,0.9,18.4,4.3,25.2
				c3.4,6.8,8.1,12.5,14.1,16.9c6,4.4,13.1,7.6,21.2,9.5c8.1,1.9,16.7,2.9,25.6,2.9c5.4,0,11.2-0.7,17.4-2c6.2-1.4,11.8-3.6,17-6.8
				c5.2-3.2,9.5-7.4,12.9-12.7c3.5-5.2,5.2-11.8,5.2-19.8c0-7.6-1.8-13.8-5.3-18.6c-3.6-4.8-8.2-8.7-14.1-11.7
				c-5.8-3-12.4-5.3-19.8-7.1c-7.4-1.8-14.9-3.4-22.7-4.9c-7.6-1.5-15.1-3.3-22.6-5.3c-7.4-2-14-4.8-19.8-8.2
				c-5.8-3.5-10.4-7.9-14-13.4c-3.6-5.5-5.3-12.6-5.3-21.2s1.8-16,5.5-22.2c3.6-6.2,8.4-11.2,14.2-15c5.8-3.8,12.4-6.6,19.7-8.4
				c7.3-1.8,14.5-2.7,21.6-2.7c9.5,0,18.3,1.1,26.5,3.2c8.2,2.1,15.4,5.4,21.6,9.9c6.2,4.5,11.1,10.3,14.8,17.4
				c3.7,7.1,5.8,15.6,6.3,25.6H1162.6z"/>
			<path class="st0" d="M1403.1,1444.7c-0.3-7.8-2-14.5-4.9-20.3c-3-5.7-7-10.6-12-14.5c-5.1-3.9-11.1-6.8-18.1-8.8
				c-7-1.9-14.7-2.9-23-2.9c-5.1,0-10.5,0.6-16.4,1.8c-5.8,1.2-11.2,3.3-16.2,6.2c-5,3-9.1,6.9-12.3,11.9c-3.2,5-4.8,11.2-4.8,18.6
				c0,7.3,1.8,13.2,5.3,17.8c3.6,4.6,8.2,8.2,14,11c5.7,2.8,12.3,5,19.8,6.7c7.4,1.7,15,3.3,22.6,4.8c7.8,1.5,15.3,3.3,22.7,5.5
				c7.4,2.1,14,5,19.8,8.6c5.8,3.6,10.5,8.4,14.1,14.2c3.6,5.8,5.3,13.1,5.3,21.9c0,9.5-2,17.4-6.1,23.8
				c-4.1,6.4-9.2,11.7-15.3,15.7c-6.2,4.1-13,7-20.5,8.8c-7.5,1.8-14.8,2.7-21.7,2.7c-10.7,0-20.6-1.1-29.9-3.4
				c-9.3-2.3-17.4-6-24.4-11.2c-6.9-5.2-12.4-11.8-16.4-19.9c-4-8.1-5.9-18-5.7-29.7h11.2c-0.5,10,0.9,18.4,4.3,25.2
				c3.4,6.8,8.1,12.5,14.1,16.9c6,4.4,13.1,7.6,21.2,9.5c8.1,1.9,16.7,2.9,25.6,2.9c5.4,0,11.2-0.7,17.4-2c6.2-1.4,11.8-3.6,17-6.8
				c5.2-3.2,9.5-7.4,12.9-12.7c3.5-5.2,5.2-11.8,5.2-19.8c0-7.6-1.8-13.8-5.3-18.6s-8.2-8.7-14.1-11.7c-5.8-3-12.4-5.3-19.8-7.1
				c-7.4-1.8-14.9-3.4-22.7-4.9c-7.6-1.5-15.1-3.3-22.6-5.3c-7.4-2-14-4.8-19.8-8.2c-5.8-3.5-10.4-7.9-14-13.4
				c-3.6-5.5-5.3-12.6-5.3-21.2s1.8-16,5.5-22.2c3.6-6.2,8.4-11.2,14.2-15c5.8-3.8,12.4-6.6,19.7-8.4c7.3-1.8,14.5-2.7,21.6-2.7
				c9.5,0,18.3,1.1,26.5,3.2c8.2,2.1,15.4,5.4,21.6,9.9c6.2,4.5,11.1,10.3,14.8,17.4c3.7,7.1,5.8,15.6,6.3,25.6H1403.1z"/>
			<path class="st0" d="M1590,1392.9h12.2l71.5,181.1h-11.9l-22.8-58.1h-86.7l-23.1,58.1h-11.9L1590,1392.9z M1635.4,1506.3
				l-38.8-102.5h-0.5l-40.3,102.5H1635.4z"/>
		</g>
		<g>
			<path class="st0" d="M766.6,1271v15.5h0.1c0.8-1.7,2.1-2.9,3.8-3.6s3.7-1.1,5.8-1.1c2.3,0,4.3,0.4,6.1,1.3c1.7,0.9,3.2,2,4.3,3.5
				c1.1,1.5,2,3.1,2.6,5c0.6,1.9,0.9,3.9,0.9,6s-0.3,4.1-0.8,6c-0.6,1.9-1.4,3.6-2.6,5c-1.1,1.4-2.6,2.5-4.3,3.3
				c-1.7,0.8-3.7,1.2-6,1.2c-0.7,0-1.6-0.1-2.5-0.2c-0.9-0.2-1.8-0.4-2.7-0.8c-0.9-0.3-1.7-0.8-2.5-1.4c-0.8-0.6-1.5-1.3-2-2.2h-0.1
				v4h-4.9V1271H766.6z M784.4,1293.1c-0.4-1.3-0.9-2.5-1.7-3.6c-0.8-1-1.7-1.9-2.9-2.5c-1.2-0.6-2.6-0.9-4.2-0.9
				c-1.7,0-3.1,0.3-4.2,1c-1.2,0.7-2.1,1.5-2.8,2.6c-0.7,1.1-1.3,2.3-1.6,3.6c-0.3,1.4-0.5,2.7-0.5,4.1c0,1.5,0.2,2.9,0.5,4.3
				c0.3,1.4,0.9,2.6,1.7,3.6c0.8,1,1.7,1.9,2.9,2.5c1.2,0.6,2.7,1,4.4,1c1.7,0,3.1-0.3,4.3-1c1.1-0.7,2.1-1.5,2.8-2.6
				c0.7-1.1,1.2-2.3,1.5-3.7c0.3-1.4,0.5-2.8,0.5-4.3C784.9,1295.8,784.8,1294.5,784.4,1293.1z"/>
			<path class="st0" d="M823.7,1282.5v6.3h0.1c1.2-2.4,2.7-4.2,4.4-5.4c1.7-1.2,4-1.7,6.6-1.6v5.2c-2,0-3.7,0.3-5.1,0.8
				c-1.4,0.5-2.5,1.3-3.4,2.4c-0.9,1-1.5,2.3-1.9,3.8c-0.4,1.5-0.6,3.2-0.6,5.1v13.4h-4.9v-30H823.7z"/>
			<path class="st0" d="M888.5,1312.4c-0.9,0.5-2,0.8-3.5,0.8c-1.3,0-2.3-0.4-3.1-1.1c-0.8-0.7-1.1-1.9-1.1-3.5
				c-1.4,1.6-2.9,2.8-4.7,3.5c-1.8,0.7-3.7,1.1-5.8,1.1c-1.4,0-2.6-0.2-3.9-0.5c-1.2-0.3-2.3-0.8-3.2-1.5c-0.9-0.7-1.6-1.5-2.1-2.6
				c-0.5-1.1-0.8-2.4-0.8-3.9c0-1.7,0.3-3.1,0.9-4.2c0.6-1.1,1.3-2,2.3-2.6c0.9-0.7,2-1.2,3.3-1.5s2.5-0.6,3.7-0.9
				c1.4-0.3,2.6-0.5,3.9-0.6s2.3-0.3,3.2-0.6c0.9-0.3,1.7-0.6,2.2-1.1c0.5-0.5,0.8-1.2,0.8-2.1c0-1.1-0.2-2-0.6-2.6
				c-0.4-0.7-0.9-1.2-1.6-1.5c-0.6-0.3-1.4-0.6-2.2-0.7c-0.8-0.1-1.6-0.2-2.4-0.2c-2.1,0-3.8,0.4-5.2,1.2c-1.4,0.8-2.2,2.3-2.3,4.5
				h-4.9c0.1-1.9,0.5-3.4,1.2-4.7c0.7-1.3,1.6-2.3,2.8-3.1c1.2-0.8,2.5-1.4,4-1.7c1.5-0.3,3.1-0.5,4.8-0.5c1.4,0,2.7,0.1,4,0.3
				s2.5,0.6,3.6,1.2c1.1,0.6,2,1.4,2.6,2.5c0.7,1.1,1,2.5,1,4.2v15.4c0,1.2,0.1,2,0.2,2.6c0.1,0.5,0.6,0.8,1.4,0.8
				c0.4,0,0.9-0.1,1.5-0.2V1312.4z M880.4,1297c-0.6,0.5-1.4,0.8-2.4,1c-1,0.2-2.1,0.4-3.2,0.5c-1.1,0.1-2.2,0.3-3.3,0.5
				c-1.1,0.2-2.1,0.5-3,0.8c-0.9,0.4-1.6,0.9-2.2,1.6c-0.6,0.7-0.8,1.7-0.8,2.9c0,0.8,0.2,1.5,0.5,2.1c0.3,0.6,0.8,1,1.3,1.4
				c0.5,0.3,1.1,0.6,1.8,0.8c0.7,0.2,1.4,0.2,2.2,0.2c1.6,0,3-0.2,4.2-0.7c1.2-0.4,2.1-1,2.8-1.7c0.7-0.7,1.3-1.4,1.6-2.2
				c0.3-0.8,0.5-1.5,0.5-2.2V1297z"/>
			<path class="st0" d="M920.1,1305.8c0.5,0.8,1.1,1.4,1.8,1.8c0.8,0.4,1.6,0.8,2.6,1c0.9,0.2,1.9,0.3,2.9,0.3
				c0.8,0,1.6-0.1,2.4-0.2c0.9-0.1,1.6-0.3,2.4-0.6c0.7-0.3,1.3-0.8,1.8-1.4s0.7-1.4,0.7-2.3c0-1.3-0.5-2.2-1.5-2.9
				c-1-0.7-2.2-1.2-3.6-1.6c-1.5-0.4-3-0.8-4.7-1.1c-1.7-0.3-3.3-0.8-4.7-1.4c-1.5-0.6-2.7-1.4-3.6-2.5c-1-1.1-1.5-2.6-1.5-4.5
				c0-1.5,0.3-2.8,1-3.9c0.7-1.1,1.5-2,2.6-2.6c1.1-0.7,2.3-1.2,3.6-1.5c1.3-0.3,2.7-0.5,4-0.5c1.7,0,3.3,0.1,4.7,0.4
				c1.4,0.3,2.7,0.8,3.8,1.5c1.1,0.7,2,1.7,2.6,2.9c0.7,1.2,1,2.7,1.2,4.6h-4.9c-0.1-1-0.3-1.8-0.8-2.4c-0.4-0.6-1-1.2-1.6-1.5
				c-0.7-0.4-1.4-0.7-2.2-0.8c-0.8-0.2-1.6-0.3-2.4-0.3c-0.7,0-1.5,0.1-2.2,0.2c-0.8,0.1-1.4,0.3-2.1,0.6c-0.6,0.3-1.1,0.7-1.5,1.2
				c-0.4,0.5-0.6,1.1-0.6,1.9c0,0.9,0.3,1.6,0.9,2.1c0.6,0.6,1.4,1,2.3,1.4c0.9,0.4,2,0.7,3.1,0.9c1.2,0.3,2.3,0.5,3.5,0.8
				c1.2,0.3,2.5,0.6,3.6,1c1.2,0.4,2.2,0.9,3.1,1.5c0.9,0.6,1.6,1.4,2.2,2.4c0.6,1,0.8,2.2,0.8,3.6c0,1.8-0.4,3.3-1.1,4.5
				c-0.8,1.2-1.7,2.2-3,2.9c-1.2,0.7-2.6,1.2-4.1,1.5c-1.5,0.3-3.1,0.4-4.6,0.4c-1.7,0-3.3-0.2-4.8-0.5s-2.8-0.9-4-1.7
				c-1.2-0.8-2.1-1.8-2.8-3.1c-0.7-1.3-1.1-2.9-1.2-4.7h4.9C919.4,1304.1,919.6,1305,920.1,1305.8z"/>
			<path class="st0" d="M972.4,1305.8c0.5,0.8,1.1,1.4,1.8,1.8c0.8,0.4,1.6,0.8,2.6,1c0.9,0.2,1.9,0.3,2.9,0.3
				c0.8,0,1.6-0.1,2.4-0.2c0.9-0.1,1.6-0.3,2.4-0.6c0.7-0.3,1.3-0.8,1.8-1.4s0.7-1.4,0.7-2.3c0-1.3-0.5-2.2-1.5-2.9
				c-1-0.7-2.2-1.2-3.6-1.6c-1.5-0.4-3-0.8-4.7-1.1c-1.7-0.3-3.3-0.8-4.7-1.4c-1.5-0.6-2.7-1.4-3.6-2.5c-1-1.1-1.5-2.6-1.5-4.5
				c0-1.5,0.3-2.8,1-3.9s1.5-2,2.6-2.6s2.3-1.2,3.6-1.5c1.3-0.3,2.7-0.5,4-0.5c1.7,0,3.3,0.1,4.7,0.4c1.4,0.3,2.7,0.8,3.8,1.5
				c1.1,0.7,2,1.7,2.6,2.9c0.7,1.2,1,2.7,1.2,4.6h-4.9c-0.1-1-0.3-1.8-0.8-2.4c-0.4-0.6-1-1.2-1.6-1.5c-0.7-0.4-1.4-0.7-2.2-0.8
				c-0.8-0.2-1.6-0.3-2.4-0.3c-0.7,0-1.5,0.1-2.2,0.2c-0.8,0.1-1.4,0.3-2.1,0.6c-0.6,0.3-1.1,0.7-1.5,1.2c-0.4,0.5-0.6,1.1-0.6,1.9
				c0,0.9,0.3,1.6,0.9,2.1c0.6,0.6,1.4,1,2.3,1.4c0.9,0.4,2,0.7,3.1,0.9c1.2,0.3,2.3,0.5,3.5,0.8c1.2,0.3,2.5,0.6,3.6,1
				c1.2,0.4,2.2,0.9,3.1,1.5c0.9,0.6,1.6,1.4,2.2,2.4c0.6,1,0.8,2.2,0.8,3.6c0,1.8-0.4,3.3-1.1,4.5c-0.8,1.2-1.7,2.2-3,2.9
				c-1.2,0.7-2.6,1.2-4.1,1.5c-1.5,0.3-3.1,0.4-4.6,0.4c-1.7,0-3.3-0.2-4.8-0.5c-1.5-0.3-2.8-0.9-4-1.7c-1.2-0.8-2.1-1.8-2.8-3.1
				c-0.7-1.3-1.1-2.9-1.2-4.7h4.9C971.7,1304.1,971.9,1305,972.4,1305.8z"/>
			<path class="st0" d="M1042.2,1310.6c-2.2,1.7-5.1,2.6-8.5,2.6c-2.4,0-4.5-0.4-6.2-1.2c-1.8-0.8-3.2-1.9-4.4-3.3
				c-1.2-1.4-2.1-3.1-2.7-5c-0.6-1.9-0.9-4-1-6.3c0-2.3,0.3-4.4,1-6.3c0.7-1.9,1.7-3.5,2.9-4.9c1.3-1.4,2.8-2.5,4.5-3.3
				c1.7-0.8,3.6-1.2,5.7-1.2c2.7,0,4.9,0.6,6.7,1.7c1.8,1.1,3.2,2.5,4.2,4.2c1.1,1.7,1.8,3.6,2.2,5.6c0.4,2,0.6,3.9,0.5,5.8h-22.5
				c0,1.3,0.1,2.6,0.5,3.7s0.9,2.2,1.7,3.1c0.8,0.9,1.8,1.6,3,2.2c1.2,0.5,2.6,0.8,4.2,0.8c2.1,0,3.8-0.5,5.1-1.5s2.2-2.4,2.6-4.4
				h4.9C1045.9,1306.3,1044.4,1308.9,1042.2,1310.6z M1041,1291.3c-0.4-1-1-1.9-1.8-2.7c-0.8-0.8-1.6-1.4-2.7-1.8
				c-1-0.4-2.2-0.7-3.4-0.7c-1.3,0-2.4,0.2-3.5,0.7c-1,0.4-1.9,1.1-2.6,1.8c-0.7,0.8-1.3,1.7-1.7,2.7c-0.4,1-0.7,2.1-0.8,3.3h17.3
				C1041.7,1293.4,1041.4,1292.3,1041,1291.3z"/>
			<path class="st0" d="M1079.8,1282.5v6.3h0.1c1.2-2.4,2.7-4.2,4.4-5.4c1.7-1.2,4-1.7,6.6-1.6v5.2c-2,0-3.7,0.3-5.1,0.8
				c-1.4,0.5-2.5,1.3-3.4,2.4c-0.9,1-1.5,2.3-1.9,3.8c-0.4,1.5-0.6,3.2-0.6,5.1v13.4h-4.9v-30H1079.8z"/>
			<path class="st0" d="M1118.3,1277v-6h4.9v6H1118.3z M1123.2,1282.5v30h-4.9v-30H1123.2z"/>
			<path class="st0" d="M1175.4,1310.6c-2.2,1.7-5.1,2.6-8.5,2.6c-2.4,0-4.5-0.4-6.2-1.2c-1.8-0.8-3.2-1.9-4.4-3.3
				c-1.2-1.4-2.1-3.1-2.7-5c-0.6-1.9-0.9-4-1-6.3c0-2.3,0.3-4.4,1-6.3c0.7-1.9,1.7-3.5,2.9-4.9c1.3-1.4,2.8-2.5,4.5-3.3
				c1.7-0.8,3.6-1.2,5.7-1.2c2.7,0,4.9,0.6,6.7,1.7c1.8,1.1,3.2,2.5,4.2,4.2c1.1,1.7,1.8,3.6,2.2,5.6c0.4,2,0.6,3.9,0.5,5.8h-22.5
				c0,1.3,0.1,2.6,0.5,3.7s0.9,2.2,1.7,3.1c0.8,0.9,1.8,1.6,3,2.2c1.2,0.5,2.6,0.8,4.2,0.8c2.1,0,3.8-0.5,5.1-1.5s2.2-2.4,2.6-4.4
				h4.9C1179.1,1306.3,1177.6,1308.9,1175.4,1310.6z M1174.2,1291.3c-0.4-1-1-1.9-1.8-2.7c-0.8-0.8-1.6-1.4-2.7-1.8
				c-1-0.4-2.2-0.7-3.4-0.7c-1.3,0-2.4,0.2-3.5,0.7c-1,0.4-1.9,1.1-2.6,1.8c-0.7,0.8-1.3,1.7-1.7,2.7c-0.4,1-0.7,2.1-0.8,3.3h17.3
				C1174.9,1293.4,1174.6,1292.3,1174.2,1291.3z"/>
		</g>
	</g>
	<g>
		<path class="st0" d="M876.8,1110.3c-33.9-28.6-61.1-64.1-86.9-99.9c-37-51.9-74-112.2-108.3-166.2c-10.1-17-25.2-39.3-34.9-56.3
			c-11.3-19.7-21.3-40.6-23.8-63.6c-4-44.9,22.9-62.1,61.1-75.1c52.3-17.7,105.4-33,158.5-47.6c20.4-6,42-10.5,59.4-22.9
			c40.4-30.1,75.1-83.9,67.6-135.8c-13-72.9-114.4-116.1-176.5-76.3c-47,31.8-47.6,97.9-36.3,148.1c6.9,32.1,22.4,62.2,46.1,85.1
			c15.4,16,34.6,27.2,49.6,43.9c51.7,61,33.7,171,17,243c-27.8,112.7-73.8,220.4-127.2,323.1c31.5-82.4,63.8-164.2,90.2-247.8
			c24.8-83.9,74.9-239.7,15.6-314.6c-13.9-16.6-33.2-28.8-48-44.9c-31.7-31.8-47.9-75.7-52.3-119.8
			c-8.6-74.3,23.3-141.1,106.5-139.4c56.3,1.8,115.6,39.7,126.4,97.7c9,56-28.4,114.8-71.9,147.2c-18.8,13.5-41.5,18.5-63,24.8
			c-21.2,5.9-42.4,11.8-63.4,18.1c-31.5,9.4-63.2,18.9-94.2,29.6c-14.8,5.5-30,10.6-41.3,21.4c-26.2,28.6-6.9,71.1,9.5,100.3
			c56.8,92.8,114.3,189.1,179,276.6c13.2,17.5,27.1,34.5,42.5,50.2L876.8,1110.3L876.8,1110.3z"/>
		<path class="st0" d="M922.4,1007c7,72.8-36.6,96.1-102.9,80.1c-26.2-6.5-51.5-17.5-73.7-33c-27.9-20.1-46.7-45.4-3.3-61.7
			c33.8-12.8,69-19.1,104-27c34.9-7.6,69.9-14.7,105-21.1c17.6-3.2,35.1-6.3,52.6-9.7c33.6-6.8,70.7-13,94.9-39
			c17.6-18.8,28.2-44.1,33-69.3c1.5-8.5,2.4-17.2,1.5-25.3c-0.4-2.6-0.7-4.9-2-6.7c-0.2-0.1,0.4,0.1,0.3,0.1
			c-3.1,0.7-5.8,3.5-8.4,5.7c-12.1,11.9-22.9,26.8-31.8,41.3c-21.3,38-26.2,84.1-20,126.8c2.7,17.1,7.3,34.3,15.9,48.8
			c3.6,6.2,8.1,11.9,13.9,16.2c32.5,23.7,88.4-27.9,107.4-53.1c21.4-27.1,38.1-59.2,41.5-93.8c2-17.6-2.5-34.3-5.2-51.8
			c-5.5-35.8-5.4-72.1-2.7-108c0.4-7.9,1.8-17.1-0.6-24.2c-11.1-23.6-43.9-17.5-65.4-15.1c-21.7,2.9-46.7,8.4-68.7,4.9
			c-61.5-12-33.2-85.9-16.7-124.3c5.2-12.5,11-25.1,17.8-36.8c4.6-7.9,9.7-15.5,15.1-22.8c10-14,22.1-26.9,23.1-44.5
			c1.8-34.4-19.2-66.9-44.6-88.7c-63.9-53.4-136.5-16.3-163.2,55.4c-20,55.3-7.2,103.4,45.4,132.9c15.1,8.5,31.4,15.9,48.3,19.7
			c17.2,3.7,34.9,3.3,52.5,3.2c35.8-0.5,71.9,2.8,107.1,9.5c21.8,4.5,45.3,9.1,64,22.7c7.5,5.8,13.6,13.6,17.1,22.5
			c8.6,20.7,6.9,55-19.7,60.6c-18.9,3.3-36.6-3.7-53.7-9.8c-33.3-12.7-64.8-30.2-99-39.7c-46.5-12.8-64.2,7.2-58.8,53.2
			c8,70.7,27,140.3,58.2,204.4c10.9,24.2,22.9,49.4,23,76.5c0.4,27-9.5,53.1-23.7,75.7c17.5-28.2,27.5-62.4,20.4-95.5
			c-9-36.9-30.1-69.4-43.3-104.8c-19.9-49.9-31.6-102.6-38.6-155.9c-3.6-29.2,0.8-61.1,37-62.1c27.4,0.1,52.9,12.1,77.7,22.1
			c16.4,7,32.7,14.3,49.3,20.6c17.5,5.9,44.9,17.1,60.6,3.9c8.9-8.7,9.9-22.6,7.9-34.5c-2.4-17.1-13.6-31.3-29.2-38.3
			c-23.5-11.1-50.8-14.9-76.6-19c-35.3-5.4-70.8-4.8-106.4-5c-27.5-0.4-54-9.9-77.7-23.5c-33.2-18.5-57.5-48.8-58.1-88.2
			c-2.9-71.4,58.4-154.8,136.1-138c51.6,11.4,99.9,67,97.5,120.8c-0.6,19.2-13.6,35-23.8,49.8c-19.9,28.8-31.9,62.7-41.9,95.8
			c-35.1,126.4,104,29.9,153.2,75.1c13.1,11.9,11.1,26.7,9.7,42.2c-1.7,17.7-2.2,35.2-2,52.9c0,26.9,3.8,52.6,8.5,79.1
			c4.2,27.6-2.7,55.9-14.3,80.8c-19.7,40.9-50.8,77.8-91.2,99.4c-16.5,8.5-38.8,14.4-55.7,3.5c-23.5-15.4-32.2-47.6-36.5-73.5
			c-5.2-36.1-2.4-73.4,10-107.8c6-17.2,15.9-33.2,27-47.5c6.7-8,28.2-39.2,39.4-25.1c9.2,15.9,0.4,48.8-5.4,65.2
			c-13.1,36.5-37.4,64.1-75.1,75.7c-34.5,10.9-70,15.2-105.3,21.9c-35.1,6.2-70,13.1-104.9,20.5c-34.5,7.7-70.1,13.8-103.2,25.8
			c-17.2,6.9-31.1,15.1-15.1,34.2c29.8,33.8,98.1,61.9,143.1,55.2C914.7,1081.8,924.7,1043.8,922.4,1007L922.4,1007z"/>
	</g>
</g>
</svg>
