<?xml version="1.0" encoding="utf-8"?>
<!-- Generator: Adobe Illustrator 27.7.0, SVG Export Plug-In . SVG Version: 6.00 Build 0)  -->
<svg version="1.1" id="Laag_1" xmlns="http://www.w3.org/2000/svg" xmlns:xlink="http://www.w3.org/1999/xlink" x="0px" y="0px"
	 viewBox="0 0 1920 1920" style="enable-background:new 0 0 1920 1920;" xml:space="preserve">
<style type="text/css">
	.st0{fill:#EFEFEF;}
</style>
<g>
	<g>
		<path class="st0" d="M813.9,1581.5c-62.8-53-113.3-119-161.1-185.2c-68.6-96.3-137.3-208.1-200.8-308.4
			c-18.7-31.5-46.8-72.9-64.8-104.4c-20.9-36.5-39.5-75.3-44.2-118c-7.5-83.3,42.4-115.3,113.3-139.2c97-32.9,195.4-61.1,294.1-88.4
			c37.9-11.1,78-19.6,110.2-42.5c74.9-55.9,139.3-155.7,125.4-251.9C961.8,208.2,773.9,128,658.5,201.8
			c-87.2,59-88.3,181.5-67.4,274.8c12.8,59.5,41.6,115.3,85.5,157.8c28.6,29.7,64.2,50.4,92,81.5c96,113.1,62.5,317.2,31.5,450.8
			c-51.6,209-136.9,408.8-236,599.3c58.3-152.9,118.3-304.6,167.3-459.6c46-155.6,139-444.7,29-583.6c-25.8-30.7-61.6-53.4-89-83.3
			c-58.8-58.9-88.8-140.5-96.9-222.2C558.6,279.4,617.7,155.6,772,158.8c104.5,3.3,214.5,73.7,234.4,181.2
			c16.7,103.9-52.7,213-133.3,273c-34.8,25-76.9,34.3-116.9,46c-39.4,11-78.6,21.9-117.7,33.5c-58.4,17.5-117.2,35.1-174.7,55
			c-27.5,10.3-55.6,19.7-76.5,39.8c-48.6,53.1-12.8,132,17.6,186.1c105.4,172.1,212.1,350.8,332,513.1c24.6,32.4,50.3,64,78.8,93.1
			L813.9,1581.5L813.9,1581.5z"/>
		<path class="st0" d="M898.4,1390c12.9,135.1-67.9,178.3-190.9,148.5c-48.7-12.1-95.5-32.4-136.7-61.2
			c-51.7-37.2-86.6-84.1-6.2-114.5c62.7-23.7,128-35.5,193-50.2c64.7-14.1,129.7-27.4,194.9-39.1c32.6-6,65.2-11.7,97.6-17.9
			c62.3-12.7,131.1-24.1,176-72.3c32.6-34.9,52.4-81.8,61.1-128.6c2.8-15.7,4.4-32,2.8-47c-0.8-4.8-1.2-9-3.7-12.5
			c-0.3-0.1,0.8,0.3,0.5,0.2c-5.7,1.3-10.9,6.5-15.5,10.5c-22.4,22.1-42.5,49.7-58.9,76.5c-39.6,70.5-48.5,156-37.2,235.3
			c5,31.8,13.6,63.6,29.5,90.6c6.8,11.5,15.1,22.2,25.8,30.1c60.2,43.9,163.9-51.8,199.3-98.5c39.6-50.2,70.7-109.8,76.9-174.1
			c3.6-32.6-4.6-63.6-9.7-96.1c-10.2-66.4-10-133.7-5-200.4c0.8-14.6,3.3-31.7-1.1-44.9c-20.5-43.8-81.4-32.4-121.3-27.9
			c-40.3,5.4-86.6,15.5-127.4,9c-114.1-22.2-61.5-159.4-31-230.5c9.6-23.2,20.4-46.6,33-68.3c8.6-14.6,18.1-28.7,28-42.3
			c18.6-26,41-49.8,42.8-82.5c3.3-63.8-35.6-124.1-82.7-164.5c-118.6-99-253.1-30.2-302.7,102.7c-37.1,102.6-13.3,191.7,84.1,246.5
			c27.9,15.8,58.2,29.4,89.6,36.5c31.9,6.8,64.7,6.1,97.4,6c66.5-0.8,133.3,5.2,198.7,17.7c40.4,8.4,84.1,16.9,118.7,42.2
			c14,10.7,25.2,25.3,31.7,41.7c16,38.3,12.8,102.1-36.6,112.5c-35,6.2-67.8-6.8-99.7-18.2c-61.7-23.6-120.2-56-183.7-73.7
			c-86.2-23.7-119,13.4-109.1,98.7c14.8,131.2,50,260.2,108,379.1c20.3,44.8,42.4,91.7,42.6,142c0.7,50-17.6,98.6-44,140.4
			c32.5-52.4,50.9-115.8,37.9-177.1c-16.8-68.4-55.8-128.8-80.4-194.5c-37-92.6-58.6-190.4-71.5-289.2
			c-6.7-54.2,1.4-113.3,68.6-115.2c50.9,0.1,98.2,22.4,144.1,41.1c30.5,13,60.6,26.6,91.4,38.2c32.4,10.9,83.2,31.7,112.4,7.2
			c16.6-16.1,18.3-41.8,14.7-64.1c-4.4-31.7-25.2-58.1-54.2-71.1c-43.6-20.6-94.2-27.6-142-35.2c-65.5-10-131.3-8.8-197.4-9.2
			c-51.1-0.7-100.1-18.3-144.1-43.6c-61.7-34.4-106.6-90.5-107.8-163.7c-5.3-132.4,108.4-287.2,252.5-255.9
			c95.7,21.2,185.3,124.3,180.8,224.2c-1.1,35.7-25.3,65-44.2,92.4c-37,53.4-59.1,116.4-77.7,177.8
			c-65.1,234.5,192.9,55.5,284.2,139.2c24.2,22.1,20.7,49.5,18,78.3c-3.1,32.8-4.2,65.4-3.7,98.2c0.1,49.9,7,97.5,15.8,146.6
			c7.8,51.1-4.9,103.6-26.5,149.9c-36.6,75.9-94.2,144.3-169.2,184.4c-30.6,15.8-71.9,26.8-103.4,6.5
			c-43.6-28.6-59.8-88.2-67.6-136.4c-9.6-66.9-4.4-136.1,18.5-200c11.1-32,29.5-61.6,50.1-88.1c12.4-14.7,52.2-72.6,73.1-46.6
			c17.1,29.4,0.8,90.6-10,121c-24.2,67.7-69.3,118.8-139.4,140.4c-64.1,20.1-129.9,28.3-195.3,40.6c-65.2,11.4-129.9,24.3-194.7,38
			c-64,14.2-130,25.5-191.4,47.9c-32,12.8-57.7,28-28.1,63.4c55.2,62.7,182,114.8,265.4,102.4C884.1,1528.7,902.7,1458.2,898.4,1390
			L898.4,1390z"/>
	</g>
</g>
</svg>
