<?xml version="1.0" encoding="UTF-8"?>
<svg id="Laag_2" data-name="Laag 2" xmlns="http://www.w3.org/2000/svg" viewBox="0 0 1503.89 1238.02">
  <defs>
    <style>
      .cls-1 {
        fill: #fff;
      }
    </style>
  </defs>
  <g id="Laag_1-2" data-name="Laag 1">
    <path class="cls-1" d="m1503.86,921.3c-.21-26.37-2.79-134.78-87-217-38.25-37.35-79.95-56.21-109-66,.54-1.27,1.46-3.11,3-5,3.07-3.75,6.73-5.41,8-6,8.25-3.83,15.6-9.51,24-13,14.47-6.02,111.66-126.11,83-286-24.73-137.98-127.04-215.53-158-239-83.97-63.65-169.16-78.86-212-86-42.36-7.06-97.24-2.04-207,8-13.74,1.26-37.03,3.68-58,20-15.62,12.15-26.07,29-37,61-20.31,59.46-21,107-21,107-.92,63.01-14.53,183.82-42,374-15.12-6.95-32.14-13.83-51-20-12.2-3.99-23.91-7.28-35-10,20.13-18.26,48.83-49.75,65-96,35.36-101.11-16.34-195.03-40-238-7.14-12.97-92.16-162.19-249-191-17.71-3.25-36.14-3.84-73-5,0,0-107.24-3.39-228,31-13.27,3.78-35.12,10.47-52,30-14.96,17.3-19.1,36.71-21,47-15.72,85.22-.55,211.17,7,283,4.22,40.2,2.31,27.72,7,73,12.82,123.64,21.04,158.04,45,335,5.93,43.77,13.99,87.24,20,131,10.04,73.17,13.71,113.71,45,150,6.21,7.2,22.96,26.2,51,38,25.31,10.65,47.48,10.24,61,10,163.06-2.92,182.48-1.95,253-11,23.38-3,35.25-4.55,44-7,68.39-19.14,111.76-71.76,136-109,.62,47.1,9.77,110.76,55,142,5.94,4.1,10.9,6.54,14,8,183.23,86.17,348,73,348,73,62.35-4.98,308.44-24.62,386-189,25.07-53.14,25.17-105.96,25-127ZM237.86,437.3c-6.53-4.79-11.83-11.29-17-22-8.9-18.44-9.79-33.61-12-62-2.76-35.34-6.1-72.38,4-90,2.31-4.04,5.91-10.3,13-14,4.39-2.29,18.72-6.52,14-5,.21-.02,70.87-22.72,122,9,1.49.93,5.8,3.65,11,8,5.47,4.57,39.66,34.1,40,82,.05,6.3-.29,50.49-32,75-6.31,4.88-14.21,7.92-30,14-19.65,7.57-46.74,17.68-80,15-19.91-1.61-28.52-6.71-33-10Zm323,416c-10.44,12.03-22.62,17.35-47,28,0,0-74.91,32.72-162,20-4.7-.69-11.25-1.85-19-5-22.42-9.11-34.98-26.71-40-35-6.45-10.64-8.69-19.46-12-33-3.92-16.04-10.3-43.25-5-78,3.12-20.48,5.93-38.85,21-53,7.55-7.09,14.83-9.97,25-14,6.89-2.73,23.95-8.81,75-10,14.74-.34,22.11-.52,32,0,22.75,1.19,54.61,2.85,86,18,16.35,7.89,39.94,19.28,55,45,21.23,36.25,17.22,86.78-9,117Zm355-469c6.18-50.29,7.57-77.4,19-108,2.15-5.76,5.92-15.01,15-22,2.66-2.05,9.83-7.02,25-9,13.32-1.74,19.91.51,42,4,34.32,5.42,38.35,3.15,55,9,7.1,2.5,17.27,6.07,27,13,42.09,29.99,38.58,96.27,38,105-.77,11.6-2.13,29.04-13,48-3.32,5.8-13.11,22.4-33,34-12.49,7.29-22.8,9-42,12-18.07,2.82-50,5.85-86-3-13.62-3.35-23.67-7.38-32-16-1.62-1.68-7.54-8.05-12-20-6.7-17.97-4.61-33.87-3-47Zm308,490c-.1,12.16-.33,39.2-19,64-2.91,3.86-14.08,18.05-34,28-14.1,7.04-26.57,8.96-35,10-88.83,10.97-157-10-157-10-51.8-15.94-64.82-32.98-70-42-2.54-4.42-6.93-13.45-10-25-4.28-16.13-3.86-29.19-3-43,2.86-45.88,4.28-68.82,13-85,4.66-8.66,13.53-24.63,32-35,14.27-8.01,28.59-9.49,34-10,11.83-1.11,20.84.34,25,1,56.02,8.84,57.59,3.36,90,12,15.77,4.2,41.32,11.22,70,29,17.2,10.67,30.83,19.12,43,36,20.92,29.02,21.08,60.13,21,70Z"/>
  </g>
</svg>